<?xml version="1.0" encoding="UTF-8" standalone="no"?><svg xmlns="http://www.w3.org/2000/svg" xmlns:xlink="http://www.w3.org/1999/xlink" clip-rule="evenodd" stroke-miterlimit="10" viewBox="0 0 594 118"><desc>SVG generated by Keynote</desc><defs></defs><g transform="matrix(1.00, 0.00, -0.00, -1.00, 0.0, 118.0)"><path d="M 5.9 59.1 L 5.9 59.1 C 5.9 88.5 29.7 112.0 59.1 112.0 L 534.9 112.0 C 564.3 112.0 588.1 88.5 588.1 59.1 L 588.1 59.1 C 588.1 29.7 564.3 6.0 534.9 6.0 L 59.1 6.0 C 29.7 6.0 5.9 29.7 5.9 59.1 Z M 5.9 59.1 " fill="#EC5A1D"></path><path d="M 0.0 53.3 L 0.0 53.3 C 0.0 23.8 23.8 0.3 53.3 0.3 L 529.0 0.3 C 558.4 0.3 582.3 23.8 582.3 53.3 L 582.3 53.3 C 582.3 82.7 558.4 106.3 529.0 106.3 L 53.3 106.3 C 23.8 106.3 0.0 82.7 0.0 53.3 Z M 0.0 53.3 " fill="none" stroke="#FEFFFE" stroke-width="8.00" transform="matrix(1.00, 0.00, 0.00, -1.00, 5.9, 112.3)"></path><g><clipPath id="clip0x600002aab400"><path d="M 5.9 5.8 L 588.1 5.8 L 588.1 112.3 L 5.9 112.3 Z M 5.9 5.8 "></path></clipPath><g clip-path="url(#clip0x600002aab400)"><text xml:space="preserve" font-family="HoboStd,Hobo Std" font-size="45.0" fill="#FEFFFE" transform="matrix(1.00, 0.00, -0.00, -1.00, 87.7, 47.4)">P</text><text xml:space="preserve" font-family="HoboStd,Hobo Std" font-size="45.0" fill="#FEFFFE" transform="matrix(1.00, 0.00, -0.00, -1.00, 115.8, 47.4)">R</text><text xml:space="preserve" font-family="HoboStd,Hobo Std" font-size="45.0" fill="#FEFFFE" transform="matrix(1.00, 0.00, -0.00, -1.00, 145.6, 47.4)">O</text><text xml:space="preserve" font-family="HoboStd,Hobo Std" font-size="45.0" fill="#FEFFFE" transform="matrix(1.00, 0.00, -0.00, -1.00, 177.7, 47.4)">B</text><text xml:space="preserve" font-family="HoboStd,Hobo Std" font-size="45.0" fill="#FEFFFE" transform="matrix(1.00, 0.00, -0.00, -1.00, 207.5, 47.4)">E</text><text xml:space="preserve" font-family="HoboStd,Hobo Std" font-size="45.0" fill="#FEFFFE" transform="matrix(1.00, 0.00, -0.00, -1.00, 234.3, 47.4)">E</text><text xml:space="preserve" font-family="HoboStd,Hobo Std" font-size="45.0" fill="#FEFFFE" transform="matrix(1.00, 0.00, -0.00, -1.00, 261.2, 47.4)">R</text><text xml:space="preserve" font-family="HoboStd,Hobo Std" font-size="45.0" fill="#FEFFFE" transform="matrix(1.00, 0.00, -0.00, -1.00, 291.1, 47.4)"> </text><text xml:space="preserve" font-family="HoboStd,Hobo Std" font-size="45.0" fill="#FEFFFE" transform="matrix(1.00, 0.00, -0.00, -1.00, 304.1, 47.4)">O</text><text xml:space="preserve" font-family="HoboStd,Hobo Std" font-size="45.0" fill="#FEFFFE" transform="matrix(1.00, 0.00, -0.00, -1.00, 336.2, 47.4)">P</text><text xml:space="preserve" font-family="HoboStd,Hobo Std" font-size="45.0" fill="#FEFFFE" transform="matrix(1.00, 0.00, -0.00, -1.00, 364.2, 47.4)">N</text><text xml:space="preserve" font-family="HoboStd,Hobo Std" font-size="45.0" fill="#FEFFFE" transform="matrix(1.00, 0.00, -0.00, -1.00, 396.2, 47.4)">I</text><text xml:space="preserve" font-family="HoboStd,Hobo Std" font-size="45.0" fill="#FEFFFE" transform="matrix(1.00, 0.00, -0.00, -1.00, 410.9, 47.4)">E</text><text xml:space="preserve" font-family="HoboStd,Hobo Std" font-size="45.0" fill="#FEFFFE" transform="matrix(1.00, 0.00, -0.00, -1.00, 437.7, 47.4)">U</text><text xml:space="preserve" font-family="HoboStd,Hobo Std" font-size="45.0" fill="#FEFFFE" transform="matrix(1.00, 0.00, -0.00, -1.00, 468.0, 47.4)">W</text></g></g></g></svg>