<?xml version="1.0" encoding="UTF-8" standalone="no"?><svg xmlns="http://www.w3.org/2000/svg" xmlns:xlink="http://www.w3.org/1999/xlink" clip-rule="evenodd" stroke-miterlimit="10" viewBox="0 0 578 106"><desc>SVG generated by Keynote</desc><defs></defs><g transform="matrix(1.00, 0.00, -0.00, -1.00, 0.0, 106.0)"><path d="M 5.4 52.9 L 5.4 52.9 C 5.4 79.0 26.5 100.0 52.6 100.0 L 525.4 100.0 C 551.5 100.0 572.6 79.0 572.6 52.9 L 572.6 52.9 C 572.6 26.8 551.5 6.0 525.4 6.0 L 52.6 6.0 C 26.5 6.0 5.4 26.8 5.4 52.9 Z M 5.4 52.9 " fill="#EC5A1D"></path><path d="M 0.0 47.2 L 0.0 47.2 C 0.0 21.1 21.1 0.1 47.2 0.1 L 520.1 0.1 C 546.1 0.1 567.3 21.1 567.3 47.2 L 567.3 47.2 C 567.3 73.3 546.1 94.1 520.1 94.1 L 47.2 94.1 C 21.1 94.1 0.0 73.3 0.0 47.2 Z M 0.0 47.2 " fill="none" stroke="#FEFFFE" stroke-width="8.00" transform="matrix(1.00, 0.00, 0.00, -1.00, 5.4, 100.1)"></path><g><clipPath id="clip0x6000038a4740"><path d="M 5.4 5.7 L 572.6 5.7 L 572.6 100.1 L 5.4 100.1 Z M 5.4 5.7 "></path></clipPath><g clip-path="url(#clip0x6000038a4740)"><text xml:space="preserve" font-family="HoboStd,Hobo Std" font-size="45.0" fill="#FEFFFE" transform="matrix(1.00, 0.00, -0.00, -1.00, 79.7, 42.2)">P</text><text xml:space="preserve" font-family="HoboStd,Hobo Std" font-size="45.0" fill="#FEFFFE" transform="matrix(1.00, 0.00, -0.00, -1.00, 107.7, 42.2)">R</text><text xml:space="preserve" font-family="HoboStd,Hobo Std" font-size="45.0" fill="#FEFFFE" transform="matrix(1.00, 0.00, -0.00, -1.00, 137.6, 42.2)">O</text><text xml:space="preserve" font-family="HoboStd,Hobo Std" font-size="45.0" fill="#FEFFFE" transform="matrix(1.00, 0.00, -0.00, -1.00, 169.7, 42.2)">B</text><text xml:space="preserve" font-family="HoboStd,Hobo Std" font-size="45.0" fill="#FEFFFE" transform="matrix(1.00, 0.00, -0.00, -1.00, 199.5, 42.2)">E</text><text xml:space="preserve" font-family="HoboStd,Hobo Std" font-size="45.0" fill="#FEFFFE" transform="matrix(1.00, 0.00, -0.00, -1.00, 226.3, 42.2)">E</text><text xml:space="preserve" font-family="HoboStd,Hobo Std" font-size="45.0" fill="#FEFFFE" transform="matrix(1.00, 0.00, -0.00, -1.00, 253.2, 42.2)">R</text><text xml:space="preserve" font-family="HoboStd,Hobo Std" font-size="45.0" fill="#FEFFFE" transform="matrix(1.00, 0.00, -0.00, -1.00, 283.1, 42.2)"> </text><text xml:space="preserve" font-family="HoboStd,Hobo Std" font-size="45.0" fill="#FEFFFE" transform="matrix(1.00, 0.00, -0.00, -1.00, 296.1, 42.2)">O</text><text xml:space="preserve" font-family="HoboStd,Hobo Std" font-size="45.0" fill="#FEFFFE" transform="matrix(1.00, 0.00, -0.00, -1.00, 328.2, 42.2)">P</text><text xml:space="preserve" font-family="HoboStd,Hobo Std" font-size="45.0" fill="#FEFFFE" transform="matrix(1.00, 0.00, -0.00, -1.00, 356.2, 42.2)">N</text><text xml:space="preserve" font-family="HoboStd,Hobo Std" font-size="45.0" fill="#FEFFFE" transform="matrix(1.00, 0.00, -0.00, -1.00, 388.1, 42.2)">I</text><text xml:space="preserve" font-family="HoboStd,Hobo Std" font-size="45.0" fill="#FEFFFE" transform="matrix(1.00, 0.00, -0.00, -1.00, 402.9, 42.2)">E</text><text xml:space="preserve" font-family="HoboStd,Hobo Std" font-size="45.0" fill="#FEFFFE" transform="matrix(1.00, 0.00, -0.00, -1.00, 429.7, 42.2)">U</text><text xml:space="preserve" font-family="HoboStd,Hobo Std" font-size="45.0" fill="#FEFFFE" transform="matrix(1.00, 0.00, -0.00, -1.00, 460.0, 42.2)">W</text></g></g></g></svg>