<?xml version="1.0" encoding="UTF-8" standalone="no"?><svg xmlns="http://www.w3.org/2000/svg" xmlns:xlink="http://www.w3.org/1999/xlink" clip-rule="evenodd" stroke-miterlimit="10" viewBox="0 0 1024 768"><desc>SVG generated by Keynote</desc><defs></defs><g transform="matrix(1.00, 0.00, -0.00, -1.00, 0.0, 768.0)"><path d="M 0.0 768.0 L 1024.0 768.0 L 1024.0 0.0 L 0.0 0.0 Z M 0.0 768.0 " fill="#164E86"></path><g><clipPath id="clip0x600003ab1040"><path d="M 0.0 770.0 L 1024.0 770.0 L 1024.0 178.0 L 0.0 178.0 Z M 0.0 769.8 "></path></clipPath><g clip-path="url(#clip0x600003ab1040)"><image xlink:href="4328DE59BE7A9A54A8C3A25F855AFD21.png" width="1024.00" height="768.00" transform="matrix(1.00, 0.00, -0.00, -1.00, 0.0, 768.0)"></image></g></g><path d="M 2.5 183.5 L 1021.5 183.5 L 1021.5 1.5 L 2.5 1.5 Z M 2.5 184.0 " fill="#9E4B12"></path><path d="M 0.0 0.5 L 1019.0 0.5 L 1019.0 182.5 L 0.0 182.5 Z M 0.0 0.0 " fill="none" stroke="#FEFFFE" stroke-width="5.00" transform="matrix(1.00, 0.00, 0.00, -1.00, 2.5, 184.0)"></path><text xml:space="preserve" font-family="Helvetica-Bold,Helvetica" font-weight="bold" font-size="34.0" fill="#FEFFFE" transform="matrix(1.00, 0.00, -0.00, -1.00, 385.4, 100.7)">B</text><text xml:space="preserve" font-family="Helvetica-Bold,Helvetica" font-weight="bold" font-size="34.0" fill="#FEFFFE" transform="matrix(1.00, 0.00, -0.00, -1.00, 410.0, 100.7)">r</text><text xml:space="preserve" font-family="Helvetica-Bold,Helvetica" font-weight="bold" font-size="34.0" fill="#FEFFFE" transform="matrix(1.00, 0.00, -0.00, -1.00, 423.2, 100.7)">e</text><text xml:space="preserve" font-family="Helvetica-Bold,Helvetica" font-weight="bold" font-size="34.0" fill="#FEFFFE" transform="matrix(1.00, 0.00, -0.00, -1.00, 442.1, 100.7)">e</text><text xml:space="preserve" font-family="Helvetica-Bold,Helvetica" font-weight="bold" font-size="34.0" fill="#FEFFFE" transform="matrix(1.00, 0.00, -0.00, -1.00, 461.0, 100.7)">k</text><text xml:space="preserve" font-family="Helvetica-Bold,Helvetica" font-weight="bold" font-size="34.0" fill="#FEFFFE" transform="matrix(1.00, 0.00, -0.00, -1.00, 479.9, 100.7)"> </text><text xml:space="preserve" font-family="Helvetica-Bold,Helvetica" font-weight="bold" font-size="34.0" fill="#FEFFFE" transform="matrix(1.00, 0.00, -0.00, -1.00, 489.4, 100.7)">d</text><text xml:space="preserve" font-family="Helvetica-Bold,Helvetica" font-weight="bold" font-size="34.0" fill="#FEFFFE" transform="matrix(1.00, 0.00, -0.00, -1.00, 510.2, 100.7)">e</text><text xml:space="preserve" font-family="Helvetica-Bold,Helvetica" font-weight="bold" font-size="34.0" fill="#FEFFFE" transform="matrix(1.00, 0.00, -0.00, -1.00, 529.1, 100.7)"> </text><text xml:space="preserve" font-family="Helvetica-Bold,Helvetica" font-weight="bold" font-size="34.0" fill="#FEFFFE" transform="matrix(1.00, 0.00, -0.00, -1.00, 538.5, 100.7)">v</text><text xml:space="preserve" font-family="Helvetica-Bold,Helvetica" font-weight="bold" font-size="34.0" fill="#FEFFFE" transform="matrix(1.00, 0.00, -0.00, -1.00, 557.5, 100.7)">l</text><text xml:space="preserve" font-family="Helvetica-Bold,Helvetica" font-weight="bold" font-size="34.0" fill="#FEFFFE" transform="matrix(1.00, 0.00, -0.00, -1.00, 566.9, 100.7)">o</text><text xml:space="preserve" font-family="Helvetica-Bold,Helvetica" font-weight="bold" font-size="34.0" fill="#FEFFFE" transform="matrix(1.00, 0.00, -0.00, -1.00, 587.7, 100.7)">e</text><text xml:space="preserve" font-family="Helvetica-Bold,Helvetica" font-weight="bold" font-size="34.0" fill="#FEFFFE" transform="matrix(1.00, 0.00, -0.00, -1.00, 606.6, 100.7)">k</text><text xml:space="preserve" font-family="Helvetica-Bold,Helvetica" font-weight="bold" font-size="34.0" fill="#FEFFFE" transform="matrix(1.00, 0.00, -0.00, -1.00, 625.5, 100.7)"> </text><text xml:space="preserve" font-family="Helvetica-Bold,Helvetica" font-weight="bold" font-size="34.0" fill="#FEFFFE" transform="matrix(1.00, 0.00, -0.00, -1.00, 635.0, 100.7)">v</text><text xml:space="preserve" font-family="Helvetica-Bold,Helvetica" font-weight="bold" font-size="34.0" fill="#FEFFFE" transform="matrix(1.00, 0.00, -0.00, -1.00, 653.9, 100.7)">a</text><text xml:space="preserve" font-family="Helvetica-Bold,Helvetica" font-weight="bold" font-size="34.0" fill="#FEFFFE" transform="matrix(1.00, 0.00, -0.00, -1.00, 672.8, 100.7)">n</text><text xml:space="preserve" font-family="Helvetica-Bold,Helvetica" font-weight="bold" font-size="34.0" fill="#FEFFFE" transform="matrix(1.00, 0.00, -0.00, -1.00, 693.6, 100.7)"> </text><text xml:space="preserve" font-family="Helvetica-Bold,Helvetica" font-weight="bold" font-size="34.0" fill="#FEFFFE" transform="matrix(1.00, 0.00, -0.00, -1.00, 703.0, 100.7)">d</text><text xml:space="preserve" font-family="Helvetica-Bold,Helvetica" font-weight="bold" font-size="34.0" fill="#FEFFFE" transform="matrix(1.00, 0.00, -0.00, -1.00, 723.8, 100.7)">e</text><text xml:space="preserve" font-family="Helvetica-Bold,Helvetica" font-weight="bold" font-size="34.0" fill="#FEFFFE" transform="matrix(1.00, 0.00, -0.00, -1.00, 742.7, 100.7)"> </text><text xml:space="preserve" font-family="Helvetica-Bold,Helvetica" font-weight="bold" font-size="34.0" fill="#FEFFFE" transform="matrix(1.00, 0.00, -0.00, -1.00, 752.2, 100.7)">m</text><text xml:space="preserve" font-family="Helvetica-Bold,Helvetica" font-weight="bold" font-size="34.0" fill="#FEFFFE" transform="matrix(1.00, 0.00, -0.00, -1.00, 782.4, 100.7)">a</text><text xml:space="preserve" font-family="Helvetica-Bold,Helvetica" font-weight="bold" font-size="34.0" fill="#FEFFFE" transform="matrix(1.00, 0.00, -0.00, -1.00, 801.3, 100.7)">g</text><text xml:space="preserve" font-family="Helvetica-Bold,Helvetica" font-weight="bold" font-size="34.0" fill="#FEFFFE" transform="matrix(1.00, 0.00, -0.00, -1.00, 822.1, 100.7)">i</text><text xml:space="preserve" font-family="Helvetica-Bold,Helvetica" font-weight="bold" font-size="34.0" fill="#FEFFFE" transform="matrix(1.00, 0.00, -0.00, -1.00, 831.6, 100.7)">s</text><text xml:space="preserve" font-family="Helvetica-Bold,Helvetica" font-weight="bold" font-size="34.0" fill="#FEFFFE" transform="matrix(1.00, 0.00, -0.00, -1.00, 850.5, 100.7)">c</text><text xml:space="preserve" font-family="Helvetica-Bold,Helvetica" font-weight="bold" font-size="34.0" fill="#FEFFFE" transform="matrix(1.00, 0.00, -0.00, -1.00, 869.4, 100.7)">h</text><text xml:space="preserve" font-family="Helvetica-Bold,Helvetica" font-weight="bold" font-size="34.0" fill="#FEFFFE" transform="matrix(1.00, 0.00, -0.00, -1.00, 890.2, 100.7)">e</text><text xml:space="preserve" font-family="Helvetica-Bold,Helvetica" font-weight="bold" font-size="34.0" fill="#FEFFFE" transform="matrix(1.00, 0.00, -0.00, -1.00, 909.1, 100.7)"> </text><text xml:space="preserve" font-family="Helvetica-Bold,Helvetica" font-weight="bold" font-size="34.0" fill="#FEFFFE" transform="matrix(1.00, 0.00, -0.00, -1.00, 569.7, 59.7)">s</text><text xml:space="preserve" font-family="Helvetica-Bold,Helvetica" font-weight="bold" font-size="34.0" fill="#FEFFFE" transform="matrix(1.00, 0.00, -0.00, -1.00, 588.6, 59.7)">c</text><text xml:space="preserve" font-family="Helvetica-Bold,Helvetica" font-weight="bold" font-size="34.0" fill="#FEFFFE" transform="matrix(1.00, 0.00, -0.00, -1.00, 607.5, 59.7)">h</text><text xml:space="preserve" font-family="Helvetica-Bold,Helvetica" font-weight="bold" font-size="34.0" fill="#FEFFFE" transform="matrix(1.00, 0.00, -0.00, -1.00, 628.3, 59.7)">e</text><text xml:space="preserve" font-family="Helvetica-Bold,Helvetica" font-weight="bold" font-size="34.0" fill="#FEFFFE" transform="matrix(1.00, 0.00, -0.00, -1.00, 647.2, 59.7)">l</text><text xml:space="preserve" font-family="Helvetica-Bold,Helvetica" font-weight="bold" font-size="34.0" fill="#FEFFFE" transform="matrix(1.00, 0.00, -0.00, -1.00, 656.6, 59.7)">p</text><text xml:space="preserve" font-family="Helvetica-Bold,Helvetica" font-weight="bold" font-size="34.0" fill="#FEFFFE" transform="matrix(1.00, 0.00, -0.00, -1.00, 677.4, 59.7)"> </text><text xml:space="preserve" font-family="Helvetica-Bold,Helvetica" font-weight="bold" font-size="34.0" fill="#FEFFFE" transform="matrix(1.00, 0.00, -0.00, -1.00, 686.9, 59.7)">.</text><text xml:space="preserve" font-family="Helvetica-Bold,Helvetica" font-weight="bold" font-size="34.0" fill="#FEFFFE" transform="matrix(1.00, 0.00, -0.00, -1.00, 696.3, 59.7)">.</text><text xml:space="preserve" font-family="Helvetica-Bold,Helvetica" font-weight="bold" font-size="34.0" fill="#FEFFFE" transform="matrix(1.00, 0.00, -0.00, -1.00, 705.8, 59.7)">.</text><text xml:space="preserve" font-family="Helvetica-Bold,Helvetica" font-weight="bold" font-size="34.0" fill="#FEFFFE" transform="matrix(1.00, 0.00, -0.00, -1.00, 715.2, 59.7)">.</text><text xml:space="preserve" font-family="Helvetica-Bold,Helvetica" font-weight="bold" font-size="63.0" fill="#FEFFFE" transform="matrix(1.00, 0.00, -0.00, -1.00, 24.4, 69.4)">S</text><text xml:space="preserve" font-family="Helvetica-Bold,Helvetica" font-weight="bold" font-size="63.0" fill="#FEFFFE" transform="matrix(1.00, 0.00, -0.00, -1.00, 66.4, 69.4)">a</text><text xml:space="preserve" font-family="Helvetica-Bold,Helvetica" font-weight="bold" font-size="63.0" fill="#FEFFFE" transform="matrix(1.00, 0.00, -0.00, -1.00, 101.5, 69.4)">n</text><text xml:space="preserve" font-family="Helvetica-Bold,Helvetica" font-weight="bold" font-size="63.0" fill="#FEFFFE" transform="matrix(1.00, 0.00, -0.00, -1.00, 140.0, 69.4)">n</text><text xml:space="preserve" font-family="Helvetica-Bold,Helvetica" font-weight="bold" font-size="63.0" fill="#FEFFFE" transform="matrix(1.00, 0.00, -0.00, -1.00, 178.4, 69.4)">e</text><text xml:space="preserve" font-family="Helvetica-Bold,Helvetica" font-weight="bold" font-size="63.0" fill="#FEFFFE" transform="matrix(1.00, 0.00, -0.00, -1.00, 213.5, 69.4)">k</text><text xml:space="preserve" font-family="Helvetica-Bold,Helvetica" font-weight="bold" font-size="63.0" fill="#FEFFFE" transform="matrix(1.00, 0.00, -0.00, -1.00, 248.5, 69.4)">e</text><path d="M 0.2 -0.2 L 116.2 -0.2 " fill="none" stroke="#FEFFFE" stroke-width="4.00" transform="matrix(0.00, 1.00, 1.00, 0.00, 298.2, 34.8)"></path></g></svg>