<?xml version="1.0" encoding="UTF-8" standalone="no"?><svg xmlns="http://www.w3.org/2000/svg" xmlns:xlink="http://www.w3.org/1999/xlink" clip-rule="evenodd" stroke-miterlimit="10" viewBox="0 0 61 61"><desc>SVG generated by Keynote</desc><defs></defs><g transform="matrix(1.00, 0.00, -0.00, -1.00, 0.0, 61.0)"><g><clipPath id="clip0x6000020a0b40"><path d="M 19.5 19.0 L 42.0 19.0 L 42.0 41.5 L 19.5 41.5 Z M 19.5 19.0 "></path></clipPath><g clip-path="url(#clip0x6000020a0b40)"><path d="M 15.8 2.7 C 19.4 6.3 19.4 12.2 15.8 15.8 C 12.2 19.4 6.3 19.4 2.7 15.8 C -0.9 12.2 -0.9 6.3 2.7 2.7 C 6.3 -0.9 12.2 -0.9 15.8 2.7 Z M 15.8 2.7 " fill="none" stroke="#FEFFFE" stroke-width="2.00" transform="matrix(1.00, 0.00, 0.00, -1.00, 21.5, 39.5)"></path></g></g><g><clipPath id="clip0x6000020a1260"><path d="M 14.7 14.1 L 46.9 14.1 L 46.9 46.4 L 14.7 46.4 Z M 14.7 14.1 "></path></clipPath><g clip-path="url(#clip0x6000020a1260)"><path d="M 24.1 4.1 C 29.7 9.7 29.7 18.6 24.1 24.1 C 18.6 29.7 9.7 29.7 4.1 24.1 C -1.4 18.6 -1.4 9.7 4.1 4.1 C 9.7 -1.4 18.6 -1.4 24.1 4.1 Z M 24.1 4.1 " fill="none" stroke="#FEFFFE" stroke-width="2.00" transform="matrix(1.00, 0.00, 0.00, -1.00, 16.7, 44.4)"></path></g></g><g><clipPath id="clip0x6000020a14a0"><path d="M 10.2 9.7 L 51.4 9.7 L 51.4 50.9 L 10.2 50.9 Z M 10.2 9.7 "></path></clipPath><g clip-path="url(#clip0x6000020a14a0)"><path d="M 31.8 5.5 C 39.1 12.7 39.1 24.5 31.8 31.8 C 24.5 39.1 12.7 39.1 5.5 31.8 C -1.8 24.5 -1.8 12.7 5.5 5.5 C 12.7 -1.8 24.5 -1.8 31.8 5.5 Z M 31.8 5.5 " fill="none" stroke="#FEFFFE" stroke-width="2.00" transform="matrix(1.00, 0.00, 0.00, -1.00, 12.2, 48.9)"></path></g></g><g><clipPath id="clip0x6000020a16e0"><path d="M 0.7 0.2 L 60.9 0.2 L 60.9 60.4 L 0.7 60.4 Z M 0.7 0.2 "></path></clipPath><g clip-path="url(#clip0x6000020a16e0)"><path d="M 45.4 7.8 C 55.8 18.2 55.8 35.0 45.4 45.4 C 35.0 55.8 18.2 55.8 7.8 45.4 C -2.6 35.0 -2.6 18.2 7.8 7.8 C 18.2 -2.6 35.0 -2.6 45.4 7.8 Z M 45.4 7.8 " fill="none" stroke="#FEFFFE" stroke-width="5.00" stroke-linecap="round" stroke-linejoin="round" stroke-dasharray="0.0, 15.0" transform="matrix(1.00, 0.00, 0.00, -1.00, 4.2, 56.9)"></path></g></g></g></svg>