<?xml version="1.0" encoding="UTF-8" standalone="no"?><svg xmlns="http://www.w3.org/2000/svg" xmlns:xlink="http://www.w3.org/1999/xlink" clip-rule="evenodd" stroke-miterlimit="10" viewBox="0 0 325 63"><desc>SVG generated by Keynote</desc><defs></defs><g transform="matrix(1.00, 0.00, -0.00, -1.00, 0.0, 63.0)"><text xml:space="preserve" font-family="Helvetica-Bold,Helvetica" font-weight="bold" font-size="62.0" fill="#FEFFFE" transform="matrix(1.00, 0.00, -0.00, -1.00, -2.6, 15.8)">B</text><text xml:space="preserve" font-family="Helvetica-Bold,Helvetica" font-weight="bold" font-size="62.0" fill="#FEFFFE" transform="matrix(1.00, 0.00, -0.00, -1.00, 42.2, 15.8)">l</text><text xml:space="preserve" font-family="Helvetica-Bold,Helvetica" font-weight="bold" font-size="62.0" fill="#FEFFFE" transform="matrix(1.00, 0.00, -0.00, -1.00, 59.4, 15.8)">i</text><text xml:space="preserve" font-family="Helvetica-Bold,Helvetica" font-weight="bold" font-size="62.0" fill="#FEFFFE" transform="matrix(1.00, 0.00, -0.00, -1.00, 76.6, 15.8)">j</text><text xml:space="preserve" font-family="Helvetica-Bold,Helvetica" font-weight="bold" font-size="62.0" fill="#FEFFFE" transform="matrix(1.00, 0.00, -0.00, -1.00, 93.8, 15.8)"> </text><text xml:space="preserve" font-family="Helvetica-Bold,Helvetica" font-weight="bold" font-size="62.0" fill="#FEFFFE" transform="matrix(1.00, 0.00, -0.00, -1.00, 111.0, 15.8)">g</text><text xml:space="preserve" font-family="Helvetica-Bold,Helvetica" font-weight="bold" font-size="62.0" fill="#FEFFFE" transform="matrix(1.00, 0.00, -0.00, -1.00, 148.9, 15.8)">e</text><text xml:space="preserve" font-family="Helvetica-Bold,Helvetica" font-weight="bold" font-size="62.0" fill="#FEFFFE" transform="matrix(1.00, 0.00, -0.00, -1.00, 183.4, 15.8)">z</text><text xml:space="preserve" font-family="Helvetica-Bold,Helvetica" font-weight="bold" font-size="62.0" fill="#FEFFFE" transform="matrix(1.00, 0.00, -0.00, -1.00, 214.4, 15.8)">i</text><text xml:space="preserve" font-family="Helvetica-Bold,Helvetica" font-weight="bold" font-size="62.0" fill="#FEFFFE" transform="matrix(1.00, 0.00, -0.00, -1.00, 231.6, 15.8)">c</text><text xml:space="preserve" font-family="Helvetica-Bold,Helvetica" font-weight="bold" font-size="62.0" fill="#FEFFFE" transform="matrix(1.00, 0.00, -0.00, -1.00, 266.1, 15.8)">h</text><text xml:space="preserve" font-family="Helvetica-Bold,Helvetica" font-weight="bold" font-size="62.0" fill="#FEFFFE" transform="matrix(1.00, 0.00, -0.00, -1.00, 303.9, 15.8)">t</text></g></svg>