<?xml version="1.0" encoding="UTF-8" standalone="no"?><svg xmlns="http://www.w3.org/2000/svg" xmlns:xlink="http://www.w3.org/1999/xlink" clip-rule="evenodd" stroke-miterlimit="10" viewBox="0 0 1024 768"><desc>SVG generated by Keynote</desc><defs></defs><g transform="matrix(1.00, 0.00, -0.00, -1.00, 0.0, 768.0)"><path d="M 0.0 768.0 L 1024.0 768.0 L 1024.0 0.0 L 0.0 0.0 Z M 0.0 768.0 " fill="#164E86"></path><image xlink:href="../../58BF4165-E549-45E4-A60E-FE69CF5324F1/assets/377617056DE054C4ED4EE46685524329.png" width="872.00" height="567.00" transform="matrix(1.00, 0.00, -0.00, -1.00, 67.6, 657.5)" opacity="0.50"></image><path d="M 70.6 155.2 L 71.0 596.8 C 71.0 629.8 97.3 656.0 130.2 656.0 L 877.3 656.0 C 910.3 656.0 937.0 629.8 937.0 596.8 L 937.0 155.2 C 937.0 122.2 910.3 95.0 877.3 95.0 L 130.2 95.0 C 97.3 95.0 70.6 122.2 70.6 155.2 Z M 70.6 155.2 " fill="#F3EAD1"></path><image xlink:href="../../58BF4165-E549-45E4-A60E-FE69CF5324F1/assets/A2AB6CBF3C9BB9451BD0881F04499D19.png" width="286.00" height="331.00" transform="matrix(0.79, 0.00, -0.00, -0.79, 768.2, 737.2)"></image><g><clipPath id="clip0x608000aadb60"><path d="M 700.3 62.6 L 902.4 62.6 L 902.4 181.4 L 700.3 181.4 Z M 700.3 62.6 "></path></clipPath><g clip-path="url(#clip0x608000aadb60)"><path d="M 701.3 122.0 L 701.3 122.0 C 701.3 154.3 727.5 180.0 759.7 180.0 L 843.0 180.0 C 875.3 180.0 901.4 154.3 901.4 122.0 L 901.4 122.0 C 901.4 89.8 875.3 64.0 843.0 64.0 L 759.7 64.0 C 727.5 64.0 701.3 89.8 701.3 122.0 Z M 701.3 122.0 " fill="#DAB678"></path></g></g><g><clipPath id="clip0x608000cad920"><path d="M 771.0 83.1 L 849.0 83.1 L 849.0 161.0 L 771.0 161.0 Z M 771.0 83.1 "></path></clipPath><g clip-path="url(#clip0x608000cad920)"><path d="M 799.0 110.0 L 799.0 84.1 L 848.0 122.0 L 799.0 160.0 L 799.0 134.0 L 772.0 134.0 L 772.0 110.0 Z M 799.4 109.9 " fill="#F3EAD2"></path></g></g><g><clipPath id="clip0x6080010a30c0"><path d="M 476.9 62.6 L 679.0 62.6 L 679.0 181.4 L 476.9 181.4 Z M 476.9 62.6 "></path></clipPath><g clip-path="url(#clip0x6080010a30c0)"><path d="M 678.0 122.0 L 678.0 122.0 C 678.0 154.3 651.8 180.0 619.6 180.0 L 536.3 180.0 C 504.0 180.0 477.9 154.3 477.9 122.0 L 477.9 122.0 C 477.9 89.8 504.0 64.0 536.3 64.0 L 619.6 64.0 C 651.8 64.0 678.0 89.8 678.0 122.0 Z M 678.0 122.0 " fill="#DED0AD"></path></g></g><g><clipPath id="clip0x6080010ae820"><path d="M 530.3 83.1 L 608.3 83.1 L 608.3 161.0 L 530.3 161.0 Z M 530.3 83.1 "></path></clipPath><g clip-path="url(#clip0x6080010ae820)"><path d="M 580.0 110.0 L 580.0 84.1 L 531.3 122.0 L 580.0 160.0 L 580.0 134.0 L 607.0 134.0 L 607.0 110.0 Z M 579.9 109.9 " fill="#F3EAD2"></path></g></g><text xml:space="preserve" font-family="Krungthep,Krungthep" font-weight="bold" font-size="36.0" fill="#000000" transform="matrix(1.00, 0.00, -0.00, -1.00, 230.2, 202.0)">P</text><text xml:space="preserve" font-family="Krungthep,Krungthep" font-weight="bold" font-size="36.0" fill="#000000" transform="matrix(1.00, 0.00, -0.00, -1.00, 254.2, 202.0)">a</text><text xml:space="preserve" font-family="Krungthep,Krungthep" font-weight="bold" font-size="36.0" fill="#000000" transform="matrix(1.00, 0.00, -0.00, -1.00, 278.2, 202.0)">p</text><g><clipPath id="clip0x6080010bd340"><path d="M 164.0 596.0 L 369.0 596.0 L 369.0 266.0 L 164.0 266.0 Z M 163.9 595.7 "></path></clipPath><g clip-path="url(#clip0x6080010bd340)"><image xlink:href="../../A2F4068C-FE44-4673-AD09-333160DEF8E5/assets/636F70D938D837A13B953F50F796FC59.png" width="2880.00" height="1800.00" transform="matrix(0.23, 0.00, -0.00, -0.23, -103.3, 639.5)"></image></g></g><image xlink:href="../../A2F4068C-FE44-4673-AD09-333160DEF8E5/assets/DA265AB21E337CA08D7736D1DF8F0202.png" width="225.00" height="356.00" transform="matrix(1.00, 0.00, -0.00, 1.00, 153.9, 246.7)"></image><g><clipPath id="clip0x6080010a5b80"><path d="M 401.0 596.0 L 606.0 596.0 L 606.0 266.0 L 401.0 266.0 Z M 401.5 596.2 "></path></clipPath><g clip-path="url(#clip0x6080010a5b80)"><image xlink:href="../../A2F4068C-FE44-4673-AD09-333160DEF8E5/assets/443B7186DE21EFEFF92022290C2586EA.png" width="2880.00" height="1800.00" transform="matrix(0.22, 0.00, -0.00, -0.22, 232.9, 629.5)"></image></g></g><image xlink:href="../../A2F4068C-FE44-4673-AD09-333160DEF8E5/assets/DA265AB21E337CA08D7736D1DF8F0202.png" width="225.00" height="356.00" transform="matrix(1.00, 0.00, -0.00, 1.00, 391.5, 247.2)"></image><g><clipPath id="clip0x6000012b0c20"><path d="M 639.0 596.0 L 844.0 596.0 L 844.0 266.0 L 639.0 266.0 Z M 639.0 596.2 "></path></clipPath><g clip-path="url(#clip0x6000012b0c20)"><image xlink:href="../../A2F4068C-FE44-4673-AD09-333160DEF8E5/assets/4C0F3D538941D429ADAE92EE7CBAFB8A.png" width="1024.00" height="768.00" transform="matrix(0.56, 0.00, -0.00, -0.56, 411.4, 596.2)"></image></g></g><image xlink:href="../../A2F4068C-FE44-4673-AD09-333160DEF8E5/assets/DA265AB21E337CA08D7736D1DF8F0202.png" width="225.00" height="356.00" transform="matrix(1.00, 0.00, -0.00, 1.00, 629.0, 247.2)"></image><text xml:space="preserve" font-family="Krungthep,Krungthep" font-weight="bold" font-size="36.0" fill="#000000" transform="matrix(1.00, 0.00, -0.00, -1.00, 455.8, 202.5)">M</text><text xml:space="preserve" font-family="Krungthep,Krungthep" font-weight="bold" font-size="36.0" fill="#000000" transform="matrix(1.00, 0.00, -0.00, -1.00, 491.8, 202.5)">a</text><text xml:space="preserve" font-family="Krungthep,Krungthep" font-weight="bold" font-size="36.0" fill="#000000" transform="matrix(1.00, 0.00, -0.00, -1.00, 515.8, 202.5)">m</text><text xml:space="preserve" font-family="Krungthep,Krungthep" font-weight="bold" font-size="36.0" fill="#000000" transform="matrix(1.00, 0.00, -0.00, -1.00, 551.8, 202.5)"> </text><text xml:space="preserve" font-family="Krungthep,Krungthep" font-weight="bold" font-size="36.0" fill="#000000" transform="matrix(1.00, 0.00, -0.00, -1.00, 699.3, 202.5)">O</text><text xml:space="preserve" font-family="Krungthep,Krungthep" font-weight="bold" font-size="36.0" fill="#000000" transform="matrix(1.00, 0.00, -0.00, -1.00, 723.4, 202.5)">m</text><text xml:space="preserve" font-family="Krungthep,Krungthep" font-weight="bold" font-size="36.0" fill="#000000" transform="matrix(1.00, 0.00, -0.00, -1.00, 759.4, 202.5)">a</text></g></svg>