<?xml version="1.0" encoding="UTF-8" standalone="no"?><svg xmlns="http://www.w3.org/2000/svg" xmlns:xlink="http://www.w3.org/1999/xlink" clip-rule="evenodd" stroke-miterlimit="10" viewBox="0 0 1026 1891"><desc>SVG generated by Keynote</desc><defs></defs><g transform="matrix(1.00, 0.00, -0.00, -1.00, 0.0, 1891.0)"><g><clipPath id="clip0x6000030ba9a0"><path d="M 1.0 769.0 L 1025.0 769.0 L 1025.0 1.0 L 1.0 1.0 Z M 1.0 768.8 "></path></clipPath><g clip-path="url(#clip0x6000030ba9a0)"><g><clipPath id="clip0x6000030ba6a0"><path d="M 1.0 0.8 L 1025.0 0.8 L 1025.0 768.8 L 1.0 768.8 Z M 1.0 0.8 "></path></clipPath><g clip-path="url(#clip0x6000030ba6a0)"><image xlink:href="../../CF764314-1D3D-470B-B197-1B3296670006/assets/54F740638EC4D4A1654CC5B055CDE6F9.png" width="1024.00" height="768.00" transform="matrix(1.00, 0.00, -0.00, -1.00, 1.0, 768.8)"></image></g></g></g></g><g><clipPath id="clip0x6000030ba8e0"><path d="M 1.0 1891.0 L 1025.0 1891.0 L 1025.0 1296.0 L 1.0 1296.0 Z M 1.0 1890.5 "></path></clipPath><g clip-path="url(#clip0x6000030ba8e0)"><g><clipPath id="clip0x6000030baca0"><path d="M 1.0 1296.2 L 1025.0 1296.2 L 1025.0 1890.5 L 1.0 1890.5 Z M 1.0 1296.2 "></path></clipPath><g clip-path="url(#clip0x6000030baca0)"><image xlink:href="CA0AA6944BCD64CEFA937645B7A72555.png" width="1024.00" height="768.00" transform="matrix(1.00, 0.00, -0.00, -1.00, 1.0, 1890.5)"></image></g></g></g></g><g><clipPath id="clip0x6180028a97e0"><path d="M 1.0 542.3 L 1025.0 542.3 L 1025.0 1310.3 L 1.0 1310.3 Z M 1.0 542.3 "></path></clipPath><g clip-path="url(#clip0x6180028a97e0)"><image xlink:href="../../CF764314-1D3D-470B-B197-1B3296670006/assets/39F80B5AF33AAAF730DDB5CB2449A2A8.png" width="1024.00" height="768.00" transform="matrix(1.00, 0.00, -0.00, -1.00, 1.0, 1310.3)"></image></g></g></g></svg>