<?xml version="1.0" encoding="UTF-8" standalone="no"?><svg xmlns="http://www.w3.org/2000/svg" xmlns:xlink="http://www.w3.org/1999/xlink" clip-rule="evenodd" stroke-miterlimit="10" viewBox="0 0 1024 768"><desc>SVG generated by Keynote</desc><defs></defs><g transform="matrix(1.00, 0.00, -0.00, -1.00, 0.0, 768.0)"><path d="M 0.0 768.0 L 1024.0 768.0 L 1024.0 0.0 L 0.0 0.0 Z M 0.0 768.0 " fill="#164E86"></path><g><clipPath id="clip0x6180020bdee0"><path d="M 0.0 770.0 L 1024.0 770.0 L 1024.0 -2.0 L 0.0 -2.0 Z M -0.1 770.5 "></path></clipPath><g clip-path="url(#clip0x6180020bdee0)"><image xlink:href="../../9E8F32BC-9589-436B-8D50-A1D9D0F5E178/assets/ECC3D887976EB14B3030A5A5497A08FD.png" width="1024.00" height="768.00" transform="matrix(1.32, 0.00, -0.00, -1.32, -0.1, 770.5)"></image></g></g><image xlink:href="../../9E8F32BC-9589-436B-8D50-A1D9D0F5E178/assets/D60E6628A59BF883939E8BB37E500906.png" width="890.00" height="578.00" transform="matrix(1.00, 0.00, -0.00, -1.00, 67.2, 649.8)" opacity="0.50"></image><path d="M 70.2 137.6 L 70.0 588.0 C 70.0 621.6 97.5 649.0 131.1 649.0 L 892.9 649.0 C 926.5 649.0 954.0 621.6 954.0 588.0 L 954.0 137.6 C 954.0 104.0 926.5 77.0 892.9 77.0 L 131.1 77.0 C 97.5 77.0 70.2 104.0 70.2 137.6 Z M 70.2 137.6 " fill="#F3EAD1"></path><g><clipPath id="clip0x6180020bd640"><path d="M 316.2 634.3 L 707.8 634.3 L 707.8 662.1 L 316.2 662.1 Z M 316.2 634.3 "></path></clipPath><g clip-path="url(#clip0x6180020bd640)"><path d="M 317.2 648.2 L 317.2 648.2 C 317.2 655.3 322.9 661.0 330.0 661.0 L 694.0 661.0 C 701.1 661.0 706.8 655.3 706.8 648.2 L 706.8 648.2 C 706.8 641.1 701.1 635.0 694.0 635.0 L 330.0 635.0 C 322.9 635.0 317.2 641.1 317.2 648.2 Z M 317.2 648.2 " fill="#F5D327"></path></g></g><g><clipPath id="clip0x6180020bdd00"><path d="M 331.6 610.7 L 692.4 610.7 L 692.4 685.7 L 331.6 685.7 Z M 331.6 610.7 "></path></clipPath><g clip-path="url(#clip0x6180020bdd00)"><path d="M 335.5 645.0 L 335.5 651.4 C 335.5 668.4 348.8 682.5 365.8 682.5 L 658.2 682.5 C 675.2 682.5 688.5 668.4 688.5 651.4 L 688.5 644.9 C 688.5 627.9 675.2 614.5 658.2 614.5 L 365.8 614.5 C 348.8 614.5 335.5 628.0 335.5 645.0 Z M 335.1 644.9 " fill="#F38F18"></path><path d="M 0.4 37.2 L 0.4 30.8 C 0.4 13.8 13.8 -0.3 30.8 -0.3 L 323.1 -0.3 C 340.1 -0.3 353.4 13.8 353.4 30.8 L 353.4 37.3 C 353.4 54.3 340.1 67.7 323.1 67.7 L 30.8 67.7 C 13.8 67.7 0.4 54.2 0.4 37.2 Z M 0.0 37.3 " fill="none" stroke="#F5D327" stroke-width="5.00" transform="matrix(1.00, 0.00, 0.00, -1.00, 335.1, 682.2)"></path></g></g><g><clipPath id="clip0x6180020be240"><path d="M 690.4 644.2 L 698.4 644.2 L 698.4 652.2 L 690.4 652.2 Z M 690.4 644.2 "></path></clipPath><g clip-path="url(#clip0x6180020be240)"><path d="M 696.5 650.3 C 697.7 649.1 697.7 647.2 696.5 646.1 C 695.4 644.9 693.5 644.9 692.3 646.1 C 691.1 647.2 691.1 649.1 692.3 650.3 C 693.5 651.5 695.4 651.5 696.5 650.3 Z M 696.5 650.3 " fill="#F38F18"></path></g></g><g><clipPath id="clip0x6180020be480"><path d="M 323.6 644.2 L 331.6 644.2 L 331.6 652.2 L 323.6 652.2 Z M 323.6 644.2 "></path></clipPath><g clip-path="url(#clip0x6180020be480)"><path d="M 329.7 650.3 C 330.9 649.1 330.9 647.2 329.7 646.1 C 328.5 644.9 326.6 644.9 325.5 646.1 C 324.3 647.2 324.3 649.1 325.5 650.3 C 326.6 651.5 328.5 651.5 329.7 650.3 Z M 329.7 650.3 " fill="#F38F18"></path></g></g><g><clipPath id="clip0x6180020be6c0"><path d="M 447.3 614.1 L 576.7 614.1 L 576.7 675.1 L 447.3 675.1 Z M 447.3 614.1 "></path></clipPath><g clip-path="url(#clip0x6180020be6c0)"><text xml:space="preserve" font-family="HoboStd,Hobo Std" font-size="36.0" fill="#FEFFFE" transform="matrix(1.00, 0.00, -0.00, -1.00, 456.8, 635.6)">R</text><text xml:space="preserve" font-family="HoboStd,Hobo Std" font-size="36.0" fill="#FEFFFE" transform="matrix(1.00, 0.00, -0.00, -1.00, 480.7, 635.6)">E</text><text xml:space="preserve" font-family="HoboStd,Hobo Std" font-size="36.0" fill="#FEFFFE" transform="matrix(1.00, 0.00, -0.00, -1.00, 502.2, 635.6)">G</text><text xml:space="preserve" font-family="HoboStd,Hobo Std" font-size="36.0" fill="#FEFFFE" transform="matrix(1.00, 0.00, -0.00, -1.00, 525.9, 635.6)">E</text><text xml:space="preserve" font-family="HoboStd,Hobo Std" font-size="36.0" fill="#FEFFFE" transform="matrix(1.00, 0.00, -0.00, -1.00, 547.4, 635.6)">L</text></g></g><path d="M 132.2 292.7 L 132.0 543.6 C 132.0 572.5 155.6 596.0 184.5 596.0 L 839.5 596.0 C 868.4 596.0 892.0 572.5 892.0 543.6 L 892.0 292.7 C 892.0 263.8 868.4 240.0 839.5 240.0 L 184.5 240.0 C 155.6 240.0 132.2 263.8 132.2 292.7 Z M 132.2 292.7 " fill="#F3DFAC"></path><image xlink:href="../../7A4B9083-F0BC-4A7F-BACB-479FBA8B8C52/assets/D64E22001264F23595FF6551F393FFD4.png" width="346.00" height="346.00" transform="matrix(0.45, 0.00, -0.00, -0.45, 148.9, 495.6)"></image><g><clipPath id="clip0x610001ea47a0"><path d="M 339.0 496.0 L 495.0 496.0 L 495.0 340.0 L 339.0 340.0 Z M 338.9 495.6 "></path></clipPath><g clip-path="url(#clip0x610001ea47a0)"><image xlink:href="../../D4859A4F-71BB-4C87-8831-F0D1B7742C94/assets/C6D5BAF5033182073283B82B6676A7A7.png" width="340.00" height="340.00" transform="matrix(0.46, 0.00, -0.00, -0.46, 338.9, 495.6)"></image></g></g><g><clipPath id="clip0x608001cbb2a0"><path d="M 529.0 496.0 L 685.0 496.0 L 685.0 340.0 L 529.0 340.0 Z M 528.9 495.6 "></path></clipPath><g clip-path="url(#clip0x608001cbb2a0)"><image xlink:href="../../B9DCF13A-DE5C-4579-88D1-84484F441654/assets/7E1BA77471FF065A173FB2A0EB1A61CE.png" width="346.00" height="340.00" transform="matrix(0.46, 0.00, -0.00, -0.46, 527.6, 495.6)"></image></g></g><g><clipPath id="clip0x610001ea4860"><path d="M 719.0 496.0 L 875.0 496.0 L 875.0 340.0 L 719.0 340.0 Z M 719.0 495.6 "></path></clipPath><g clip-path="url(#clip0x610001ea4860)"><image xlink:href="../../245E5825-BC3A-4736-9886-B2831640A1C6/assets/2485FE46EDB84177E66AEE1B1A890B86.png" width="340.00" height="346.00" transform="matrix(0.46, 0.00, -0.00, -0.46, 719.0, 497.0)"></image></g></g><text xml:space="preserve" font-family="Helvetica,Helvetica" font-size="36.0" fill="#52575F" transform="matrix(1.00, 0.00, -0.00, -1.00, 116.8, 168.4)">E</text><text xml:space="preserve" font-family="Helvetica,Helvetica" font-size="36.0" fill="#52575F" transform="matrix(1.00, 0.00, -0.00, -1.00, 140.8, 168.4)">r</text><text xml:space="preserve" font-family="Helvetica,Helvetica" font-size="36.0" fill="#52575F" transform="matrix(1.00, 0.00, -0.00, -1.00, 152.8, 168.4)"> </text><text xml:space="preserve" font-family="Helvetica,Helvetica" font-size="36.0" fill="#52575F" transform="matrix(1.00, 0.00, -0.00, -1.00, 162.8, 168.4)">z</text><text xml:space="preserve" font-family="Helvetica,Helvetica" font-size="36.0" fill="#52575F" transform="matrix(1.00, 0.00, -0.00, -1.00, 180.8, 168.4)">u</text><text xml:space="preserve" font-family="Helvetica,Helvetica" font-size="36.0" fill="#52575F" transform="matrix(1.00, 0.00, -0.00, -1.00, 200.8, 168.4)">l</text><text xml:space="preserve" font-family="Helvetica,Helvetica" font-size="36.0" fill="#52575F" transform="matrix(1.00, 0.00, -0.00, -1.00, 208.8, 168.4)">l</text><text xml:space="preserve" font-family="Helvetica,Helvetica" font-size="36.0" fill="#52575F" transform="matrix(1.00, 0.00, -0.00, -1.00, 216.8, 168.4)">e</text><text xml:space="preserve" font-family="Helvetica,Helvetica" font-size="36.0" fill="#52575F" transform="matrix(1.00, 0.00, -0.00, -1.00, 236.9, 168.4)">n</text><text xml:space="preserve" font-family="Helvetica,Helvetica" font-size="36.0" fill="#52575F" transform="matrix(1.00, 0.00, -0.00, -1.00, 256.9, 168.4)"> </text><text xml:space="preserve" font-family="Helvetica,Helvetica" font-size="36.0" fill="#52575F" transform="matrix(1.00, 0.00, -0.00, -1.00, 266.9, 168.4)">v</text><text xml:space="preserve" font-family="Helvetica,Helvetica" font-size="36.0" fill="#52575F" transform="matrix(1.00, 0.00, -0.00, -1.00, 284.9, 168.4)">e</text><text xml:space="preserve" font-family="Helvetica,Helvetica" font-size="36.0" fill="#52575F" transform="matrix(1.00, 0.00, -0.00, -1.00, 304.9, 168.4)">r</text><text xml:space="preserve" font-family="Helvetica,Helvetica" font-size="36.0" fill="#52575F" transform="matrix(1.00, 0.00, -0.00, -1.00, 316.9, 168.4)">s</text><text xml:space="preserve" font-family="Helvetica,Helvetica" font-size="36.0" fill="#52575F" transform="matrix(1.00, 0.00, -0.00, -1.00, 334.9, 168.4)">c</text><text xml:space="preserve" font-family="Helvetica,Helvetica" font-size="36.0" fill="#52575F" transform="matrix(1.00, 0.00, -0.00, -1.00, 352.9, 168.4)">h</text><text xml:space="preserve" font-family="Helvetica,Helvetica" font-size="36.0" fill="#52575F" transform="matrix(1.00, 0.00, -0.00, -1.00, 372.9, 168.4)">i</text><text xml:space="preserve" font-family="Helvetica,Helvetica" font-size="36.0" fill="#52575F" transform="matrix(1.00, 0.00, -0.00, -1.00, 380.9, 168.4)">l</text><text xml:space="preserve" font-family="Helvetica,Helvetica" font-size="36.0" fill="#52575F" transform="matrix(1.00, 0.00, -0.00, -1.00, 388.9, 168.4)">l</text><text xml:space="preserve" font-family="Helvetica,Helvetica" font-size="36.0" fill="#52575F" transform="matrix(1.00, 0.00, -0.00, -1.00, 396.9, 168.4)">e</text><text xml:space="preserve" font-family="Helvetica,Helvetica" font-size="36.0" fill="#52575F" transform="matrix(1.00, 0.00, -0.00, -1.00, 417.0, 168.4)">n</text><text xml:space="preserve" font-family="Helvetica,Helvetica" font-size="36.0" fill="#52575F" transform="matrix(1.00, 0.00, -0.00, -1.00, 437.0, 168.4)">d</text><text xml:space="preserve" font-family="Helvetica,Helvetica" font-size="36.0" fill="#52575F" transform="matrix(1.00, 0.00, -0.00, -1.00, 457.0, 168.4)">e</text><text xml:space="preserve" font-family="Helvetica,Helvetica" font-size="36.0" fill="#52575F" transform="matrix(1.00, 0.00, -0.00, -1.00, 477.1, 168.4)"> </text><text xml:space="preserve" font-family="Helvetica,Helvetica" font-size="36.0" fill="#52575F" transform="matrix(1.00, 0.00, -0.00, -1.00, 487.1, 168.4)">g</text><text xml:space="preserve" font-family="Helvetica,Helvetica" font-size="36.0" fill="#52575F" transform="matrix(1.00, 0.00, -0.00, -1.00, 507.1, 168.4)">e</text><text xml:space="preserve" font-family="Helvetica,Helvetica" font-size="36.0" fill="#52575F" transform="matrix(1.00, 0.00, -0.00, -1.00, 527.1, 168.4)">z</text><text xml:space="preserve" font-family="Helvetica,Helvetica" font-size="36.0" fill="#52575F" transform="matrix(1.00, 0.00, -0.00, -1.00, 545.1, 168.4)">i</text><text xml:space="preserve" font-family="Helvetica,Helvetica" font-size="36.0" fill="#52575F" transform="matrix(1.00, 0.00, -0.00, -1.00, 553.1, 168.4)">c</text><text xml:space="preserve" font-family="Helvetica,Helvetica" font-size="36.0" fill="#52575F" transform="matrix(1.00, 0.00, -0.00, -1.00, 571.1, 168.4)">h</text><text xml:space="preserve" font-family="Helvetica,Helvetica" font-size="36.0" fill="#52575F" transform="matrix(1.00, 0.00, -0.00, -1.00, 591.1, 168.4)">t</text><text xml:space="preserve" font-family="Helvetica,Helvetica" font-size="36.0" fill="#52575F" transform="matrix(1.00, 0.00, -0.00, -1.00, 601.1, 168.4)">s</text><text xml:space="preserve" font-family="Helvetica,Helvetica" font-size="36.0" fill="#52575F" transform="matrix(1.00, 0.00, -0.00, -1.00, 619.1, 168.4)">u</text><text xml:space="preserve" font-family="Helvetica,Helvetica" font-size="36.0" fill="#52575F" transform="matrix(1.00, 0.00, -0.00, -1.00, 639.2, 168.4)">i</text><text xml:space="preserve" font-family="Helvetica,Helvetica" font-size="36.0" fill="#52575F" transform="matrix(1.00, 0.00, -0.00, -1.00, 647.2, 168.4)">t</text><text xml:space="preserve" font-family="Helvetica,Helvetica" font-size="36.0" fill="#52575F" transform="matrix(1.00, 0.00, -0.00, -1.00, 657.2, 168.4)">d</text><text xml:space="preserve" font-family="Helvetica,Helvetica" font-size="36.0" fill="#52575F" transform="matrix(1.00, 0.00, -0.00, -1.00, 677.2, 168.4)">r</text><text xml:space="preserve" font-family="Helvetica,Helvetica" font-size="36.0" fill="#52575F" transform="matrix(1.00, 0.00, -0.00, -1.00, 689.2, 168.4)">u</text><text xml:space="preserve" font-family="Helvetica,Helvetica" font-size="36.0" fill="#52575F" transform="matrix(1.00, 0.00, -0.00, -1.00, 709.2, 168.4)">k</text><text xml:space="preserve" font-family="Helvetica,Helvetica" font-size="36.0" fill="#52575F" transform="matrix(1.00, 0.00, -0.00, -1.00, 727.2, 168.4)">k</text><text xml:space="preserve" font-family="Helvetica,Helvetica" font-size="36.0" fill="#52575F" transform="matrix(1.00, 0.00, -0.00, -1.00, 745.2, 168.4)">i</text><text xml:space="preserve" font-family="Helvetica,Helvetica" font-size="36.0" fill="#52575F" transform="matrix(1.00, 0.00, -0.00, -1.00, 753.2, 168.4)">n</text><text xml:space="preserve" font-family="Helvetica,Helvetica" font-size="36.0" fill="#52575F" transform="matrix(1.00, 0.00, -0.00, -1.00, 773.3, 168.4)">g</text><text xml:space="preserve" font-family="Helvetica,Helvetica" font-size="36.0" fill="#52575F" transform="matrix(1.00, 0.00, -0.00, -1.00, 793.3, 168.4)">e</text><text xml:space="preserve" font-family="Helvetica,Helvetica" font-size="36.0" fill="#52575F" transform="matrix(1.00, 0.00, -0.00, -1.00, 813.3, 168.4)">n</text><text xml:space="preserve" font-family="Helvetica,Helvetica" font-size="36.0" fill="#52575F" transform="matrix(1.00, 0.00, -0.00, -1.00, 833.3, 168.4)"> </text><text xml:space="preserve" font-family="Helvetica,Helvetica" font-size="36.0" fill="#52575F" transform="matrix(1.00, 0.00, -0.00, -1.00, 843.3, 168.4)">z</text><text xml:space="preserve" font-family="Helvetica,Helvetica" font-size="36.0" fill="#52575F" transform="matrix(1.00, 0.00, -0.00, -1.00, 861.3, 168.4)">i</text><text xml:space="preserve" font-family="Helvetica,Helvetica" font-size="36.0" fill="#52575F" transform="matrix(1.00, 0.00, -0.00, -1.00, 869.3, 168.4)">j</text><text xml:space="preserve" font-family="Helvetica,Helvetica" font-size="36.0" fill="#52575F" transform="matrix(1.00, 0.00, -0.00, -1.00, 877.3, 168.4)">n</text><text xml:space="preserve" font-family="Helvetica,Helvetica" font-size="36.0" fill="#52575F" transform="matrix(1.00, 0.00, -0.00, -1.00, 897.4, 168.4)">.</text><text xml:space="preserve" font-family="Helvetica-Bold,Helvetica" font-weight="bold" font-size="40.0" fill="#6FBF40" transform="matrix(1.00, 0.00, -0.00, -1.00, 212.2, 121.3)">K</text><text xml:space="preserve" font-family="Helvetica-Bold,Helvetica" font-weight="bold" font-size="40.0" fill="#6FBF40" transform="matrix(1.00, 0.00, -0.00, -1.00, 241.1, 121.3)">l</text><text xml:space="preserve" font-family="Helvetica-Bold,Helvetica" font-weight="bold" font-size="40.0" fill="#6FBF40" transform="matrix(1.00, 0.00, -0.00, -1.00, 252.2, 121.3)">i</text><text xml:space="preserve" font-family="Helvetica-Bold,Helvetica" font-weight="bold" font-size="40.0" fill="#6FBF40" transform="matrix(1.00, 0.00, -0.00, -1.00, 263.3, 121.3)">k</text><text xml:space="preserve" font-family="Helvetica,Helvetica" font-size="36.0" fill="#52575F" transform="matrix(1.00, 0.00, -0.00, -1.00, 285.5, 121.3)"> </text><text xml:space="preserve" font-family="Helvetica,Helvetica" font-size="36.0" fill="#52575F" transform="matrix(1.00, 0.00, -0.00, -1.00, 295.5, 121.3)">o</text><text xml:space="preserve" font-family="Helvetica,Helvetica" font-size="36.0" fill="#52575F" transform="matrix(1.00, 0.00, -0.00, -1.00, 315.5, 121.3)">p</text><text xml:space="preserve" font-family="Helvetica,Helvetica" font-size="36.0" fill="#52575F" transform="matrix(1.00, 0.00, -0.00, -1.00, 335.6, 121.3)"> </text><text xml:space="preserve" font-family="Helvetica,Helvetica" font-size="36.0" fill="#52575F" transform="matrix(1.00, 0.00, -0.00, -1.00, 345.6, 121.3)">d</text><text xml:space="preserve" font-family="Helvetica,Helvetica" font-size="36.0" fill="#52575F" transform="matrix(1.00, 0.00, -0.00, -1.00, 365.6, 121.3)">e</text><text xml:space="preserve" font-family="Helvetica,Helvetica" font-size="36.0" fill="#52575F" transform="matrix(1.00, 0.00, -0.00, -1.00, 385.6, 121.3)"> </text><text xml:space="preserve" font-family="Helvetica,Helvetica" font-size="36.0" fill="#52575F" transform="matrix(1.00, 0.00, -0.00, -1.00, 395.6, 121.3)">j</text><text xml:space="preserve" font-family="Helvetica,Helvetica" font-size="36.0" fill="#52575F" transform="matrix(1.00, 0.00, -0.00, -1.00, 403.6, 121.3)">u</text><text xml:space="preserve" font-family="Helvetica,Helvetica" font-size="36.0" fill="#52575F" transform="matrix(1.00, 0.00, -0.00, -1.00, 423.7, 121.3)">i</text><text xml:space="preserve" font-family="Helvetica,Helvetica" font-size="36.0" fill="#52575F" transform="matrix(1.00, 0.00, -0.00, -1.00, 431.7, 121.3)">s</text><text xml:space="preserve" font-family="Helvetica,Helvetica" font-size="36.0" fill="#52575F" transform="matrix(1.00, 0.00, -0.00, -1.00, 449.7, 121.3)">t</text><text xml:space="preserve" font-family="Helvetica,Helvetica" font-size="36.0" fill="#52575F" transform="matrix(1.00, 0.00, -0.00, -1.00, 459.7, 121.3)">e</text><text xml:space="preserve" font-family="Helvetica,Helvetica" font-size="36.0" fill="#52575F" transform="matrix(1.00, 0.00, -0.00, -1.00, 479.7, 121.3)"> </text><text xml:space="preserve" font-family="Helvetica,Helvetica" font-size="36.0" fill="#52575F" transform="matrix(1.00, 0.00, -0.00, -1.00, 489.7, 121.3)">v</text><text xml:space="preserve" font-family="Helvetica,Helvetica" font-size="36.0" fill="#52575F" transform="matrix(1.00, 0.00, -0.00, -1.00, 507.7, 121.3)">o</text><text xml:space="preserve" font-family="Helvetica,Helvetica" font-size="36.0" fill="#52575F" transform="matrix(1.00, 0.00, -0.00, -1.00, 527.7, 121.3)">o</text><text xml:space="preserve" font-family="Helvetica,Helvetica" font-size="36.0" fill="#52575F" transform="matrix(1.00, 0.00, -0.00, -1.00, 547.7, 121.3)">r</text><text xml:space="preserve" font-family="Helvetica,Helvetica" font-size="36.0" fill="#52575F" transform="matrix(1.00, 0.00, -0.00, -1.00, 559.7, 121.3)">d</text><text xml:space="preserve" font-family="Helvetica,Helvetica" font-size="36.0" fill="#52575F" transform="matrix(1.00, 0.00, -0.00, -1.00, 579.7, 121.3)">a</text><text xml:space="preserve" font-family="Helvetica,Helvetica" font-size="36.0" fill="#52575F" transform="matrix(1.00, 0.00, -0.00, -1.00, 599.8, 121.3)">t</text><text xml:space="preserve" font-family="Helvetica,Helvetica" font-size="36.0" fill="#52575F" transform="matrix(1.00, 0.00, -0.00, -1.00, 609.8, 121.3)"> </text><text xml:space="preserve" font-family="Helvetica,Helvetica" font-size="36.0" fill="#52575F" transform="matrix(1.00, 0.00, -0.00, -1.00, 619.8, 121.3)">d</text><text xml:space="preserve" font-family="Helvetica,Helvetica" font-size="36.0" fill="#52575F" transform="matrix(1.00, 0.00, -0.00, -1.00, 639.8, 121.3)">e</text><text xml:space="preserve" font-family="Helvetica,Helvetica" font-size="36.0" fill="#52575F" transform="matrix(1.00, 0.00, -0.00, -1.00, 659.8, 121.3)"> </text><text xml:space="preserve" font-family="Helvetica,Helvetica" font-size="36.0" fill="#52575F" transform="matrix(1.00, 0.00, -0.00, -1.00, 669.8, 121.3)">t</text><text xml:space="preserve" font-family="Helvetica,Helvetica" font-size="36.0" fill="#52575F" transform="matrix(1.00, 0.00, -0.00, -1.00, 679.8, 121.3)">i</text><text xml:space="preserve" font-family="Helvetica,Helvetica" font-size="36.0" fill="#52575F" transform="matrix(1.00, 0.00, -0.00, -1.00, 687.8, 121.3)">j</text><text xml:space="preserve" font-family="Helvetica,Helvetica" font-size="36.0" fill="#52575F" transform="matrix(1.00, 0.00, -0.00, -1.00, 695.8, 121.3)">d</text><text xml:space="preserve" font-family="Helvetica,Helvetica" font-size="36.0" fill="#52575F" transform="matrix(1.00, 0.00, -0.00, -1.00, 715.9, 121.3)"> </text><text xml:space="preserve" font-family="Helvetica,Helvetica" font-size="36.0" fill="#52575F" transform="matrix(1.00, 0.00, -0.00, -1.00, 725.8, 121.3)">o</text><text xml:space="preserve" font-family="Helvetica,Helvetica" font-size="36.0" fill="#52575F" transform="matrix(1.00, 0.00, -0.00, -1.00, 745.9, 121.3)">p</text><text xml:space="preserve" font-family="Helvetica,Helvetica" font-size="36.0" fill="#52575F" transform="matrix(1.00, 0.00, -0.00, -1.00, 765.9, 121.3)"> </text><text xml:space="preserve" font-family="Helvetica,Helvetica" font-size="36.0" fill="#52575F" transform="matrix(1.00, 0.00, -0.00, -1.00, 775.9, 121.3)">i</text><text xml:space="preserve" font-family="Helvetica,Helvetica" font-size="36.0" fill="#52575F" transform="matrix(1.00, 0.00, -0.00, -1.00, 783.9, 121.3)">s</text><text xml:space="preserve" font-family="Helvetica,Helvetica" font-size="36.0" fill="#52575F" transform="matrix(1.00, 0.00, -0.00, -1.00, 801.9, 121.3)">.</text><text xml:space="preserve" font-family="Helvetica-Bold,Helvetica" font-weight="bold" font-size="49.0" fill="#C82505" transform="matrix(1.00, 0.00, -0.00, -1.00, 473.9, 513.3)">B</text><text xml:space="preserve" font-family="Helvetica-Bold,Helvetica" font-weight="bold" font-size="49.0" fill="#C82505" transform="matrix(1.00, 0.00, -0.00, -1.00, 509.3, 513.3)">l</text><text xml:space="preserve" font-family="Helvetica-Bold,Helvetica" font-weight="bold" font-size="49.0" fill="#C82505" transform="matrix(1.00, 0.00, -0.00, -1.00, 522.9, 513.3)">i</text><text xml:space="preserve" font-family="Helvetica-Bold,Helvetica" font-weight="bold" font-size="49.0" fill="#C82505" transform="matrix(1.00, 0.00, -0.00, -1.00, 536.5, 513.3)">j</text><image xlink:href="../../9E8F32BC-9589-436B-8D50-A1D9D0F5E178/assets/BFD8E7EADB82A8302BFE8E4FEADE0556.png" width="642.00" height="51.00" transform="matrix(1.00, 0.00, -0.00, -1.00, 212.6, 322.2)" opacity="0.50"></image><path d="M 216.0 321.0 L 852.0 321.0 L 852.0 276.0 L 216.0 276.0 Z M 215.6 321.2 " fill="#F5D327"></path><g><clipPath id="clip0x6180020becc0"><path d="M 152.2 267.7 L 204.2 267.7 L 204.2 319.8 L 152.2 319.8 Z M 152.2 267.7 "></path></clipPath><g clip-path="url(#clip0x6180020becc0)"><path d="M 38.5 6.6 C 47.3 15.4 47.3 29.7 38.5 38.5 C 29.7 47.3 15.4 47.3 6.6 38.5 C -2.2 29.7 -2.2 15.4 6.6 6.6 C 15.4 -2.2 29.7 -2.2 38.5 6.6 Z M 38.5 6.6 " fill="none" stroke="#002451" stroke-width="5.00" transform="matrix(1.00, 0.00, 0.00, -1.00, 155.7, 316.3)"></path></g></g><g><clipPath id="clip0x6180020bef00"><path d="M 174.9 291.5 L 189.0 305.6 L 193.3 301.4 L 179.2 287.3 Z M 174.9 291.5 "></path></clipPath><g clip-path="url(#clip0x6180020bef00)"><path d="M 0.0 0.0 L 17.9 0.0 " fill="none" stroke="#002451" stroke-width="4.00" transform="matrix(0.71, 0.71, 0.71, -0.71, 177.8, 290.1)"></path></g></g><g><clipPath id="clip0x6180020bf140"><path d="M 175.2 290.1 L 175.2 312.4 L 181.2 312.4 L 181.2 290.1 Z M 175.2 290.1 "></path></clipPath><g clip-path="url(#clip0x6180020bf140)"><path d="M -0.1 -0.2 L 19.9 -0.2 " fill="none" stroke="#002451" stroke-width="4.00" transform="matrix(0.00, 1.00, 1.00, 0.00, 178.2, 291.1)"></path></g></g><g><clipPath id="clip0x6180020bf380"><path d="M 167.5 318.2 L 188.9 318.2 L 188.9 327.1 L 167.5 327.1 Z M 167.5 318.2 "></path></clipPath><g clip-path="url(#clip0x6180020bf380)"><path d="M 168.5 322.7 L 168.5 322.7 C 168.5 324.5 170.0 326.0 171.9 326.0 L 184.5 326.0 C 186.4 326.0 187.9 324.5 187.9 322.7 L 187.9 322.7 C 187.9 320.8 186.4 319.0 184.5 319.0 L 171.9 319.0 C 170.0 319.0 168.5 320.8 168.5 322.7 Z M 168.5 322.7 " fill="#002451"></path></g></g><image xlink:href="../../9E8F32BC-9589-436B-8D50-A1D9D0F5E178/assets/D2E847E14FF7923E4CA35D1D561EE75A.png" width="282.00" height="40.00" transform="matrix(1.00, 0.00, -0.00, -0.99, 221.4, 316.5)" opacity="0.50"></image><path d="M 224.0 315.0 L 500.0 315.0 L 500.0 282.0 L 224.0 282.0 Z M 224.4 315.5 " fill="#F38F18"></path><g><clipPath id="clip0x6000026be900"><path d="M 867.1 590.2 L 967.6 590.2 L 967.6 690.7 L 867.1 690.7 Z M 867.1 590.2 "></path></clipPath><g clip-path="url(#clip0x6000026be900)"><image xlink:href="../../9E8F32BC-9589-436B-8D50-A1D9D0F5E178/assets/6A4F360583B4BE13BC866AD30E7BF04D.png" width="99.00" height="99.00" transform="matrix(1.00, 0.00, -0.00, -1.00, 868.1, 689.7)" opacity="0.50"></image><path d="M 950.1 675.2 C 968.1 657.1 968.1 627.8 950.1 609.7 C 932.0 591.7 902.7 591.7 884.6 609.7 C 866.5 627.8 866.5 657.1 884.6 675.2 C 902.7 693.3 932.0 693.3 950.1 675.2 Z M 950.1 675.2 " fill="#C82505"></path></g></g><g><clipPath id="clip0x6180020bf740"><path d="M 892.5 622.6 L 937.2 667.3 L 942.2 662.3 L 897.5 617.6 Z M 892.5 622.6 "></path></clipPath><g clip-path="url(#clip0x6180020bf740)"><path d="M 0.0 0.0 L 61.2 0.0 " fill="none" stroke="#FEFFFE" stroke-width="5.00" transform="matrix(0.71, 0.71, 0.71, -0.71, 895.7, 620.8)"></path></g></g><g><clipPath id="clip0x6180020bf980"><path d="M 937.2 617.6 L 892.5 662.3 L 897.5 667.3 L 942.2 622.6 Z M 937.2 617.6 "></path></clipPath><g clip-path="url(#clip0x6180020bf980)"><path d="M 0.0 0.0 L 61.2 0.0 " fill="none" stroke="#FEFFFE" stroke-width="5.00" transform="matrix(-0.71, 0.71, 0.71, 0.71, 939.0, 620.8)"></path></g></g></g></svg>