<?xml version="1.0" encoding="UTF-8" standalone="no"?><svg xmlns="http://www.w3.org/2000/svg" xmlns:xlink="http://www.w3.org/1999/xlink" clip-rule="evenodd" stroke-miterlimit="10" viewBox="0 0 108 108"><desc>SVG generated by Keynote</desc><defs></defs><g transform="matrix(1.00, 0.00, -0.00, -1.00, 0.0, 108.0)"><g><clipPath id="clip0x6000022b5660"><path d="M 34.5 34.2 L 73.3 34.2 L 73.3 73.0 L 34.5 73.0 Z M 34.5 34.2 "></path></clipPath><g clip-path="url(#clip0x6000022b5660)"><path d="M 29.7 5.1 C 36.5 11.9 36.5 22.9 29.7 29.7 C 22.9 36.5 11.9 36.5 5.1 29.7 C -1.7 22.9 -1.7 11.9 5.1 5.1 C 11.9 -1.7 22.9 -1.7 29.7 5.1 Z M 29.7 5.1 " fill="none" stroke="#FEFFFE" stroke-width="2.00" transform="matrix(1.00, 0.00, 0.00, -1.00, 36.5, 71.0)"></path></g></g><g><clipPath id="clip0x6000022b5d80"><path d="M 25.3 25.0 L 82.5 25.0 L 82.5 82.2 L 25.3 82.2 Z M 25.3 25.0 "></path></clipPath><g clip-path="url(#clip0x6000022b5d80)"><path d="M 45.4 7.8 C 55.7 18.2 55.7 35.0 45.4 45.4 C 35.0 55.7 18.2 55.7 7.8 45.4 C -2.6 35.0 -2.6 18.2 7.8 7.8 C 18.2 -2.6 35.0 -2.6 45.4 7.8 Z M 45.4 7.8 " fill="none" stroke="#FEFFFE" stroke-width="2.00" transform="matrix(1.00, 0.00, 0.00, -1.00, 27.3, 80.2)"></path></g></g><g><clipPath id="clip0x6000022b5fc0"><path d="M 16.9 16.6 L 90.9 16.6 L 90.9 90.6 L 16.9 90.6 Z M 16.9 16.6 "></path></clipPath><g clip-path="url(#clip0x6000022b5fc0)"><path d="M 59.8 10.3 C 73.4 23.9 73.4 46.1 59.8 59.8 C 46.1 73.4 23.9 73.4 10.3 59.8 C -3.4 46.1 -3.4 23.9 10.3 10.3 C 23.9 -3.4 46.1 -3.4 59.8 10.3 Z M 59.8 10.3 " fill="none" stroke="#FEFFFE" stroke-width="2.00" transform="matrix(1.00, 0.00, 0.00, -1.00, 18.9, 88.6)"></path></g></g><g><clipPath id="clip0x6000022b6200"><path d="M 0.4 0.1 L 107.4 0.1 L 107.4 107.1 L 0.4 107.1 Z M 0.4 0.1 "></path></clipPath><g clip-path="url(#clip0x6000022b6200)"><path d="M 85.4 14.6 C 104.9 34.2 104.9 65.8 85.4 85.4 C 65.8 104.9 34.2 104.9 14.6 85.4 C -4.9 65.8 -4.9 34.2 14.6 14.6 C 34.2 -4.9 65.8 -4.9 85.4 14.6 Z M 85.4 14.6 " fill="none" stroke="#FEFFFE" stroke-width="5.00" stroke-linecap="round" stroke-linejoin="round" stroke-dasharray="0.0, 15.0" transform="matrix(1.00, 0.00, 0.00, -1.00, 3.9, 103.6)"></path></g></g></g></svg>