<?xml version="1.0" encoding="UTF-8" standalone="no"?><svg xmlns="http://www.w3.org/2000/svg" xmlns:xlink="http://www.w3.org/1999/xlink" clip-rule="evenodd" stroke-miterlimit="10" viewBox="0 0 1024 768"><desc>SVG generated by Keynote</desc><defs></defs><g transform="matrix(1.00, 0.00, -0.00, -1.00, 0.0, 768.0)"><path d="M 0.0 768.0 L 1024.0 768.0 L 1024.0 0.0 L 0.0 0.0 Z M 0.0 768.0 " fill="#164E86"></path><image xlink:href="17F97B6BA7DC3227B98385ACA7F5F219.png" width="1024.00" height="768.00" transform="matrix(1.00, 0.00, -0.00, -1.00, 0.0, 768.0)"></image><path d="M 2.5 183.5 L 1021.5 183.5 L 1021.5 1.5 L 2.5 1.5 Z M 2.5 184.0 " fill="#9E4B12"></path><path d="M 0.0 0.5 L 1019.0 0.5 L 1019.0 182.5 L 0.0 182.5 Z M 0.0 0.0 " fill="none" stroke="#FEFFFE" stroke-width="5.00" transform="matrix(1.00, 0.00, 0.00, -1.00, 2.5, 184.0)"></path><text xml:space="preserve" font-family="Helvetica-Bold,Helvetica" font-weight="bold" font-size="34.0" fill="#FEFFFE" transform="matrix(1.00, 0.00, -0.00, -1.00, 488.4, 80.2)">E</text><text xml:space="preserve" font-family="Helvetica-Bold,Helvetica" font-weight="bold" font-size="34.0" fill="#FEFFFE" transform="matrix(1.00, 0.00, -0.00, -1.00, 511.1, 80.2)">e</text><text xml:space="preserve" font-family="Helvetica-Bold,Helvetica" font-weight="bold" font-size="34.0" fill="#FEFFFE" transform="matrix(1.00, 0.00, -0.00, -1.00, 530.0, 80.2)">n</text><text xml:space="preserve" font-family="Helvetica-Bold,Helvetica" font-weight="bold" font-size="34.0" fill="#FEFFFE" transform="matrix(1.00, 0.00, -0.00, -1.00, 550.8, 80.2)"> </text><text xml:space="preserve" font-family="Helvetica-Bold,Helvetica" font-weight="bold" font-size="34.0" fill="#FEFFFE" transform="matrix(1.00, 0.00, -0.00, -1.00, 560.2, 80.2)">t</text><text xml:space="preserve" font-family="Helvetica-Bold,Helvetica" font-weight="bold" font-size="34.0" fill="#FEFFFE" transform="matrix(1.00, 0.00, -0.00, -1.00, 571.5, 80.2)">r</text><text xml:space="preserve" font-family="Helvetica-Bold,Helvetica" font-weight="bold" font-size="34.0" fill="#FEFFFE" transform="matrix(1.00, 0.00, -0.00, -1.00, 584.8, 80.2)">i</text><text xml:space="preserve" font-family="Helvetica-Bold,Helvetica" font-weight="bold" font-size="34.0" fill="#FEFFFE" transform="matrix(1.00, 0.00, -0.00, -1.00, 594.2, 80.2)">e</text><text xml:space="preserve" font-family="Helvetica-Bold,Helvetica" font-weight="bold" font-size="34.0" fill="#FEFFFE" transform="matrix(1.00, 0.00, -0.00, -1.00, 613.1, 80.2)">s</text><text xml:space="preserve" font-family="Helvetica-Bold,Helvetica" font-weight="bold" font-size="34.0" fill="#FEFFFE" transform="matrix(1.00, 0.00, -0.00, -1.00, 632.0, 80.2)">t</text><text xml:space="preserve" font-family="Helvetica-Bold,Helvetica" font-weight="bold" font-size="34.0" fill="#FEFFFE" transform="matrix(1.00, 0.00, -0.00, -1.00, 643.3, 80.2)"> </text><text xml:space="preserve" font-family="Helvetica-Bold,Helvetica" font-weight="bold" font-size="34.0" fill="#FEFFFE" transform="matrix(1.00, 0.00, -0.00, -1.00, 652.8, 80.2)">v</text><text xml:space="preserve" font-family="Helvetica-Bold,Helvetica" font-weight="bold" font-size="34.0" fill="#FEFFFE" transform="matrix(1.00, 0.00, -0.00, -1.00, 671.7, 80.2)">e</text><text xml:space="preserve" font-family="Helvetica-Bold,Helvetica" font-weight="bold" font-size="34.0" fill="#FEFFFE" transform="matrix(1.00, 0.00, -0.00, -1.00, 690.6, 80.2)">r</text><text xml:space="preserve" font-family="Helvetica-Bold,Helvetica" font-weight="bold" font-size="34.0" fill="#FEFFFE" transform="matrix(1.00, 0.00, -0.00, -1.00, 703.9, 80.2)">h</text><text xml:space="preserve" font-family="Helvetica-Bold,Helvetica" font-weight="bold" font-size="34.0" fill="#FEFFFE" transform="matrix(1.00, 0.00, -0.00, -1.00, 724.6, 80.2)">a</text><text xml:space="preserve" font-family="Helvetica-Bold,Helvetica" font-weight="bold" font-size="34.0" fill="#FEFFFE" transform="matrix(1.00, 0.00, -0.00, -1.00, 743.5, 80.2)">a</text><text xml:space="preserve" font-family="Helvetica-Bold,Helvetica" font-weight="bold" font-size="34.0" fill="#FEFFFE" transform="matrix(1.00, 0.00, -0.00, -1.00, 762.4, 80.2)">l</text><text xml:space="preserve" font-family="Helvetica-Bold,Helvetica" font-weight="bold" font-size="34.0" fill="#FEFFFE" transform="matrix(1.00, 0.00, -0.00, -1.00, 771.9, 80.2)">…</text><path d="M 0.2 -0.1 L 116.2 -0.1 " fill="none" stroke="#FEFFFE" stroke-width="4.00" transform="matrix(0.00, 1.00, 1.00, 0.00, 274.1, 34.8)"></path><text xml:space="preserve" font-family="Helvetica-Bold,Helvetica" font-weight="bold" font-size="38.0" fill="#FEFFFE" transform="matrix(1.00, 0.00, -0.00, -1.00, 51.3, 101.6)">D</text><text xml:space="preserve" font-family="Helvetica-Bold,Helvetica" font-weight="bold" font-size="38.0" fill="#FEFFFE" transform="matrix(1.00, 0.00, -0.00, -1.00, 78.8, 101.6)">e</text><text xml:space="preserve" font-family="Helvetica-Bold,Helvetica" font-weight="bold" font-size="38.0" fill="#FEFFFE" transform="matrix(1.00, 0.00, -0.00, -1.00, 99.9, 101.6)"> </text><text xml:space="preserve" font-family="Helvetica-Bold,Helvetica" font-weight="bold" font-size="38.0" fill="#FEFFFE" transform="matrix(1.00, 0.00, -0.00, -1.00, 110.5, 101.6)">G</text><text xml:space="preserve" font-family="Helvetica-Bold,Helvetica" font-weight="bold" font-size="38.0" fill="#FEFFFE" transform="matrix(1.00, 0.00, -0.00, -1.00, 140.0, 101.6)">r</text><text xml:space="preserve" font-family="Helvetica-Bold,Helvetica" font-weight="bold" font-size="38.0" fill="#FEFFFE" transform="matrix(1.00, 0.00, -0.00, -1.00, 154.8, 101.6)">o</text><text xml:space="preserve" font-family="Helvetica-Bold,Helvetica" font-weight="bold" font-size="38.0" fill="#FEFFFE" transform="matrix(1.00, 0.00, -0.00, -1.00, 178.0, 101.6)">t</text><text xml:space="preserve" font-family="Helvetica-Bold,Helvetica" font-weight="bold" font-size="38.0" fill="#FEFFFE" transform="matrix(1.00, 0.00, -0.00, -1.00, 190.7, 101.6)">e</text><text xml:space="preserve" font-family="Helvetica-Bold,Helvetica" font-weight="bold" font-size="38.0" fill="#FEFFFE" transform="matrix(1.00, 0.00, -0.00, -1.00, 211.8, 101.6)"> </text><text xml:space="preserve" font-family="Helvetica-Bold,Helvetica" font-weight="bold" font-size="38.0" fill="#FEFFFE" transform="matrix(1.00, 0.00, -0.00, -1.00, 37.6, 55.6)">S</text><text xml:space="preserve" font-family="Helvetica-Bold,Helvetica" font-weight="bold" font-size="38.0" fill="#FEFFFE" transform="matrix(1.00, 0.00, -0.00, -1.00, 62.9, 55.6)">e</text><text xml:space="preserve" font-family="Helvetica-Bold,Helvetica" font-weight="bold" font-size="38.0" fill="#FEFFFE" transform="matrix(1.00, 0.00, -0.00, -1.00, 84.1, 55.6)">a</text><text xml:space="preserve" font-family="Helvetica-Bold,Helvetica" font-weight="bold" font-size="38.0" fill="#FEFFFE" transform="matrix(1.00, 0.00, -0.00, -1.00, 105.2, 55.6)">n</text><text xml:space="preserve" font-family="Helvetica-Bold,Helvetica" font-weight="bold" font-size="38.0" fill="#FEFFFE" transform="matrix(1.00, 0.00, -0.00, -1.00, 128.4, 55.6)">a</text><text xml:space="preserve" font-family="Helvetica-Bold,Helvetica" font-weight="bold" font-size="38.0" fill="#FEFFFE" transform="matrix(1.00, 0.00, -0.00, -1.00, 149.6, 55.6)">c</text><text xml:space="preserve" font-family="Helvetica-Bold,Helvetica" font-weight="bold" font-size="38.0" fill="#FEFFFE" transform="matrix(1.00, 0.00, -0.00, -1.00, 170.7, 55.6)">h</text><text xml:space="preserve" font-family="Helvetica-Bold,Helvetica" font-weight="bold" font-size="38.0" fill="#FEFFFE" transform="matrix(1.00, 0.00, -0.00, -1.00, 193.9, 55.6)">a</text><text xml:space="preserve" font-family="Helvetica-Bold,Helvetica" font-weight="bold" font-size="38.0" fill="#FEFFFE" transform="matrix(1.00, 0.00, -0.00, -1.00, 215.0, 55.6)">i</text></g></svg>