<?xml version="1.0" encoding="UTF-8" standalone="no"?><svg xmlns="http://www.w3.org/2000/svg" xmlns:xlink="http://www.w3.org/1999/xlink" clip-rule="evenodd" stroke-miterlimit="10" viewBox="0 0 1038 782"><desc>SVG generated by Keynote</desc><defs></defs><g transform="matrix(1.00, 0.00, -0.00, -1.00, 0.0, 782.0)"><image xlink:href="911D900F56BE49F4217961057C71D106.png" width="1036.00" height="774.00" transform="matrix(1.00, 0.00, -0.00, -1.00, 1.2, 776.1)" opacity="0.50"></image><path d="M 4.0 775.0 L 1034.0 775.0 L 1034.0 7.0 L 4.0 7.0 Z M 4.2 775.1 " fill="#000000"></path><g><clipPath id="clip0x610002cb5060"><path d="M -0.1 6.9 L 1038.1 6.9 L 1038.1 775.1 L -0.1 775.1 Z M -0.1 6.9 "></path></clipPath><g clip-path="url(#clip0x610002cb5060)"><text xml:space="preserve" font-family="Helvetica,Helvetica" font-size="33.0" fill="#FEFFFE" transform="matrix(1.00, 0.00, -0.00, -1.00, 378.7, 478.7)">E</text><text xml:space="preserve" font-family="Helvetica,Helvetica" font-size="33.0" fill="#FEFFFE" transform="matrix(1.00, 0.00, -0.00, -1.00, 400.7, 478.7)">m</text><text xml:space="preserve" font-family="Helvetica,Helvetica" font-size="33.0" fill="#FEFFFE" transform="matrix(1.00, 0.00, -0.00, -1.00, 428.2, 478.7)">o</text><text xml:space="preserve" font-family="Helvetica,Helvetica" font-size="33.0" fill="#FEFFFE" transform="matrix(1.00, 0.00, -0.00, -1.00, 446.6, 478.7)">t</text><text xml:space="preserve" font-family="Helvetica,Helvetica" font-size="33.0" fill="#FEFFFE" transform="matrix(1.00, 0.00, -0.00, -1.00, 455.7, 478.7)">i</text><text xml:space="preserve" font-family="Helvetica,Helvetica" font-size="33.0" fill="#FEFFFE" transform="matrix(1.00, 0.00, -0.00, -1.00, 463.1, 478.7)">e</text><text xml:space="preserve" font-family="Helvetica,Helvetica" font-size="33.0" fill="#FEFFFE" transform="matrix(1.00, 0.00, -0.00, -1.00, 481.4, 478.7)"> </text><text xml:space="preserve" font-family="Helvetica,Helvetica" font-size="33.0" fill="#FEFFFE" transform="matrix(1.00, 0.00, -0.00, -1.00, 490.6, 478.7)">i</text><text xml:space="preserve" font-family="Helvetica,Helvetica" font-size="33.0" fill="#FEFFFE" transform="matrix(1.00, 0.00, -0.00, -1.00, 497.9, 478.7)">s</text><text xml:space="preserve" font-family="Helvetica,Helvetica" font-size="33.0" fill="#FEFFFE" transform="matrix(1.00, 0.00, -0.00, -1.00, 514.4, 478.7)"> </text><text xml:space="preserve" font-family="Helvetica,Helvetica" font-size="33.0" fill="#FEFFFE" transform="matrix(1.00, 0.00, -0.00, -1.00, 523.6, 478.7)">d</text><text xml:space="preserve" font-family="Helvetica,Helvetica" font-size="33.0" fill="#FEFFFE" transform="matrix(1.00, 0.00, -0.00, -1.00, 541.9, 478.7)">e</text><text xml:space="preserve" font-family="Helvetica,Helvetica" font-size="33.0" fill="#FEFFFE" transform="matrix(1.00, 0.00, -0.00, -1.00, 560.3, 478.7)"> </text><text xml:space="preserve" font-family="Helvetica,Helvetica" font-size="33.0" fill="#FEFFFE" transform="matrix(1.00, 0.00, -0.00, -1.00, 569.5, 478.7)">m</text><text xml:space="preserve" font-family="Helvetica,Helvetica" font-size="33.0" fill="#FEFFFE" transform="matrix(1.00, 0.00, -0.00, -1.00, 596.9, 478.7)">e</text><text xml:space="preserve" font-family="Helvetica,Helvetica" font-size="33.0" fill="#FEFFFE" transform="matrix(1.00, 0.00, -0.00, -1.00, 615.3, 478.7)">e</text><text xml:space="preserve" font-family="Helvetica,Helvetica" font-size="33.0" fill="#FEFFFE" transform="matrix(1.00, 0.00, -0.00, -1.00, 633.7, 478.7)">s</text><text xml:space="preserve" font-family="Helvetica,Helvetica" font-size="33.0" fill="#FEFFFE" transform="matrix(1.00, 0.00, -0.00, -1.00, 650.2, 478.7)">t</text><text xml:space="preserve" font-family="Helvetica,Helvetica" font-size="33.0" fill="#FEFFFE" transform="matrix(1.00, 0.00, -0.00, -1.00, 331.9, 438.7)">k</text><text xml:space="preserve" font-family="Helvetica,Helvetica" font-size="33.0" fill="#FEFFFE" transform="matrix(1.00, 0.00, -0.00, -1.00, 348.4, 438.7)">r</text><text xml:space="preserve" font-family="Helvetica,Helvetica" font-size="33.0" fill="#FEFFFE" transform="matrix(1.00, 0.00, -0.00, -1.00, 359.4, 438.7)">a</text><text xml:space="preserve" font-family="Helvetica,Helvetica" font-size="33.0" fill="#FEFFFE" transform="matrix(1.00, 0.00, -0.00, -1.00, 377.7, 438.7)">c</text><text xml:space="preserve" font-family="Helvetica,Helvetica" font-size="33.0" fill="#FEFFFE" transform="matrix(1.00, 0.00, -0.00, -1.00, 394.2, 438.7)">h</text><text xml:space="preserve" font-family="Helvetica,Helvetica" font-size="33.0" fill="#FEFFFE" transform="matrix(1.00, 0.00, -0.00, -1.00, 412.6, 438.7)">t</text><text xml:space="preserve" font-family="Helvetica,Helvetica" font-size="33.0" fill="#FEFFFE" transform="matrix(1.00, 0.00, -0.00, -1.00, 421.8, 438.7)">i</text><text xml:space="preserve" font-family="Helvetica,Helvetica" font-size="33.0" fill="#FEFFFE" transform="matrix(1.00, 0.00, -0.00, -1.00, 429.1, 438.7)">g</text><text xml:space="preserve" font-family="Helvetica,Helvetica" font-size="33.0" fill="#FEFFFE" transform="matrix(1.00, 0.00, -0.00, -1.00, 447.5, 438.7)">e</text><text xml:space="preserve" font-family="Helvetica,Helvetica" font-size="33.0" fill="#FEFFFE" transform="matrix(1.00, 0.00, -0.00, -1.00, 465.8, 438.7)"> </text><text xml:space="preserve" font-family="Helvetica,Helvetica" font-size="33.0" fill="#FEFFFE" transform="matrix(1.00, 0.00, -0.00, -1.00, 475.0, 438.7)">w</text><text xml:space="preserve" font-family="Helvetica,Helvetica" font-size="33.0" fill="#FEFFFE" transform="matrix(1.00, 0.00, -0.00, -1.00, 498.8, 438.7)">a</text><text xml:space="preserve" font-family="Helvetica,Helvetica" font-size="33.0" fill="#FEFFFE" transform="matrix(1.00, 0.00, -0.00, -1.00, 517.2, 438.7)">t</text><text xml:space="preserve" font-family="Helvetica,Helvetica" font-size="33.0" fill="#FEFFFE" transform="matrix(1.00, 0.00, -0.00, -1.00, 526.3, 438.7)"> </text><text xml:space="preserve" font-family="Helvetica,Helvetica" font-size="33.0" fill="#FEFFFE" transform="matrix(1.00, 0.00, -0.00, -1.00, 535.5, 438.7)">w</text><text xml:space="preserve" font-family="Helvetica,Helvetica" font-size="33.0" fill="#FEFFFE" transform="matrix(1.00, 0.00, -0.00, -1.00, 559.3, 438.7)">e</text><text xml:space="preserve" font-family="Helvetica,Helvetica" font-size="33.0" fill="#FEFFFE" transform="matrix(1.00, 0.00, -0.00, -1.00, 577.7, 438.7)"> </text><text xml:space="preserve" font-family="Helvetica,Helvetica" font-size="33.0" fill="#FEFFFE" transform="matrix(1.00, 0.00, -0.00, -1.00, 586.9, 438.7)">h</text><text xml:space="preserve" font-family="Helvetica,Helvetica" font-size="33.0" fill="#FEFFFE" transform="matrix(1.00, 0.00, -0.00, -1.00, 605.2, 438.7)">e</text><text xml:space="preserve" font-family="Helvetica,Helvetica" font-size="33.0" fill="#FEFFFE" transform="matrix(1.00, 0.00, -0.00, -1.00, 623.6, 438.7)">b</text><text xml:space="preserve" font-family="Helvetica,Helvetica" font-size="33.0" fill="#FEFFFE" transform="matrix(1.00, 0.00, -0.00, -1.00, 641.9, 438.7)">b</text><text xml:space="preserve" font-family="Helvetica,Helvetica" font-size="33.0" fill="#FEFFFE" transform="matrix(1.00, 0.00, -0.00, -1.00, 660.3, 438.7)">e</text><text xml:space="preserve" font-family="Helvetica,Helvetica" font-size="33.0" fill="#FEFFFE" transform="matrix(1.00, 0.00, -0.00, -1.00, 678.7, 438.7)">n</text><text xml:space="preserve" font-family="Helvetica,Helvetica" font-size="33.0" fill="#FEFFFE" transform="matrix(1.00, 0.00, -0.00, -1.00, 697.0, 438.7)">.</text><text xml:space="preserve" font-family="Helvetica,Helvetica" font-size="33.0" fill="#FEFFFE" transform="matrix(1.00, 0.00, -0.00, -1.00, 357.9, 398.7)">W</text><text xml:space="preserve" font-family="Helvetica,Helvetica" font-size="33.0" fill="#FEFFFE" transform="matrix(1.00, 0.00, -0.00, -1.00, 388.4, 398.7)">e</text><text xml:space="preserve" font-family="Helvetica,Helvetica" font-size="33.0" fill="#FEFFFE" transform="matrix(1.00, 0.00, -0.00, -1.00, 406.8, 398.7)"> </text><text xml:space="preserve" font-family="Helvetica,Helvetica" font-size="33.0" fill="#FEFFFE" transform="matrix(1.00, 0.00, -0.00, -1.00, 416.0, 398.7)">l</text><text xml:space="preserve" font-family="Helvetica,Helvetica" font-size="33.0" fill="#FEFFFE" transform="matrix(1.00, 0.00, -0.00, -1.00, 423.3, 398.7)">a</text><text xml:space="preserve" font-family="Helvetica,Helvetica" font-size="33.0" fill="#FEFFFE" transform="matrix(1.00, 0.00, -0.00, -1.00, 441.6, 398.7)">c</text><text xml:space="preserve" font-family="Helvetica,Helvetica" font-size="33.0" fill="#FEFFFE" transform="matrix(1.00, 0.00, -0.00, -1.00, 458.1, 398.7)">h</text><text xml:space="preserve" font-family="Helvetica,Helvetica" font-size="33.0" fill="#FEFFFE" transform="matrix(1.00, 0.00, -0.00, -1.00, 476.5, 398.7)">e</text><text xml:space="preserve" font-family="Helvetica,Helvetica" font-size="33.0" fill="#FEFFFE" transform="matrix(1.00, 0.00, -0.00, -1.00, 494.9, 398.7)">n</text><text xml:space="preserve" font-family="Helvetica,Helvetica" font-size="33.0" fill="#FEFFFE" transform="matrix(1.00, 0.00, -0.00, -1.00, 513.2, 398.7)">,</text><text xml:space="preserve" font-family="Helvetica,Helvetica" font-size="33.0" fill="#FEFFFE" transform="matrix(1.00, 0.00, -0.00, -1.00, 522.4, 398.7)"> </text><text xml:space="preserve" font-family="Helvetica,Helvetica" font-size="33.0" fill="#FEFFFE" transform="matrix(1.00, 0.00, -0.00, -1.00, 531.6, 398.7)">w</text><text xml:space="preserve" font-family="Helvetica,Helvetica" font-size="33.0" fill="#FEFFFE" transform="matrix(1.00, 0.00, -0.00, -1.00, 555.4, 398.7)">e</text><text xml:space="preserve" font-family="Helvetica,Helvetica" font-size="33.0" fill="#FEFFFE" transform="matrix(1.00, 0.00, -0.00, -1.00, 573.7, 398.7)"> </text><text xml:space="preserve" font-family="Helvetica,Helvetica" font-size="33.0" fill="#FEFFFE" transform="matrix(1.00, 0.00, -0.00, -1.00, 582.9, 398.7)">h</text><text xml:space="preserve" font-family="Helvetica,Helvetica" font-size="33.0" fill="#FEFFFE" transform="matrix(1.00, 0.00, -0.00, -1.00, 601.3, 398.7)">u</text><text xml:space="preserve" font-family="Helvetica,Helvetica" font-size="33.0" fill="#FEFFFE" transform="matrix(1.00, 0.00, -0.00, -1.00, 619.6, 398.7)">i</text><text xml:space="preserve" font-family="Helvetica,Helvetica" font-size="33.0" fill="#FEFFFE" transform="matrix(1.00, 0.00, -0.00, -1.00, 627.0, 398.7)">l</text><text xml:space="preserve" font-family="Helvetica,Helvetica" font-size="33.0" fill="#FEFFFE" transform="matrix(1.00, 0.00, -0.00, -1.00, 634.3, 398.7)">e</text><text xml:space="preserve" font-family="Helvetica,Helvetica" font-size="33.0" fill="#FEFFFE" transform="matrix(1.00, 0.00, -0.00, -1.00, 652.7, 398.7)">n</text><text xml:space="preserve" font-family="Helvetica,Helvetica" font-size="33.0" fill="#FEFFFE" transform="matrix(1.00, 0.00, -0.00, -1.00, 671.0, 398.7)">.</text><text xml:space="preserve" font-family="Helvetica,Helvetica" font-size="33.0" fill="#FEFFFE" transform="matrix(1.00, 0.00, -0.00, -1.00, 375.9, 358.7)">o</text><text xml:space="preserve" font-family="Helvetica,Helvetica" font-size="33.0" fill="#FEFFFE" transform="matrix(1.00, 0.00, -0.00, -1.00, 394.3, 358.7)">m</text><text xml:space="preserve" font-family="Helvetica,Helvetica" font-size="33.0" fill="#FEFFFE" transform="matrix(1.00, 0.00, -0.00, -1.00, 421.8, 358.7)"> </text><text xml:space="preserve" font-family="Helvetica,Helvetica" font-size="33.0" fill="#FEFFFE" transform="matrix(1.00, 0.00, -0.00, -1.00, 430.9, 358.7)">o</text><text xml:space="preserve" font-family="Helvetica,Helvetica" font-size="33.0" fill="#FEFFFE" transform="matrix(1.00, 0.00, -0.00, -1.00, 449.3, 358.7)">n</text><text xml:space="preserve" font-family="Helvetica,Helvetica" font-size="33.0" fill="#FEFFFE" transform="matrix(1.00, 0.00, -0.00, -1.00, 467.7, 358.7)">s</text><text xml:space="preserve" font-family="Helvetica,Helvetica" font-size="33.0" fill="#FEFFFE" transform="matrix(1.00, 0.00, -0.00, -1.00, 484.2, 358.7)">z</text><text xml:space="preserve" font-family="Helvetica,Helvetica" font-size="33.0" fill="#FEFFFE" transform="matrix(1.00, 0.00, -0.00, -1.00, 500.7, 358.7)">e</text><text xml:space="preserve" font-family="Helvetica,Helvetica" font-size="33.0" fill="#FEFFFE" transform="matrix(1.00, 0.00, -0.00, -1.00, 519.0, 358.7)">l</text><text xml:space="preserve" font-family="Helvetica,Helvetica" font-size="33.0" fill="#FEFFFE" transform="matrix(1.00, 0.00, -0.00, -1.00, 526.3, 358.7)">f</text><text xml:space="preserve" font-family="Helvetica,Helvetica" font-size="33.0" fill="#FEFFFE" transform="matrix(1.00, 0.00, -0.00, -1.00, 535.5, 358.7)"> </text><text xml:space="preserve" font-family="Helvetica,Helvetica" font-size="33.0" fill="#FEFFFE" transform="matrix(1.00, 0.00, -0.00, -1.00, 544.7, 358.7)">t</text><text xml:space="preserve" font-family="Helvetica,Helvetica" font-size="33.0" fill="#FEFFFE" transform="matrix(1.00, 0.00, -0.00, -1.00, 553.8, 358.7)">e</text><text xml:space="preserve" font-family="Helvetica,Helvetica" font-size="33.0" fill="#FEFFFE" transform="matrix(1.00, 0.00, -0.00, -1.00, 572.2, 358.7)"> </text><text xml:space="preserve" font-family="Helvetica,Helvetica" font-size="33.0" fill="#FEFFFE" transform="matrix(1.00, 0.00, -0.00, -1.00, 581.4, 358.7)">u</text><text xml:space="preserve" font-family="Helvetica,Helvetica" font-size="33.0" fill="#FEFFFE" transform="matrix(1.00, 0.00, -0.00, -1.00, 599.7, 358.7)">i</text><text xml:space="preserve" font-family="Helvetica,Helvetica" font-size="33.0" fill="#FEFFFE" transform="matrix(1.00, 0.00, -0.00, -1.00, 607.1, 358.7)">t</text><text xml:space="preserve" font-family="Helvetica,Helvetica" font-size="33.0" fill="#FEFFFE" transform="matrix(1.00, 0.00, -0.00, -1.00, 616.2, 358.7)">e</text><text xml:space="preserve" font-family="Helvetica,Helvetica" font-size="33.0" fill="#FEFFFE" transform="matrix(1.00, 0.00, -0.00, -1.00, 634.6, 358.7)">n</text><text xml:space="preserve" font-family="Helvetica,Helvetica" font-size="33.0" fill="#FEFFFE" transform="matrix(1.00, 0.00, -0.00, -1.00, 652.9, 358.7)">,</text><text xml:space="preserve" font-family="Helvetica,Helvetica" font-size="33.0" fill="#FEFFFE" transform="matrix(1.00, 0.00, -0.00, -1.00, 237.4, 318.7)">o</text><text xml:space="preserve" font-family="Helvetica,Helvetica" font-size="33.0" fill="#FEFFFE" transform="matrix(1.00, 0.00, -0.00, -1.00, 255.8, 318.7)">m</text><text xml:space="preserve" font-family="Helvetica,Helvetica" font-size="33.0" fill="#FEFFFE" transform="matrix(1.00, 0.00, -0.00, -1.00, 283.3, 318.7)"> </text><text xml:space="preserve" font-family="Helvetica,Helvetica" font-size="33.0" fill="#FEFFFE" transform="matrix(1.00, 0.00, -0.00, -1.00, 292.4, 318.7)">m</text><text xml:space="preserve" font-family="Helvetica,Helvetica" font-size="33.0" fill="#FEFFFE" transform="matrix(1.00, 0.00, -0.00, -1.00, 319.9, 318.7)">e</text><text xml:space="preserve" font-family="Helvetica,Helvetica" font-size="33.0" fill="#FEFFFE" transform="matrix(1.00, 0.00, -0.00, -1.00, 338.3, 318.7)">n</text><text xml:space="preserve" font-family="Helvetica,Helvetica" font-size="33.0" fill="#FEFFFE" transform="matrix(1.00, 0.00, -0.00, -1.00, 356.6, 318.7)">s</text><text xml:space="preserve" font-family="Helvetica,Helvetica" font-size="33.0" fill="#FEFFFE" transform="matrix(1.00, 0.00, -0.00, -1.00, 373.1, 318.7)">e</text><text xml:space="preserve" font-family="Helvetica,Helvetica" font-size="33.0" fill="#FEFFFE" transform="matrix(1.00, 0.00, -0.00, -1.00, 391.5, 318.7)">n</text><text xml:space="preserve" font-family="Helvetica,Helvetica" font-size="33.0" fill="#FEFFFE" transform="matrix(1.00, 0.00, -0.00, -1.00, 409.9, 318.7)"> </text><text xml:space="preserve" font-family="Helvetica,Helvetica" font-size="33.0" fill="#FEFFFE" transform="matrix(1.00, 0.00, -0.00, -1.00, 419.0, 318.7)">o</text><text xml:space="preserve" font-family="Helvetica,Helvetica" font-size="33.0" fill="#FEFFFE" transform="matrix(1.00, 0.00, -0.00, -1.00, 437.4, 318.7)">m</text><text xml:space="preserve" font-family="Helvetica,Helvetica" font-size="33.0" fill="#FEFFFE" transform="matrix(1.00, 0.00, -0.00, -1.00, 464.9, 318.7)"> </text><text xml:space="preserve" font-family="Helvetica,Helvetica" font-size="33.0" fill="#FEFFFE" transform="matrix(1.00, 0.00, -0.00, -1.00, 474.0, 318.7)">o</text><text xml:space="preserve" font-family="Helvetica,Helvetica" font-size="33.0" fill="#FEFFFE" transform="matrix(1.00, 0.00, -0.00, -1.00, 492.4, 318.7)">n</text><text xml:space="preserve" font-family="Helvetica,Helvetica" font-size="33.0" fill="#FEFFFE" transform="matrix(1.00, 0.00, -0.00, -1.00, 510.7, 318.7)">s</text><text xml:space="preserve" font-family="Helvetica,Helvetica" font-size="33.0" fill="#FEFFFE" transform="matrix(1.00, 0.00, -0.00, -1.00, 527.2, 318.7)"> </text><text xml:space="preserve" font-family="Helvetica,Helvetica" font-size="33.0" fill="#FEFFFE" transform="matrix(1.00, 0.00, -0.00, -1.00, 536.4, 318.7)">h</text><text xml:space="preserve" font-family="Helvetica,Helvetica" font-size="33.0" fill="#FEFFFE" transform="matrix(1.00, 0.00, -0.00, -1.00, 554.8, 318.7)">e</text><text xml:space="preserve" font-family="Helvetica,Helvetica" font-size="33.0" fill="#FEFFFE" transform="matrix(1.00, 0.00, -0.00, -1.00, 573.1, 318.7)">e</text><text xml:space="preserve" font-family="Helvetica,Helvetica" font-size="33.0" fill="#FEFFFE" transform="matrix(1.00, 0.00, -0.00, -1.00, 591.5, 318.7)">n</text><text xml:space="preserve" font-family="Helvetica,Helvetica" font-size="33.0" fill="#FEFFFE" transform="matrix(1.00, 0.00, -0.00, -1.00, 609.8, 318.7)"> </text><text xml:space="preserve" font-family="Helvetica,Helvetica" font-size="33.0" fill="#FEFFFE" transform="matrix(1.00, 0.00, -0.00, -1.00, 619.0, 318.7)">t</text><text xml:space="preserve" font-family="Helvetica,Helvetica" font-size="33.0" fill="#FEFFFE" transform="matrix(1.00, 0.00, -0.00, -1.00, 628.2, 318.7)">e</text><text xml:space="preserve" font-family="Helvetica,Helvetica" font-size="33.0" fill="#FEFFFE" transform="matrix(1.00, 0.00, -0.00, -1.00, 646.5, 318.7)"> </text><text xml:space="preserve" font-family="Helvetica,Helvetica" font-size="33.0" fill="#FEFFFE" transform="matrix(1.00, 0.00, -0.00, -1.00, 655.7, 318.7)">b</text><text xml:space="preserve" font-family="Helvetica,Helvetica" font-size="33.0" fill="#FEFFFE" transform="matrix(1.00, 0.00, -0.00, -1.00, 674.0, 318.7)">e</text><text xml:space="preserve" font-family="Helvetica,Helvetica" font-size="33.0" fill="#FEFFFE" transform="matrix(1.00, 0.00, -0.00, -1.00, 692.4, 318.7)">g</text><text xml:space="preserve" font-family="Helvetica,Helvetica" font-size="33.0" fill="#FEFFFE" transform="matrix(1.00, 0.00, -0.00, -1.00, 710.8, 318.7)">r</text><text xml:space="preserve" font-family="Helvetica,Helvetica" font-size="33.0" fill="#FEFFFE" transform="matrix(1.00, 0.00, -0.00, -1.00, 721.8, 318.7)">i</text><text xml:space="preserve" font-family="Helvetica,Helvetica" font-size="33.0" fill="#FEFFFE" transform="matrix(1.00, 0.00, -0.00, -1.00, 729.1, 318.7)">j</text><text xml:space="preserve" font-family="Helvetica,Helvetica" font-size="33.0" fill="#FEFFFE" transform="matrix(1.00, 0.00, -0.00, -1.00, 736.4, 318.7)">p</text><text xml:space="preserve" font-family="Helvetica,Helvetica" font-size="33.0" fill="#FEFFFE" transform="matrix(1.00, 0.00, -0.00, -1.00, 754.8, 318.7)">e</text><text xml:space="preserve" font-family="Helvetica,Helvetica" font-size="33.0" fill="#FEFFFE" transform="matrix(1.00, 0.00, -0.00, -1.00, 773.2, 318.7)">n</text><text xml:space="preserve" font-family="Helvetica,Helvetica" font-size="33.0" fill="#FEFFFE" transform="matrix(1.00, 0.00, -0.00, -1.00, 791.5, 318.7)">.</text><text xml:space="preserve" font-family="Helvetica,Helvetica" font-size="33.0" fill="#FEFFFE" transform="matrix(1.00, 0.00, -0.00, -1.00, 229.1, 278.7)">o</text><text xml:space="preserve" font-family="Helvetica,Helvetica" font-size="33.0" fill="#FEFFFE" transform="matrix(1.00, 0.00, -0.00, -1.00, 247.5, 278.7)">m</text><text xml:space="preserve" font-family="Helvetica,Helvetica" font-size="33.0" fill="#FEFFFE" transform="matrix(1.00, 0.00, -0.00, -1.00, 275.0, 278.7)"> </text><text xml:space="preserve" font-family="Helvetica,Helvetica" font-size="33.0" fill="#FEFFFE" transform="matrix(1.00, 0.00, -0.00, -1.00, 284.1, 278.7)">t</text><text xml:space="preserve" font-family="Helvetica,Helvetica" font-size="33.0" fill="#FEFFFE" transform="matrix(1.00, 0.00, -0.00, -1.00, 293.3, 278.7)">e</text><text xml:space="preserve" font-family="Helvetica,Helvetica" font-size="33.0" fill="#FEFFFE" transform="matrix(1.00, 0.00, -0.00, -1.00, 311.7, 278.7)"> </text><text xml:space="preserve" font-family="Helvetica,Helvetica" font-size="33.0" fill="#FEFFFE" transform="matrix(1.00, 0.00, -0.00, -1.00, 320.8, 278.7)">h</text><text xml:space="preserve" font-family="Helvetica,Helvetica" font-size="33.0" fill="#FEFFFE" transform="matrix(1.00, 0.00, -0.00, -1.00, 339.2, 278.7)">o</text><text xml:space="preserve" font-family="Helvetica,Helvetica" font-size="33.0" fill="#FEFFFE" transform="matrix(1.00, 0.00, -0.00, -1.00, 357.5, 278.7)">u</text><text xml:space="preserve" font-family="Helvetica,Helvetica" font-size="33.0" fill="#FEFFFE" transform="matrix(1.00, 0.00, -0.00, -1.00, 375.9, 278.7)">d</text><text xml:space="preserve" font-family="Helvetica,Helvetica" font-size="33.0" fill="#FEFFFE" transform="matrix(1.00, 0.00, -0.00, -1.00, 394.3, 278.7)">e</text><text xml:space="preserve" font-family="Helvetica,Helvetica" font-size="33.0" fill="#FEFFFE" transform="matrix(1.00, 0.00, -0.00, -1.00, 412.6, 278.7)">n</text><text xml:space="preserve" font-family="Helvetica,Helvetica" font-size="33.0" fill="#FEFFFE" transform="matrix(1.00, 0.00, -0.00, -1.00, 431.0, 278.7)"> </text><text xml:space="preserve" font-family="Helvetica,Helvetica" font-size="33.0" fill="#FEFFFE" transform="matrix(1.00, 0.00, -0.00, -1.00, 440.1, 278.7)">v</text><text xml:space="preserve" font-family="Helvetica,Helvetica" font-size="33.0" fill="#FEFFFE" transform="matrix(1.00, 0.00, -0.00, -1.00, 456.6, 278.7)">a</text><text xml:space="preserve" font-family="Helvetica,Helvetica" font-size="33.0" fill="#FEFFFE" transform="matrix(1.00, 0.00, -0.00, -1.00, 475.0, 278.7)">n</text><text xml:space="preserve" font-family="Helvetica,Helvetica" font-size="33.0" fill="#FEFFFE" transform="matrix(1.00, 0.00, -0.00, -1.00, 493.4, 278.7)"> </text><text xml:space="preserve" font-family="Helvetica,Helvetica" font-size="33.0" fill="#FEFFFE" transform="matrix(1.00, 0.00, -0.00, -1.00, 502.5, 278.7)">e</text><text xml:space="preserve" font-family="Helvetica,Helvetica" font-size="33.0" fill="#FEFFFE" transform="matrix(1.00, 0.00, -0.00, -1.00, 520.9, 278.7)">n</text><text xml:space="preserve" font-family="Helvetica,Helvetica" font-size="33.0" fill="#FEFFFE" transform="matrix(1.00, 0.00, -0.00, -1.00, 539.2, 278.7)"> </text><text xml:space="preserve" font-family="Helvetica,Helvetica" font-size="33.0" fill="#FEFFFE" transform="matrix(1.00, 0.00, -0.00, -1.00, 548.4, 278.7)">g</text><text xml:space="preserve" font-family="Helvetica,Helvetica" font-size="33.0" fill="#FEFFFE" transform="matrix(1.00, 0.00, -0.00, -1.00, 566.8, 278.7)">e</text><text xml:space="preserve" font-family="Helvetica,Helvetica" font-size="33.0" fill="#FEFFFE" transform="matrix(1.00, 0.00, -0.00, -1.00, 585.1, 278.7)">l</text><text xml:space="preserve" font-family="Helvetica,Helvetica" font-size="33.0" fill="#FEFFFE" transform="matrix(1.00, 0.00, -0.00, -1.00, 592.5, 278.7)">i</text><text xml:space="preserve" font-family="Helvetica,Helvetica" font-size="33.0" fill="#FEFFFE" transform="matrix(1.00, 0.00, -0.00, -1.00, 599.8, 278.7)">e</text><text xml:space="preserve" font-family="Helvetica,Helvetica" font-size="33.0" fill="#FEFFFE" transform="matrix(1.00, 0.00, -0.00, -1.00, 618.2, 278.7)">f</text><text xml:space="preserve" font-family="Helvetica,Helvetica" font-size="33.0" fill="#FEFFFE" transform="matrix(1.00, 0.00, -0.00, -1.00, 627.3, 278.7)">d</text><text xml:space="preserve" font-family="Helvetica,Helvetica" font-size="33.0" fill="#FEFFFE" transform="matrix(1.00, 0.00, -0.00, -1.00, 645.7, 278.7)"> </text><text xml:space="preserve" font-family="Helvetica,Helvetica" font-size="33.0" fill="#FEFFFE" transform="matrix(1.00, 0.00, -0.00, -1.00, 654.8, 278.7)">t</text><text xml:space="preserve" font-family="Helvetica,Helvetica" font-size="33.0" fill="#FEFFFE" transform="matrix(1.00, 0.00, -0.00, -1.00, 664.0, 278.7)">e</text><text xml:space="preserve" font-family="Helvetica,Helvetica" font-size="33.0" fill="#FEFFFE" transform="matrix(1.00, 0.00, -0.00, -1.00, 682.4, 278.7)"> </text><text xml:space="preserve" font-family="Helvetica,Helvetica" font-size="33.0" fill="#FEFFFE" transform="matrix(1.00, 0.00, -0.00, -1.00, 691.5, 278.7)">w</text><text xml:space="preserve" font-family="Helvetica,Helvetica" font-size="33.0" fill="#FEFFFE" transform="matrix(1.00, 0.00, -0.00, -1.00, 715.4, 278.7)">o</text><text xml:space="preserve" font-family="Helvetica,Helvetica" font-size="33.0" fill="#FEFFFE" transform="matrix(1.00, 0.00, -0.00, -1.00, 733.7, 278.7)">r</text><text xml:space="preserve" font-family="Helvetica,Helvetica" font-size="33.0" fill="#FEFFFE" transform="matrix(1.00, 0.00, -0.00, -1.00, 744.7, 278.7)">d</text><text xml:space="preserve" font-family="Helvetica,Helvetica" font-size="33.0" fill="#FEFFFE" transform="matrix(1.00, 0.00, -0.00, -1.00, 763.1, 278.7)">e</text><text xml:space="preserve" font-family="Helvetica,Helvetica" font-size="33.0" fill="#FEFFFE" transform="matrix(1.00, 0.00, -0.00, -1.00, 781.4, 278.7)">n</text><text xml:space="preserve" font-family="Helvetica,Helvetica" font-size="33.0" fill="#FEFFFE" transform="matrix(1.00, 0.00, -0.00, -1.00, 799.8, 278.7)">.</text></g></g></g></svg>