<?xml version="1.0" encoding="UTF-8" standalone="no"?><svg xmlns="http://www.w3.org/2000/svg" xmlns:xlink="http://www.w3.org/1999/xlink" clip-rule="evenodd" stroke-miterlimit="10" viewBox="0 0 1038 768"><desc>SVG generated by Keynote</desc><defs></defs><g transform="matrix(1.00, 0.00, -0.00, -1.00, 0.0, 768.0)"><image xlink:href="BEC3BDD6EEAE4AD67C7506899F6D824A.png" width="1036.00" height="760.00" transform="matrix(1.00, 0.00, -0.00, -1.00, 1.2, 762.1)" opacity="0.50"></image><path d="M 4.0 761.0 L 1034.0 761.0 L 1034.0 7.0 L 4.0 7.0 Z M 4.2 761.1 " fill="#000000"></path><g><clipPath id="clip0x610002cb9020"><path d="M -6.3 6.9 L 1044.3 6.9 L 1044.3 761.1 L -6.3 761.1 Z M -6.3 6.9 "></path></clipPath><g clip-path="url(#clip0x610002cb9020)"><text xml:space="preserve" font-family="Helvetica-Light,Helvetica" font-size="58.0" fill="#FEFFFE" transform="matrix(1.00, 0.00, -0.00, -1.00, 361.1, 362.4)">-</text><text xml:space="preserve" font-family="Helvetica-Light,Helvetica" font-size="58.0" fill="#FEFFFE" transform="matrix(1.00, 0.00, -0.00, -1.00, 380.4, 362.4)"> </text><text xml:space="preserve" font-family="Helvetica-Light,Helvetica" font-size="58.0" fill="#FEFFFE" transform="matrix(1.00, 0.00, -0.00, -1.00, 396.6, 362.4)">T</text><text xml:space="preserve" font-family="Helvetica-Light,Helvetica" font-size="58.0" fill="#FEFFFE" transform="matrix(1.00, 0.00, -0.00, -1.00, 428.8, 362.4)">H</text><text xml:space="preserve" font-family="Helvetica-Light,Helvetica" font-size="58.0" fill="#FEFFFE" transform="matrix(1.00, 0.00, -0.00, -1.00, 470.7, 362.4)">E</text><text xml:space="preserve" font-family="Helvetica-Light,Helvetica" font-size="58.0" fill="#FEFFFE" transform="matrix(1.00, 0.00, -0.00, -1.00, 506.1, 362.4)"> </text><text xml:space="preserve" font-family="Helvetica-Light,Helvetica" font-size="58.0" fill="#FEFFFE" transform="matrix(1.00, 0.00, -0.00, -1.00, 522.2, 362.4)">E</text><text xml:space="preserve" font-family="Helvetica-Light,Helvetica" font-size="58.0" fill="#FEFFFE" transform="matrix(1.00, 0.00, -0.00, -1.00, 557.7, 362.4)">N</text><text xml:space="preserve" font-family="Helvetica-Light,Helvetica" font-size="58.0" fill="#FEFFFE" transform="matrix(1.00, 0.00, -0.00, -1.00, 599.6, 362.4)">D</text><text xml:space="preserve" font-family="Helvetica-Light,Helvetica" font-size="58.0" fill="#FEFFFE" transform="matrix(1.00, 0.00, -0.00, -1.00, 641.4, 362.4)"> </text><text xml:space="preserve" font-family="Helvetica-Light,Helvetica" font-size="58.0" fill="#FEFFFE" transform="matrix(1.00, 0.00, -0.00, -1.00, 657.6, 362.4)">-</text><text xml:space="preserve" font-family="Helvetica-Light,Helvetica" font-size="58.0" fill="#FEFFFE" transform="matrix(1.00, 0.00, -0.00, -1.00, 676.9, 362.4)"> </text></g></g></g></svg>