<?xml version="1.0" encoding="UTF-8" standalone="no"?><svg xmlns="http://www.w3.org/2000/svg" xmlns:xlink="http://www.w3.org/1999/xlink" clip-rule="evenodd" stroke-miterlimit="10" viewBox="0 0 1024 768"><desc>SVG generated by Keynote</desc><defs></defs><g transform="matrix(1.00, 0.00, -0.00, -1.00, 0.0, 768.0)"><path d="M 0.0 768.0 L 1024.0 768.0 L 1024.0 0.0 L 0.0 0.0 Z M 0.0 768.0 " fill="#164E86"></path><g><clipPath id="clip0x600003ab8540"><path d="M 0.0 770.0 L 1024.0 770.0 L 1024.0 -2.0 L 0.0 -2.0 Z M -0.1 770.5 "></path></clipPath><g clip-path="url(#clip0x600003ab8540)"><image xlink:href="../../9E8F32BC-9589-436B-8D50-A1D9D0F5E178/assets/ECC3D887976EB14B3030A5A5497A08FD.png" width="1024.00" height="768.00" transform="matrix(1.32, 0.00, -0.00, -1.32, -0.1, 770.5)"></image></g></g><image xlink:href="../../9E8F32BC-9589-436B-8D50-A1D9D0F5E178/assets/D60E6628A59BF883939E8BB37E500906.png" width="890.00" height="578.00" transform="matrix(1.00, 0.00, -0.00, -1.00, 67.2, 649.8)" opacity="0.50"></image><path d="M 70.2 137.6 L 70.0 588.0 C 70.0 621.6 97.5 649.0 131.1 649.0 L 892.9 649.0 C 926.5 649.0 954.0 621.6 954.0 588.0 L 954.0 137.6 C 954.0 104.0 926.5 77.0 892.9 77.0 L 131.1 77.0 C 97.5 77.0 70.2 104.0 70.2 137.6 Z M 70.2 137.6 " fill="#F3EAD1"></path><g><clipPath id="clip0x610002ab8ae0"><path d="M 316.2 634.3 L 707.8 634.3 L 707.8 662.1 L 316.2 662.1 Z M 316.2 634.3 "></path></clipPath><g clip-path="url(#clip0x610002ab8ae0)"><path d="M 317.2 648.2 L 317.2 648.2 C 317.2 655.3 322.9 661.0 330.0 661.0 L 694.0 661.0 C 701.1 661.0 706.8 655.3 706.8 648.2 L 706.8 648.2 C 706.8 641.1 701.1 635.0 694.0 635.0 L 330.0 635.0 C 322.9 635.0 317.2 641.1 317.2 648.2 Z M 317.2 648.2 " fill="#F5D327"></path></g></g><g><clipPath id="clip0x610002ab8d20"><path d="M 331.6 610.7 L 692.4 610.7 L 692.4 685.7 L 331.6 685.7 Z M 331.6 610.7 "></path></clipPath><g clip-path="url(#clip0x610002ab8d20)"><path d="M 335.5 645.0 L 335.5 651.4 C 335.5 668.4 348.8 682.5 365.8 682.5 L 658.2 682.5 C 675.2 682.5 688.5 668.4 688.5 651.4 L 688.5 644.9 C 688.5 627.9 675.2 614.5 658.2 614.5 L 365.8 614.5 C 348.8 614.5 335.5 628.0 335.5 645.0 Z M 335.1 644.9 " fill="#F38F18"></path><path d="M 0.4 37.2 L 0.4 30.8 C 0.4 13.8 13.8 -0.3 30.8 -0.3 L 323.1 -0.3 C 340.1 -0.3 353.4 13.8 353.4 30.8 L 353.4 37.3 C 353.4 54.3 340.1 67.7 323.1 67.7 L 30.8 67.7 C 13.8 67.7 0.4 54.2 0.4 37.2 Z M 0.0 37.3 " fill="none" stroke="#F5D327" stroke-width="5.00" transform="matrix(1.00, 0.00, 0.00, -1.00, 335.1, 682.2)"></path></g></g><g><clipPath id="clip0x610002ab9020"><path d="M 690.4 644.2 L 698.4 644.2 L 698.4 652.2 L 690.4 652.2 Z M 690.4 644.2 "></path></clipPath><g clip-path="url(#clip0x610002ab9020)"><path d="M 696.5 650.3 C 697.7 649.1 697.7 647.2 696.5 646.1 C 695.4 644.9 693.5 644.9 692.3 646.1 C 691.1 647.2 691.1 649.1 692.3 650.3 C 693.5 651.5 695.4 651.5 696.5 650.3 Z M 696.5 650.3 " fill="#F38F18"></path></g></g><g><clipPath id="clip0x610002ab9260"><path d="M 323.6 644.2 L 331.6 644.2 L 331.6 652.2 L 323.6 652.2 Z M 323.6 644.2 "></path></clipPath><g clip-path="url(#clip0x610002ab9260)"><path d="M 329.7 650.3 C 330.9 649.1 330.9 647.2 329.7 646.1 C 328.5 644.9 326.6 644.9 325.5 646.1 C 324.3 647.2 324.3 649.1 325.5 650.3 C 326.6 651.5 328.5 651.5 329.7 650.3 Z M 329.7 650.3 " fill="#F38F18"></path></g></g><g><clipPath id="clip0x610002ab94a0"><path d="M 447.3 614.1 L 576.7 614.1 L 576.7 675.1 L 447.3 675.1 Z M 447.3 614.1 "></path></clipPath><g clip-path="url(#clip0x610002ab94a0)"><text xml:space="preserve" font-family="HoboStd,Hobo Std" font-size="36.0" fill="#FEFFFE" transform="matrix(1.00, 0.00, -0.00, -1.00, 456.8, 635.6)">R</text><text xml:space="preserve" font-family="HoboStd,Hobo Std" font-size="36.0" fill="#FEFFFE" transform="matrix(1.00, 0.00, -0.00, -1.00, 480.7, 635.6)">E</text><text xml:space="preserve" font-family="HoboStd,Hobo Std" font-size="36.0" fill="#FEFFFE" transform="matrix(1.00, 0.00, -0.00, -1.00, 502.2, 635.6)">G</text><text xml:space="preserve" font-family="HoboStd,Hobo Std" font-size="36.0" fill="#FEFFFE" transform="matrix(1.00, 0.00, -0.00, -1.00, 525.9, 635.6)">E</text><text xml:space="preserve" font-family="HoboStd,Hobo Std" font-size="36.0" fill="#FEFFFE" transform="matrix(1.00, 0.00, -0.00, -1.00, 547.4, 635.6)">L</text></g></g><g><clipPath id="clip0x610002ab9860"><path d="M 867.1 590.2 L 967.6 590.2 L 967.6 690.7 L 867.1 690.7 Z M 867.1 590.2 "></path></clipPath><g clip-path="url(#clip0x610002ab9860)"><image xlink:href="../../9E8F32BC-9589-436B-8D50-A1D9D0F5E178/assets/6A4F360583B4BE13BC866AD30E7BF04D.png" width="99.00" height="99.00" transform="matrix(1.00, 0.00, -0.00, -1.00, 868.1, 689.7)" opacity="0.50"></image><path d="M 950.1 675.2 C 968.1 657.1 968.1 627.8 950.1 609.7 C 932.0 591.7 902.7 591.7 884.6 609.7 C 866.5 627.8 866.5 657.1 884.6 675.2 C 902.7 693.3 932.0 693.3 950.1 675.2 Z M 950.1 675.2 " fill="#C82505"></path></g></g><g><clipPath id="clip0x608002cb3ce0"><path d="M 892.5 622.6 L 937.2 667.3 L 942.2 662.3 L 897.5 617.6 Z M 892.5 622.6 "></path></clipPath><g clip-path="url(#clip0x608002cb3ce0)"><path d="M 0.0 0.0 L 61.2 0.0 " fill="none" stroke="#FEFFFE" stroke-width="5.00" transform="matrix(0.71, 0.71, 0.71, -0.71, 895.7, 620.8)"></path></g></g><g><clipPath id="clip0x608002cb3f20"><path d="M 937.2 617.6 L 892.5 662.3 L 897.5 667.3 L 942.2 622.6 Z M 937.2 617.6 "></path></clipPath><g clip-path="url(#clip0x608002cb3f20)"><path d="M 0.0 0.0 L 61.2 0.0 " fill="none" stroke="#FEFFFE" stroke-width="5.00" transform="matrix(-0.71, 0.71, 0.71, 0.71, 939.0, 620.8)"></path></g></g><text xml:space="preserve" font-family="Helvetica-Bold,Helvetica" font-weight="bold" font-size="45.0" fill="#000000" transform="matrix(1.00, 0.00, -0.00, -1.00, 491.6, 409.0)">G</text><text xml:space="preserve" font-family="Helvetica-Bold,Helvetica" font-weight="bold" font-size="45.0" fill="#000000" transform="matrix(1.00, 0.00, -0.00, -1.00, 526.6, 409.0)">e</text><text xml:space="preserve" font-family="Helvetica-Bold,Helvetica" font-weight="bold" font-size="45.0" fill="#000000" transform="matrix(1.00, 0.00, -0.00, -1.00, 551.6, 409.0)">b</text><text xml:space="preserve" font-family="Helvetica-Bold,Helvetica" font-weight="bold" font-size="45.0" fill="#000000" transform="matrix(1.00, 0.00, -0.00, -1.00, 579.1, 409.0)">r</text><text xml:space="preserve" font-family="Helvetica-Bold,Helvetica" font-weight="bold" font-size="45.0" fill="#000000" transform="matrix(1.00, 0.00, -0.00, -1.00, 596.6, 409.0)">u</text><text xml:space="preserve" font-family="Helvetica-Bold,Helvetica" font-weight="bold" font-size="45.0" fill="#000000" transform="matrix(1.00, 0.00, -0.00, -1.00, 624.0, 409.0)">i</text><text xml:space="preserve" font-family="Helvetica-Bold,Helvetica" font-weight="bold" font-size="45.0" fill="#000000" transform="matrix(1.00, 0.00, -0.00, -1.00, 636.5, 409.0)">k</text><text xml:space="preserve" font-family="Helvetica-Bold,Helvetica" font-weight="bold" font-size="45.0" fill="#000000" transform="matrix(1.00, 0.00, -0.00, -1.00, 661.6, 409.0)"> </text><text xml:space="preserve" font-family="Helvetica-Bold,Helvetica" font-weight="bold" font-size="45.0" fill="#000000" transform="matrix(1.00, 0.00, -0.00, -1.00, 674.1, 409.0)">n</text><text xml:space="preserve" font-family="Helvetica-Bold,Helvetica" font-weight="bold" font-size="45.0" fill="#000000" transform="matrix(1.00, 0.00, -0.00, -1.00, 701.5, 409.0)">u</text><text xml:space="preserve" font-family="Helvetica-Bold,Helvetica" font-weight="bold" font-size="45.0" fill="#000000" transform="matrix(1.00, 0.00, -0.00, -1.00, 729.0, 409.0)"> </text><text xml:space="preserve" font-family="Helvetica-Bold,Helvetica" font-weight="bold" font-size="45.0" fill="#000000" transform="matrix(1.00, 0.00, -0.00, -1.00, 741.5, 409.0)">d</text><text xml:space="preserve" font-family="Helvetica-Bold,Helvetica" font-weight="bold" font-size="45.0" fill="#000000" transform="matrix(1.00, 0.00, -0.00, -1.00, 769.0, 409.0)">e</text><text xml:space="preserve" font-family="Helvetica-Bold,Helvetica" font-weight="bold" font-size="45.0" fill="#000000" transform="matrix(1.00, 0.00, -0.00, -1.00, 794.0, 409.0)"> </text><text xml:space="preserve" font-family="Helvetica-Bold,Helvetica" font-weight="bold" font-size="45.0" fill="#6FBF40" transform="matrix(1.00, 0.00, -0.00, -1.00, 806.6, 409.0)">i</text><text xml:space="preserve" font-family="Helvetica-Bold,Helvetica" font-weight="bold" font-size="45.0" fill="#6FBF40" transform="matrix(1.00, 0.00, -0.00, -1.00, 819.1, 409.0)">P</text><text xml:space="preserve" font-family="Helvetica-Bold,Helvetica" font-weight="bold" font-size="45.0" fill="#6FBF40" transform="matrix(1.00, 0.00, -0.00, -1.00, 849.1, 409.0)">a</text><text xml:space="preserve" font-family="Helvetica-Bold,Helvetica" font-weight="bold" font-size="45.0" fill="#6FBF40" transform="matrix(1.00, 0.00, -0.00, -1.00, 874.2, 409.0)">d</text><text xml:space="preserve" font-family="Helvetica-Bold,Helvetica" font-weight="bold" font-size="45.0" fill="#6FBF40" transform="matrix(1.00, 0.00, -0.00, -1.00, 901.6, 409.0)"> </text><text xml:space="preserve" font-family="Helvetica-Bold,Helvetica" font-weight="bold" font-size="45.0" fill="#000000" transform="matrix(1.00, 0.00, -0.00, -1.00, 491.6, 355.0)">n</text><text xml:space="preserve" font-family="Helvetica-Bold,Helvetica" font-weight="bold" font-size="45.0" fill="#000000" transform="matrix(1.00, 0.00, -0.00, -1.00, 519.1, 355.0)">a</text><text xml:space="preserve" font-family="Helvetica-Bold,Helvetica" font-weight="bold" font-size="45.0" fill="#000000" transform="matrix(1.00, 0.00, -0.00, -1.00, 544.1, 355.0)">a</text><text xml:space="preserve" font-family="Helvetica-Bold,Helvetica" font-weight="bold" font-size="45.0" fill="#000000" transform="matrix(1.00, 0.00, -0.00, -1.00, 569.1, 355.0)">s</text><text xml:space="preserve" font-family="Helvetica-Bold,Helvetica" font-weight="bold" font-size="45.0" fill="#000000" transform="matrix(1.00, 0.00, -0.00, -1.00, 594.2, 355.0)">t</text><text xml:space="preserve" font-family="Helvetica-Bold,Helvetica" font-weight="bold" font-size="45.0" fill="#000000" transform="matrix(1.00, 0.00, -0.00, -1.00, 609.1, 355.0)"> </text><text xml:space="preserve" font-family="Helvetica-Bold,Helvetica" font-weight="bold" font-size="45.0" fill="#000000" transform="matrix(1.00, 0.00, -0.00, -1.00, 621.6, 355.0)">j</text><text xml:space="preserve" font-family="Helvetica-Bold,Helvetica" font-weight="bold" font-size="45.0" fill="#000000" transform="matrix(1.00, 0.00, -0.00, -1.00, 634.1, 355.0)">e</text><text xml:space="preserve" font-family="Helvetica-Bold,Helvetica" font-weight="bold" font-size="45.0" fill="#000000" transform="matrix(1.00, 0.00, -0.00, -1.00, 659.2, 355.0)"> </text><text xml:space="preserve" font-family="Helvetica-Bold,Helvetica" font-weight="bold" font-size="45.0" fill="#000000" transform="matrix(1.00, 0.00, -0.00, -1.00, 671.7, 355.0)">e</text><text xml:space="preserve" font-family="Helvetica-Bold,Helvetica" font-weight="bold" font-size="45.0" fill="#000000" transform="matrix(1.00, 0.00, -0.00, -1.00, 696.7, 355.0)">n</text><text xml:space="preserve" font-family="Helvetica-Bold,Helvetica" font-weight="bold" font-size="45.0" fill="#000000" transform="matrix(1.00, 0.00, -0.00, -1.00, 724.2, 355.0)"> </text><text xml:space="preserve" font-family="Helvetica-Bold,Helvetica" font-weight="bold" font-size="45.0" fill="#000000" transform="matrix(1.00, 0.00, -0.00, -1.00, 736.7, 355.0)">v</text><text xml:space="preserve" font-family="Helvetica-Bold,Helvetica" font-weight="bold" font-size="45.0" fill="#000000" transform="matrix(1.00, 0.00, -0.00, -1.00, 761.7, 355.0)">e</text><text xml:space="preserve" font-family="Helvetica-Bold,Helvetica" font-weight="bold" font-size="45.0" fill="#000000" transform="matrix(1.00, 0.00, -0.00, -1.00, 786.7, 355.0)">r</text><text xml:space="preserve" font-family="Helvetica-Bold,Helvetica" font-weight="bold" font-size="45.0" fill="#000000" transform="matrix(1.00, 0.00, -0.00, -1.00, 804.3, 355.0)">z</text><text xml:space="preserve" font-family="Helvetica-Bold,Helvetica" font-weight="bold" font-size="45.0" fill="#000000" transform="matrix(1.00, 0.00, -0.00, -1.00, 826.8, 355.0)">a</text><text xml:space="preserve" font-family="Helvetica-Bold,Helvetica" font-weight="bold" font-size="45.0" fill="#000000" transform="matrix(1.00, 0.00, -0.00, -1.00, 851.8, 355.0)">m</text><text xml:space="preserve" font-family="Helvetica-Bold,Helvetica" font-weight="bold" font-size="45.0" fill="#000000" transform="matrix(1.00, 0.00, -0.00, -1.00, 891.8, 355.0)">e</text><text xml:space="preserve" font-family="Helvetica-Bold,Helvetica" font-weight="bold" font-size="45.0" fill="#000000" transform="matrix(1.00, 0.00, -0.00, -1.00, 916.9, 355.0)">l</text><text xml:space="preserve" font-family="Helvetica-Bold,Helvetica" font-weight="bold" font-size="45.0" fill="#000000" transform="matrix(1.00, 0.00, -0.00, -1.00, 929.4, 355.0)"> </text><text xml:space="preserve" font-family="Helvetica-Bold,Helvetica" font-weight="bold" font-size="45.0" fill="#000000" transform="matrix(1.00, 0.00, -0.00, -1.00, 491.6, 301.0)">d</text><text xml:space="preserve" font-family="Helvetica-Bold,Helvetica" font-weight="bold" font-size="45.0" fill="#000000" transform="matrix(1.00, 0.00, -0.00, -1.00, 519.1, 301.0)">r</text><text xml:space="preserve" font-family="Helvetica-Bold,Helvetica" font-weight="bold" font-size="45.0" fill="#000000" transform="matrix(1.00, 0.00, -0.00, -1.00, 536.6, 301.0)">i</text><text xml:space="preserve" font-family="Helvetica-Bold,Helvetica" font-weight="bold" font-size="45.0" fill="#000000" transform="matrix(1.00, 0.00, -0.00, -1.00, 549.1, 301.0)">e</text><text xml:space="preserve" font-family="Helvetica-Bold,Helvetica" font-weight="bold" font-size="45.0" fill="#000000" transform="matrix(1.00, 0.00, -0.00, -1.00, 574.1, 301.0)"> </text><text xml:space="preserve" font-family="Helvetica-Bold,Helvetica" font-weight="bold" font-size="45.0" fill="#EB5C56" transform="matrix(1.00, 0.00, -0.00, -1.00, 586.6, 301.0)">g</text><text xml:space="preserve" font-family="Helvetica-Bold,Helvetica" font-weight="bold" font-size="45.0" fill="#EB5C56" transform="matrix(1.00, 0.00, -0.00, -1.00, 614.1, 301.0)">l</text><text xml:space="preserve" font-family="Helvetica-Bold,Helvetica" font-weight="bold" font-size="45.0" fill="#EB5C56" transform="matrix(1.00, 0.00, -0.00, -1.00, 626.6, 301.0)">i</text><text xml:space="preserve" font-family="Helvetica-Bold,Helvetica" font-weight="bold" font-size="45.0" fill="#EB5C56" transform="matrix(1.00, 0.00, -0.00, -1.00, 639.1, 301.0)">m</text><text xml:space="preserve" font-family="Helvetica-Bold,Helvetica" font-weight="bold" font-size="45.0" fill="#EB5C56" transform="matrix(1.00, 0.00, -0.00, -1.00, 679.1, 301.0)">l</text><text xml:space="preserve" font-family="Helvetica-Bold,Helvetica" font-weight="bold" font-size="45.0" fill="#EB5C56" transform="matrix(1.00, 0.00, -0.00, -1.00, 691.6, 301.0)">a</text><text xml:space="preserve" font-family="Helvetica-Bold,Helvetica" font-weight="bold" font-size="45.0" fill="#EB5C56" transform="matrix(1.00, 0.00, -0.00, -1.00, 716.6, 301.0)">c</text><text xml:space="preserve" font-family="Helvetica-Bold,Helvetica" font-weight="bold" font-size="45.0" fill="#EB5C56" transform="matrix(1.00, 0.00, -0.00, -1.00, 741.6, 301.0)">h</text><text xml:space="preserve" font-family="Helvetica-Bold,Helvetica" font-weight="bold" font-size="45.0" fill="#EB5C56" transform="matrix(1.00, 0.00, -0.00, -1.00, 769.1, 301.0)">e</text><text xml:space="preserve" font-family="Helvetica-Bold,Helvetica" font-weight="bold" font-size="45.0" fill="#EB5C56" transform="matrix(1.00, 0.00, -0.00, -1.00, 794.1, 301.0)">n</text><text xml:space="preserve" font-family="Helvetica-Bold,Helvetica" font-weight="bold" font-size="45.0" fill="#000000" transform="matrix(1.00, 0.00, -0.00, -1.00, 821.7, 301.0)"> </text><text xml:space="preserve" font-family="Helvetica-Bold,Helvetica" font-weight="bold" font-size="45.0" fill="#000000" transform="matrix(1.00, 0.00, -0.00, -1.00, 834.2, 301.0)">d</text><text xml:space="preserve" font-family="Helvetica-Bold,Helvetica" font-weight="bold" font-size="45.0" fill="#000000" transform="matrix(1.00, 0.00, -0.00, -1.00, 861.6, 301.0)">o</text><text xml:space="preserve" font-family="Helvetica-Bold,Helvetica" font-weight="bold" font-size="45.0" fill="#000000" transform="matrix(1.00, 0.00, -0.00, -1.00, 889.1, 301.0)">o</text><text xml:space="preserve" font-family="Helvetica-Bold,Helvetica" font-weight="bold" font-size="45.0" fill="#000000" transform="matrix(1.00, 0.00, -0.00, -1.00, 916.6, 301.0)">r</text><text xml:space="preserve" font-family="Helvetica-Bold,Helvetica" font-weight="bold" font-size="45.0" fill="#000000" transform="matrix(1.00, 0.00, -0.00, -1.00, 934.1, 301.0)"> </text><text xml:space="preserve" font-family="Helvetica-Bold,Helvetica" font-weight="bold" font-size="45.0" fill="#000000" transform="matrix(1.00, 0.00, -0.00, -1.00, 491.6, 247.0)">f</text><text xml:space="preserve" font-family="Helvetica-Bold,Helvetica" font-weight="bold" font-size="45.0" fill="#000000" transform="matrix(1.00, 0.00, -0.00, -1.00, 506.6, 247.0)">o</text><text xml:space="preserve" font-family="Helvetica-Bold,Helvetica" font-weight="bold" font-size="45.0" fill="#000000" transform="matrix(1.00, 0.00, -0.00, -1.00, 534.0, 247.0)">t</text><text xml:space="preserve" font-family="Helvetica-Bold,Helvetica" font-weight="bold" font-size="45.0" fill="#000000" transform="matrix(1.00, 0.00, -0.00, -1.00, 549.0, 247.0)">o</text><text xml:space="preserve" font-family="Helvetica-Bold,Helvetica" font-weight="bold" font-size="45.0" fill="#000000" transform="matrix(1.00, 0.00, -0.00, -1.00, 576.5, 247.0)">'</text><text xml:space="preserve" font-family="Helvetica-Bold,Helvetica" font-weight="bold" font-size="45.0" fill="#000000" transform="matrix(1.00, 0.00, -0.00, -1.00, 587.2, 247.0)">s</text><text xml:space="preserve" font-family="Helvetica-Bold,Helvetica" font-weight="bold" font-size="45.0" fill="#000000" transform="matrix(1.00, 0.00, -0.00, -1.00, 612.2, 247.0)"> </text><text xml:space="preserve" font-family="Helvetica-Bold,Helvetica" font-weight="bold" font-size="45.0" fill="#000000" transform="matrix(1.00, 0.00, -0.00, -1.00, 624.7, 247.0)">t</text><text xml:space="preserve" font-family="Helvetica-Bold,Helvetica" font-weight="bold" font-size="45.0" fill="#000000" transform="matrix(1.00, 0.00, -0.00, -1.00, 639.7, 247.0)">e</text><text xml:space="preserve" font-family="Helvetica-Bold,Helvetica" font-weight="bold" font-size="45.0" fill="#000000" transform="matrix(1.00, 0.00, -0.00, -1.00, 664.7, 247.0)"> </text><text xml:space="preserve" font-family="Helvetica-Bold,Helvetica" font-weight="bold" font-size="45.0" fill="#000000" transform="matrix(1.00, 0.00, -0.00, -1.00, 677.2, 247.0)">n</text><text xml:space="preserve" font-family="Helvetica-Bold,Helvetica" font-weight="bold" font-size="45.0" fill="#000000" transform="matrix(1.00, 0.00, -0.00, -1.00, 704.7, 247.0)">e</text><text xml:space="preserve" font-family="Helvetica-Bold,Helvetica" font-weight="bold" font-size="45.0" fill="#000000" transform="matrix(1.00, 0.00, -0.00, -1.00, 729.8, 247.0)">m</text><text xml:space="preserve" font-family="Helvetica-Bold,Helvetica" font-weight="bold" font-size="45.0" fill="#000000" transform="matrix(1.00, 0.00, -0.00, -1.00, 769.8, 247.0)">e</text><text xml:space="preserve" font-family="Helvetica-Bold,Helvetica" font-weight="bold" font-size="45.0" fill="#000000" transform="matrix(1.00, 0.00, -0.00, -1.00, 794.8, 247.0)">n</text><text xml:space="preserve" font-family="Helvetica-Bold,Helvetica" font-weight="bold" font-size="45.0" fill="#000000" transform="matrix(1.00, 0.00, -0.00, -1.00, 822.3, 247.0)">.</text><image xlink:href="83957B08D3D5080B3539AA55FD89849B.png" width="790.00" height="1011.00" transform="matrix(0.42, 0.00, -0.00, -0.42, 135.7, 573.8)"></image><g><clipPath id="clip0x600003ab8d20"><path d="M 175.0 536.0 L 432.0 536.0 L 432.0 190.0 L 175.0 190.0 Z M 175.0 535.9 "></path></clipPath><g clip-path="url(#clip0x600003ab8d20)"><image xlink:href="5C440E7A048DDF82DC599B4776F9027D.png" width="1600.00" height="1200.00" transform="matrix(0.29, 0.00, -0.00, -0.29, 24.5, 535.9)"></image></g></g></g></svg>