<?xml version="1.0" encoding="UTF-8" standalone="no"?><svg xmlns="http://www.w3.org/2000/svg" xmlns:xlink="http://www.w3.org/1999/xlink" clip-rule="evenodd" stroke-miterlimit="10" viewBox="0 0 85 85"><desc>SVG generated by Keynote</desc><defs></defs><g transform="matrix(1.00, 0.00, -0.00, -1.00, 0.0, 85.0)"><g><clipPath id="clip0x6000020bb480"><path d="M 27.5 27.4 L 57.7 27.4 L 57.7 57.6 L 27.5 57.6 Z M 27.5 27.4 "></path></clipPath><g clip-path="url(#clip0x6000020bb480)"><path d="M 22.4 3.8 C 27.5 9.0 27.5 17.2 22.4 22.4 C 17.2 27.5 9.0 27.5 3.8 22.4 C -1.3 17.2 -1.3 9.0 3.8 3.8 C 9.0 -1.3 17.2 -1.3 22.4 3.8 Z M 22.4 3.8 " fill="none" stroke="#FEFFFE" stroke-width="2.00" transform="matrix(1.00, 0.00, 0.00, -1.00, 29.5, 55.6)"></path></g></g><g><clipPath id="clip0x6000020bba80"><path d="M 18.9 18.8 L 66.3 18.8 L 66.3 66.1 L 18.9 66.1 Z M 18.9 18.8 "></path></clipPath><g clip-path="url(#clip0x6000020bba80)"><path d="M 37.0 6.3 C 45.5 14.8 45.5 28.5 37.0 37.0 C 28.5 45.5 14.8 45.5 6.3 37.0 C -2.1 28.5 -2.1 14.8 6.3 6.3 C 14.8 -2.1 28.5 -2.1 37.0 6.3 Z M 37.0 6.3 " fill="none" stroke="#FEFFFE" stroke-width="2.00" transform="matrix(1.00, 0.00, 0.00, -1.00, 20.9, 64.1)"></path></g></g><g><clipPath id="clip0x6000020bbcc0"><path d="M 1.0 0.8 L 84.3 0.8 L 84.3 84.1 L 1.0 84.1 Z M 1.0 0.8 "></path></clipPath><g clip-path="url(#clip0x6000020bbcc0)"><path d="M 64.3 11.0 C 79.0 25.7 79.0 49.6 64.3 64.3 C 49.6 79.0 25.7 79.0 11.0 64.3 C -3.7 49.6 -3.7 25.7 11.0 11.0 C 25.7 -3.7 49.6 -3.7 64.3 11.0 Z M 64.3 11.0 " fill="none" stroke="#FEFFFE" stroke-width="6.00" stroke-linecap="round" stroke-linejoin="round" stroke-dasharray="0.0, 18.0" transform="matrix(1.00, 0.00, 0.00, -1.00, 5.0, 80.1)"></path></g></g></g></svg>