<?xml version="1.0" encoding="UTF-8" standalone="no"?><svg xmlns="http://www.w3.org/2000/svg" xmlns:xlink="http://www.w3.org/1999/xlink" clip-rule="evenodd" stroke-miterlimit="10" viewBox="0 0 66 65"><desc>SVG generated by Keynote</desc><defs></defs><g transform="matrix(1.00, 0.00, -0.00, -1.00, 0.0, 65.0)"><g><clipPath id="clip0x618001ea1e60"><path d="M 21.1 20.5 L 45.0 20.5 L 45.0 44.4 L 21.1 44.4 Z M 21.1 20.5 "></path></clipPath><g clip-path="url(#clip0x618001ea1e60)"><path d="M 17.0 2.9 C 20.9 6.8 20.9 13.1 17.0 17.0 C 13.1 20.9 6.8 20.9 2.9 17.0 C -1.0 13.1 -1.0 6.8 2.9 2.9 C 6.8 -1.0 13.1 -1.0 17.0 2.9 Z M 17.0 2.9 " fill="none" stroke="#FEFFFE" stroke-width="2.00" transform="matrix(1.00, 0.00, 0.00, -1.00, 23.1, 42.4)"></path></g></g><g><clipPath id="clip0x618001ea2580"><path d="M 15.8 15.2 L 50.2 15.2 L 50.2 49.7 L 15.8 49.7 Z M 15.8 15.2 "></path></clipPath><g clip-path="url(#clip0x618001ea2580)"><path d="M 26.0 4.5 C 31.9 10.4 31.9 20.0 26.0 26.0 C 20.0 31.9 10.4 31.9 4.5 26.0 C -1.5 20.0 -1.5 10.4 4.5 4.5 C 10.4 -1.5 20.0 -1.5 26.0 4.5 Z M 26.0 4.5 " fill="none" stroke="#FEFFFE" stroke-width="2.00" transform="matrix(1.00, 0.00, 0.00, -1.00, 17.8, 47.7)"></path></g></g><g><clipPath id="clip0x618001ea27c0"><path d="M 11.0 10.4 L 55.1 10.4 L 55.1 54.5 L 11.0 54.5 Z M 11.0 10.4 "></path></clipPath><g clip-path="url(#clip0x618001ea27c0)"><path d="M 34.2 5.9 C 42.0 13.7 42.0 26.4 34.2 34.2 C 26.4 42.0 13.7 42.0 5.9 34.2 C -2.0 26.4 -2.0 13.7 5.9 5.9 C 13.7 -2.0 26.4 -2.0 34.2 5.9 Z M 34.2 5.9 " fill="none" stroke="#FEFFFE" stroke-width="2.00" transform="matrix(1.00, 0.00, 0.00, -1.00, 13.0, 52.5)"></path></g></g><g><clipPath id="clip0x618001ea2a00"><path d="M 0.9 0.3 L 65.1 0.3 L 65.1 64.6 L 0.9 64.6 Z M 0.9 0.3 "></path></clipPath><g clip-path="url(#clip0x618001ea2a00)"><path d="M 48.9 8.4 C 60.0 19.6 60.0 37.7 48.9 48.9 C 37.7 60.0 19.6 60.0 8.4 48.9 C -2.8 37.7 -2.8 19.6 8.4 8.4 C 19.6 -2.8 37.7 -2.8 48.9 8.4 Z M 48.9 8.4 " fill="none" stroke="#FEFFFE" stroke-width="5.00" stroke-linecap="round" stroke-linejoin="round" stroke-dasharray="0.0, 15.0" transform="matrix(1.00, 0.00, 0.00, -1.00, 4.4, 61.1)"></path></g></g></g></svg>