<?xml version="1.0" encoding="UTF-8" standalone="no"?><svg xmlns="http://www.w3.org/2000/svg" xmlns:xlink="http://www.w3.org/1999/xlink" clip-rule="evenodd" stroke-miterlimit="10" viewBox="0 0 53 61"><desc>SVG generated by Keynote</desc><defs></defs><g transform="matrix(1.00, 0.00, -0.00, -1.00, 0.0, 61.0)"><g><clipPath id="clip0x6000028a3ae0"><path d="M 0.2 0.7 L 52.2 0.7 L 52.2 52.8 L 0.2 52.8 Z M 0.2 0.7 "></path></clipPath><g clip-path="url(#clip0x6000028a3ae0)"><path d="M 38.5 6.6 C 47.3 15.4 47.3 29.7 38.5 38.5 C 29.7 47.3 15.4 47.3 6.6 38.5 C -2.2 29.7 -2.2 15.4 6.6 6.6 C 15.4 -2.2 29.7 -2.2 38.5 6.6 Z M 38.5 6.6 " fill="none" stroke="#002451" stroke-width="5.00" transform="matrix(1.00, 0.00, 0.00, -1.00, 3.7, 49.3)"></path></g></g><g><clipPath id="clip0x6000028a40e0"><path d="M 22.9 24.5 L 37.0 38.6 L 41.3 34.4 L 27.2 20.3 Z M 22.9 24.5 "></path></clipPath><g clip-path="url(#clip0x6000028a40e0)"><path d="M 0.0 0.0 L 17.9 0.0 " fill="none" stroke="#002451" stroke-width="4.00" transform="matrix(0.71, 0.71, 0.71, -0.71, 25.8, 23.1)"></path></g></g><g><clipPath id="clip0x6000028a4320"><path d="M 23.2 23.1 L 23.2 45.4 L 29.2 45.4 L 29.2 23.1 Z M 23.2 23.1 "></path></clipPath><g clip-path="url(#clip0x6000028a4320)"><path d="M -0.1 -0.2 L 19.9 -0.2 " fill="none" stroke="#002451" stroke-width="4.00" transform="matrix(0.00, 1.00, 1.00, 0.00, 26.2, 24.1)"></path></g></g><g><clipPath id="clip0x6000028a4560"><path d="M 15.5 51.2 L 36.9 51.2 L 36.9 60.1 L 15.5 60.1 Z M 15.5 51.2 "></path></clipPath><g clip-path="url(#clip0x6000028a4560)"><path d="M 16.5 55.7 L 16.5 55.7 C 16.5 57.5 18.0 59.0 19.9 59.0 L 32.5 59.0 C 34.4 59.0 35.9 57.5 35.9 55.7 L 35.9 55.7 C 35.9 53.8 34.4 52.0 32.5 52.0 L 19.9 52.0 C 18.0 52.0 16.5 53.8 16.5 55.7 Z M 16.5 55.7 " fill="#002451"></path></g></g></g></svg>