<?xml version="1.0" encoding="UTF-8" standalone="no"?><svg xmlns="http://www.w3.org/2000/svg" xmlns:xlink="http://www.w3.org/1999/xlink" clip-rule="evenodd" stroke-miterlimit="10" viewBox="0 0 101 101"><desc>SVG generated by Keynote</desc><defs></defs><g transform="matrix(1.00, 0.00, -0.00, -1.00, 0.0, 101.0)"><g><clipPath id="clip0x6000028a5400"><path d="M 0.1 0.2 L 100.6 0.2 L 100.6 100.7 L 0.1 100.7 Z M 0.1 0.2 "></path></clipPath><g clip-path="url(#clip0x6000028a5400)"><image xlink:href="../../9E8F32BC-9589-436B-8D50-A1D9D0F5E178/assets/6A4F360583B4BE13BC866AD30E7BF04D.png" width="99.00" height="99.00" transform="matrix(1.00, 0.00, -0.00, -1.00, 1.1, 99.7)" opacity="0.50"></image><path d="M 83.1 85.2 C 101.1 67.1 101.1 37.8 83.1 19.7 C 65.0 1.7 35.7 1.7 17.6 19.7 C -0.5 37.8 -0.5 67.1 17.6 85.2 C 35.7 103.3 65.0 103.3 83.1 85.2 Z M 83.1 85.2 " fill="#C82505"></path></g></g><g><clipPath id="clip0x610001ea8640"><path d="M 25.5 32.6 L 70.2 77.3 L 75.2 72.3 L 30.5 27.6 Z M 25.5 32.6 "></path></clipPath><g clip-path="url(#clip0x610001ea8640)"><path d="M 0.0 0.0 L 61.2 0.0 " fill="none" stroke="#FEFFFE" stroke-width="5.00" transform="matrix(0.71, 0.71, 0.71, -0.71, 28.7, 30.8)"></path></g></g><g><clipPath id="clip0x610001ea8880"><path d="M 70.2 27.6 L 25.5 72.3 L 30.5 77.3 L 75.2 32.6 Z M 70.2 27.6 "></path></clipPath><g clip-path="url(#clip0x610001ea8880)"><path d="M 0.0 0.0 L 61.2 0.0 " fill="none" stroke="#FEFFFE" stroke-width="5.00" transform="matrix(-0.71, 0.71, 0.71, 0.71, 72.0, 30.8)"></path></g></g></g></svg>