<?xml version="1.0" encoding="UTF-8" standalone="no"?><svg xmlns="http://www.w3.org/2000/svg" xmlns:xlink="http://www.w3.org/1999/xlink" clip-rule="evenodd" stroke-miterlimit="10" viewBox="0 0 145 146"><desc>SVG generated by Keynote</desc><defs></defs><g transform="matrix(1.00, 0.00, -0.00, -1.00, 0.0, 146.0)"><g><clipPath id="clip0x6000034b1040"><path d="M 45.8 46.3 L 99.1 46.3 L 99.1 99.7 L 45.8 99.7 Z M 45.8 46.3 "></path></clipPath><g clip-path="url(#clip0x6000034b1040)"><path d="M 39.5 6.8 C 48.6 15.8 48.6 30.5 39.5 39.5 C 30.5 48.6 15.8 48.6 6.8 39.5 C -2.3 30.5 -2.3 15.8 6.8 6.8 C 15.8 -2.3 30.5 -2.3 39.5 6.8 Z M 39.5 6.8 " fill="none" stroke="#FEFFFE" stroke-width="5.00" transform="matrix(1.00, 0.00, 0.00, -1.00, 49.3, 96.2)"></path></g></g><g><clipPath id="clip0x6000034b1760"><path d="M 33.6 34.1 L 111.3 34.1 L 111.3 111.9 L 33.6 111.9 Z M 33.6 34.1 "></path></clipPath><g clip-path="url(#clip0x6000034b1760)"><path d="M 60.4 10.4 C 74.2 24.2 74.2 46.6 60.4 60.4 C 46.6 74.2 24.2 74.2 10.4 60.4 C -3.5 46.6 -3.5 24.2 10.4 10.4 C 24.2 -3.5 46.6 -3.5 60.4 10.4 Z M 60.4 10.4 " fill="none" stroke="#FEFFFE" stroke-width="5.00" transform="matrix(1.00, 0.00, 0.00, -1.00, 37.1, 108.4)"></path></g></g><g><clipPath id="clip0x6000034b19a0"><path d="M 22.3 22.9 L 122.5 22.9 L 122.5 123.1 L 22.3 123.1 Z M 22.3 22.9 "></path></clipPath><g clip-path="url(#clip0x6000034b19a0)"><path d="M 79.6 13.7 C 97.8 31.9 97.8 61.4 79.6 79.6 C 61.4 97.8 31.9 97.8 13.7 79.6 C -4.6 61.4 -4.6 31.9 13.7 13.7 C 31.9 -4.6 61.4 -4.6 79.6 13.7 Z M 79.6 13.7 " fill="none" stroke="#FEFFFE" stroke-width="5.00" transform="matrix(1.00, 0.00, 0.00, -1.00, 25.8, 119.6)"></path></g></g><g><clipPath id="clip0x6000034b1be0"><path d="M 0.4 0.9 L 144.5 0.9 L 144.5 145.1 L 0.4 145.1 Z M 0.4 0.9 "></path></clipPath><g clip-path="url(#clip0x6000034b1be0)"><path d="M 113.6 19.5 C 139.6 45.5 139.6 87.6 113.6 113.6 C 87.6 139.6 45.5 139.6 19.5 113.6 C -6.5 87.6 -6.5 45.5 19.5 19.5 C 45.5 -6.5 87.6 -6.5 113.6 19.5 Z M 113.6 19.5 " fill="none" stroke="#FEFFFE" stroke-width="9.00" stroke-linecap="round" stroke-linejoin="round" stroke-dasharray="0.0, 27.0" transform="matrix(1.00, 0.00, 0.00, -1.00, 5.9, 139.6)"></path></g></g></g></svg>