<?xml version="1.0" encoding="UTF-8" standalone="no"?><svg xmlns="http://www.w3.org/2000/svg" xmlns:xlink="http://www.w3.org/1999/xlink" clip-rule="evenodd" stroke-miterlimit="10" viewBox="0 0 392 76"><desc>SVG generated by Keynote</desc><defs></defs><g transform="matrix(1.00, 0.00, -0.00, -1.00, 0.0, 76.0)"><g><clipPath id="clip0x600002aba400"><path d="M 0.2 24.1 L 391.8 24.1 L 391.8 51.8 L 0.2 51.8 Z M 0.2 24.1 "></path></clipPath><g clip-path="url(#clip0x600002aba400)"><path d="M 1.2 38.0 L 1.2 38.0 C 1.2 45.1 6.9 51.0 14.0 51.0 L 378.0 51.0 C 385.1 51.0 390.8 45.1 390.8 38.0 L 390.8 38.0 C 390.8 30.9 385.1 25.0 378.0 25.0 L 14.0 25.0 C 6.9 25.0 1.2 30.9 1.2 38.0 Z M 1.2 38.0 " fill="#F5D327"></path></g></g><g><clipPath id="clip0x600002abaa60"><path d="M 15.6 0.5 L 376.4 0.5 L 376.4 75.5 L 15.6 75.5 Z M 15.6 0.5 "></path></clipPath><g clip-path="url(#clip0x600002abaa60)"><path d="M 19.5 35.0 L 19.5 41.2 C 19.5 58.2 32.8 71.5 49.8 71.5 L 342.2 71.5 C 359.2 71.5 372.5 58.2 372.5 41.2 L 372.5 34.7 C 372.5 17.7 359.2 3.5 342.2 3.5 L 49.8 3.5 C 32.8 3.5 19.5 18.0 19.5 35.0 Z M 19.1 34.7 " fill="#F38F18"></path><path d="M 0.4 37.0 L 0.4 30.8 C 0.4 13.8 13.8 0.5 30.8 0.5 L 323.1 0.5 C 340.1 0.5 353.4 13.8 353.4 30.8 L 353.4 37.3 C 353.4 54.3 340.1 68.5 323.1 68.5 L 30.8 68.5 C 13.8 68.5 0.4 54.0 0.4 37.0 Z M 0.0 37.3 " fill="none" stroke="#F5D327" stroke-width="5.00" transform="matrix(1.00, 0.00, 0.00, -1.00, 19.1, 72.0)"></path></g></g><g><clipPath id="clip0x600002abad60"><path d="M 374.4 34.0 L 382.4 34.0 L 382.4 42.0 L 374.4 42.0 Z M 374.4 34.0 "></path></clipPath><g clip-path="url(#clip0x600002abad60)"><path d="M 380.5 40.1 C 381.7 38.9 381.7 37.0 380.5 35.9 C 379.4 34.7 377.5 34.7 376.3 35.9 C 375.1 37.0 375.1 38.9 376.3 40.1 C 377.5 41.3 379.4 41.3 380.5 40.1 Z M 380.5 40.1 " fill="#F38F18"></path></g></g><g><clipPath id="clip0x600002abafa0"><path d="M 7.6 34.0 L 15.6 34.0 L 15.6 42.0 L 7.6 42.0 Z M 7.6 34.0 "></path></clipPath><g clip-path="url(#clip0x600002abafa0)"><path d="M 13.7 40.1 C 14.9 38.9 14.9 37.0 13.7 35.9 C 12.5 34.7 10.6 34.7 9.5 35.9 C 8.3 37.0 8.3 38.9 9.5 40.1 C 10.6 41.3 12.5 41.3 13.7 40.1 Z M 13.7 40.1 " fill="#F38F18"></path></g></g><g><clipPath id="clip0x600002abb1e0"><path d="M 125.0 3.9 L 267.0 3.9 L 267.0 64.9 L 125.0 64.9 Z M 125.0 3.9 "></path></clipPath><g clip-path="url(#clip0x600002abb1e0)"><text xml:space="preserve" font-family="HoboStd,Hobo Std" font-size="36.0" fill="#FEFFFE" transform="matrix(1.00, 0.00, -0.00, -1.00, 134.5, 25.4)">T</text><text xml:space="preserve" font-family="HoboStd,Hobo Std" font-size="36.0" fill="#FEFFFE" transform="matrix(1.00, 0.00, -0.00, -1.00, 154.3, 25.4)">A</text><text xml:space="preserve" font-family="HoboStd,Hobo Std" font-size="36.0" fill="#FEFFFE" transform="matrix(1.00, 0.00, -0.00, -1.00, 179.5, 25.4)">S</text><text xml:space="preserve" font-family="HoboStd,Hobo Std" font-size="36.0" fill="#FEFFFE" transform="matrix(1.00, 0.00, -0.00, -1.00, 202.7, 25.4)">K</text><text xml:space="preserve" font-family="HoboStd,Hobo Std" font-size="36.0" fill="#FEFFFE" transform="matrix(1.00, 0.00, -0.00, -1.00, 226.2, 25.4)"> </text><text xml:space="preserve" font-family="HoboStd,Hobo Std" font-size="36.0" fill="#FEFFFE" transform="matrix(1.00, 0.00, -0.00, -1.00, 236.6, 25.4)">5</text></g></g></g></svg>