<?xml version="1.0" encoding="UTF-8" standalone="no"?><svg xmlns="http://www.w3.org/2000/svg" xmlns:xlink="http://www.w3.org/1999/xlink" clip-rule="evenodd" stroke-miterlimit="10" viewBox="0 0 1028 190"><desc>SVG generated by Keynote</desc><defs></defs><g transform="matrix(1.00, 0.00, -0.00, -1.00, 0.0, 190.0)"><path d="M 4.5 185.5 L 1023.5 185.5 L 1023.5 3.5 L 4.5 3.5 Z M 4.5 186.0 " fill="#EB5C56"></path><path d="M 0.0 0.5 L 1019.0 0.5 L 1019.0 182.5 L 0.0 182.5 Z M 0.0 0.0 " fill="none" stroke="#FEFFFE" stroke-width="5.00" transform="matrix(1.00, 0.00, 0.00, -1.00, 4.5, 186.0)"></path><g><clipPath id="clip0x6000024a4320"><path d="M 0.5 6.8 L 1027.5 6.8 L 1027.5 183.0 L 0.5 183.0 Z M 0.5 6.8 "></path></clipPath><g clip-path="url(#clip0x6000024a4320)"><text xml:space="preserve" font-family="Helvetica-Bold,Helvetica" font-weight="bold" font-size="44.0" fill="#FEFFFE" transform="matrix(1.00, 0.00, -0.00, -1.00, 139.9, 119.1)">J</text><text xml:space="preserve" font-family="Helvetica-Bold,Helvetica" font-weight="bold" font-size="44.0" fill="#FEFFFE" transform="matrix(1.00, 0.00, -0.00, -1.00, 164.4, 119.1)">e</text><text xml:space="preserve" font-family="Helvetica-Bold,Helvetica" font-weight="bold" font-size="44.0" fill="#FEFFFE" transform="matrix(1.00, 0.00, -0.00, -1.00, 188.9, 119.1)"> </text><text xml:space="preserve" font-family="Helvetica-Bold,Helvetica" font-weight="bold" font-size="44.0" fill="#FEFFFE" transform="matrix(1.00, 0.00, -0.00, -1.00, 201.1, 119.1)">h</text><text xml:space="preserve" font-family="Helvetica-Bold,Helvetica" font-weight="bold" font-size="44.0" fill="#FEFFFE" transform="matrix(1.00, 0.00, -0.00, -1.00, 228.0, 119.1)">e</text><text xml:space="preserve" font-family="Helvetica-Bold,Helvetica" font-weight="bold" font-size="44.0" fill="#FEFFFE" transform="matrix(1.00, 0.00, -0.00, -1.00, 252.4, 119.1)">b</text><text xml:space="preserve" font-family="Helvetica-Bold,Helvetica" font-weight="bold" font-size="44.0" fill="#FEFFFE" transform="matrix(1.00, 0.00, -0.00, -1.00, 279.3, 119.1)">t</text><text xml:space="preserve" font-family="Helvetica-Bold,Helvetica" font-weight="bold" font-size="44.0" fill="#FEFFFE" transform="matrix(1.00, 0.00, -0.00, -1.00, 294.0, 119.1)"> </text><text xml:space="preserve" font-family="Helvetica-Bold,Helvetica" font-weight="bold" font-size="44.0" fill="#FEFFFE" transform="matrix(1.00, 0.00, -0.00, -1.00, 306.2, 119.1)">e</text><text xml:space="preserve" font-family="Helvetica-Bold,Helvetica" font-weight="bold" font-size="44.0" fill="#FEFFFE" transform="matrix(1.00, 0.00, -0.00, -1.00, 330.7, 119.1)">e</text><text xml:space="preserve" font-family="Helvetica-Bold,Helvetica" font-weight="bold" font-size="44.0" fill="#FEFFFE" transform="matrix(1.00, 0.00, -0.00, -1.00, 355.1, 119.1)">n</text><text xml:space="preserve" font-family="Helvetica-Bold,Helvetica" font-weight="bold" font-size="44.0" fill="#FEFFFE" transform="matrix(1.00, 0.00, -0.00, -1.00, 382.0, 119.1)"> </text><text xml:space="preserve" font-family="Helvetica-Bold,Helvetica" font-weight="bold" font-size="44.0" fill="#FEFFFE" transform="matrix(1.00, 0.00, -0.00, -1.00, 394.2, 119.1)">V</text><text xml:space="preserve" font-family="Helvetica-Bold,Helvetica" font-weight="bold" font-size="44.0" fill="#FEFFFE" transform="matrix(1.00, 0.00, -0.00, -1.00, 423.6, 119.1)">E</text><text xml:space="preserve" font-family="Helvetica-Bold,Helvetica" font-weight="bold" font-size="44.0" fill="#FEFFFE" transform="matrix(1.00, 0.00, -0.00, -1.00, 452.9, 119.1)">R</text><text xml:space="preserve" font-family="Helvetica-Bold,Helvetica" font-weight="bold" font-size="44.0" fill="#FEFFFE" transform="matrix(1.00, 0.00, -0.00, -1.00, 484.7, 119.1)">D</text><text xml:space="preserve" font-family="Helvetica-Bold,Helvetica" font-weight="bold" font-size="44.0" fill="#FEFFFE" transform="matrix(1.00, 0.00, -0.00, -1.00, 516.5, 119.1)">R</text><text xml:space="preserve" font-family="Helvetica-Bold,Helvetica" font-weight="bold" font-size="44.0" fill="#FEFFFE" transform="matrix(1.00, 0.00, -0.00, -1.00, 548.3, 119.1)">I</text><text xml:space="preserve" font-family="Helvetica-Bold,Helvetica" font-weight="bold" font-size="44.0" fill="#FEFFFE" transform="matrix(1.00, 0.00, -0.00, -1.00, 560.5, 119.1)">E</text><text xml:space="preserve" font-family="Helvetica-Bold,Helvetica" font-weight="bold" font-size="44.0" fill="#FEFFFE" transform="matrix(1.00, 0.00, -0.00, -1.00, 589.8, 119.1)">T</text><text xml:space="preserve" font-family="Helvetica-Bold,Helvetica" font-weight="bold" font-size="44.0" fill="#FEFFFE" transform="matrix(1.00, 0.00, -0.00, -1.00, 616.7, 119.1)">I</text><text xml:space="preserve" font-family="Helvetica-Bold,Helvetica" font-weight="bold" font-size="44.0" fill="#FEFFFE" transform="matrix(1.00, 0.00, -0.00, -1.00, 628.9, 119.1)">G</text><text xml:space="preserve" font-family="Helvetica-Bold,Helvetica" font-weight="bold" font-size="44.0" fill="#FEFFFE" transform="matrix(1.00, 0.00, -0.00, -1.00, 663.1, 119.1)">E</text><text xml:space="preserve" font-family="Helvetica-Bold,Helvetica" font-weight="bold" font-size="44.0" fill="#FEFFFE" transform="matrix(1.00, 0.00, -0.00, -1.00, 692.5, 119.1)"> </text><text xml:space="preserve" font-family="Helvetica-Bold,Helvetica" font-weight="bold" font-size="44.0" fill="#FEFFFE" transform="matrix(1.00, 0.00, -0.00, -1.00, 704.7, 119.1)">d</text><text xml:space="preserve" font-family="Helvetica-Bold,Helvetica" font-weight="bold" font-size="44.0" fill="#FEFFFE" transform="matrix(1.00, 0.00, -0.00, -1.00, 731.6, 119.1)">i</text><text xml:space="preserve" font-family="Helvetica-Bold,Helvetica" font-weight="bold" font-size="44.0" fill="#FEFFFE" transform="matrix(1.00, 0.00, -0.00, -1.00, 743.8, 119.1)">a</text><text xml:space="preserve" font-family="Helvetica-Bold,Helvetica" font-weight="bold" font-size="44.0" fill="#FEFFFE" transform="matrix(1.00, 0.00, -0.00, -1.00, 768.3, 119.1)">m</text><text xml:space="preserve" font-family="Helvetica-Bold,Helvetica" font-weight="bold" font-size="44.0" fill="#FEFFFE" transform="matrix(1.00, 0.00, -0.00, -1.00, 807.4, 119.1)">a</text><text xml:space="preserve" font-family="Helvetica-Bold,Helvetica" font-weight="bold" font-size="44.0" fill="#FEFFFE" transform="matrix(1.00, 0.00, -0.00, -1.00, 831.9, 119.1)">n</text><text xml:space="preserve" font-family="Helvetica-Bold,Helvetica" font-weight="bold" font-size="44.0" fill="#FEFFFE" transform="matrix(1.00, 0.00, -0.00, -1.00, 858.7, 119.1)">t</text><text xml:space="preserve" font-family="Helvetica-Bold,Helvetica" font-weight="bold" font-size="44.0" fill="#FEFFFE" transform="matrix(1.00, 0.00, -0.00, -1.00, 873.4, 119.1)">!</text><text xml:space="preserve" font-family="Helvetica-Light,Helvetica" font-size="34.0" fill="#FEFFFE" transform="matrix(1.00, 0.00, -0.00, -1.00, 305.2, 75.8)">A</text><text xml:space="preserve" font-family="Helvetica-Light,Helvetica" font-size="34.0" fill="#FEFFFE" transform="matrix(1.00, 0.00, -0.00, -1.00, 327.9, 75.8)">l</text><text xml:space="preserve" font-family="Helvetica-Light,Helvetica" font-size="34.0" fill="#FEFFFE" transform="matrix(1.00, 0.00, -0.00, -1.00, 335.5, 75.8)">s</text><text xml:space="preserve" font-family="Helvetica-Light,Helvetica" font-size="34.0" fill="#FEFFFE" transform="matrix(1.00, 0.00, -0.00, -1.00, 352.5, 75.8)"> </text><text xml:space="preserve" font-family="Helvetica-Light,Helvetica" font-size="34.0" fill="#FEFFFE" transform="matrix(1.00, 0.00, -0.00, -1.00, 361.9, 75.8)">j</text><text xml:space="preserve" font-family="Helvetica-Light,Helvetica" font-size="34.0" fill="#FEFFFE" transform="matrix(1.00, 0.00, -0.00, -1.00, 369.5, 75.8)">e</text><text xml:space="preserve" font-family="Helvetica-Light,Helvetica" font-size="34.0" fill="#FEFFFE" transform="matrix(1.00, 0.00, -0.00, -1.00, 388.4, 75.8)"> </text><text xml:space="preserve" font-family="Helvetica-Light,Helvetica" font-size="34.0" fill="#FEFFFE" transform="matrix(1.00, 0.00, -0.00, -1.00, 397.8, 75.8)">i</text><text xml:space="preserve" font-family="Helvetica-Light,Helvetica" font-size="34.0" fill="#FEFFFE" transform="matrix(1.00, 0.00, -0.00, -1.00, 405.4, 75.8)">e</text><text xml:space="preserve" font-family="Helvetica-Light,Helvetica" font-size="34.0" fill="#FEFFFE" transform="matrix(1.00, 0.00, -0.00, -1.00, 424.3, 75.8)">t</text><text xml:space="preserve" font-family="Helvetica-Light,Helvetica" font-size="34.0" fill="#FEFFFE" transform="matrix(1.00, 0.00, -0.00, -1.00, 433.7, 75.8)">s</text><text xml:space="preserve" font-family="Helvetica-Light,Helvetica" font-size="34.0" fill="#FEFFFE" transform="matrix(1.00, 0.00, -0.00, -1.00, 450.7, 75.8)"> </text><text xml:space="preserve" font-family="Helvetica-Light,Helvetica" font-size="34.0" fill="#FEFFFE" transform="matrix(1.00, 0.00, -0.00, -1.00, 460.2, 75.8)">d</text><text xml:space="preserve" font-family="Helvetica-Light,Helvetica" font-size="34.0" fill="#FEFFFE" transform="matrix(1.00, 0.00, -0.00, -1.00, 481.0, 75.8)">i</text><text xml:space="preserve" font-family="Helvetica-Light,Helvetica" font-size="34.0" fill="#FEFFFE" transform="matrix(1.00, 0.00, -0.00, -1.00, 488.5, 75.8)">e</text><text xml:space="preserve" font-family="Helvetica-Light,Helvetica" font-size="34.0" fill="#FEFFFE" transform="matrix(1.00, 0.00, -0.00, -1.00, 507.4, 75.8)">r</text><text xml:space="preserve" font-family="Helvetica-Light,Helvetica" font-size="34.0" fill="#FEFFFE" transform="matrix(1.00, 0.00, -0.00, -1.00, 518.7, 75.8)">b</text><text xml:space="preserve" font-family="Helvetica-Light,Helvetica" font-size="34.0" fill="#FEFFFE" transform="matrix(1.00, 0.00, -0.00, -1.00, 539.5, 75.8)">a</text><text xml:space="preserve" font-family="Helvetica-Light,Helvetica" font-size="34.0" fill="#FEFFFE" transform="matrix(1.00, 0.00, -0.00, -1.00, 558.4, 75.8)">a</text><text xml:space="preserve" font-family="Helvetica-Light,Helvetica" font-size="34.0" fill="#FEFFFE" transform="matrix(1.00, 0.00, -0.00, -1.00, 577.3, 75.8)">r</text><text xml:space="preserve" font-family="Helvetica-Light,Helvetica" font-size="34.0" fill="#FEFFFE" transform="matrix(1.00, 0.00, -0.00, -1.00, 588.6, 75.8)">s</text><text xml:space="preserve" font-family="Helvetica-Light,Helvetica" font-size="34.0" fill="#FEFFFE" transform="matrix(1.00, 0.00, -0.00, -1.00, 605.6, 75.8)"> </text><text xml:space="preserve" font-family="Helvetica-Light,Helvetica" font-size="34.0" fill="#FEFFFE" transform="matrix(1.00, 0.00, -0.00, -1.00, 615.1, 75.8)">v</text><text xml:space="preserve" font-family="Helvetica-Light,Helvetica" font-size="34.0" fill="#FEFFFE" transform="matrix(1.00, 0.00, -0.00, -1.00, 632.1, 75.8)">e</text><text xml:space="preserve" font-family="Helvetica-Light,Helvetica" font-size="34.0" fill="#FEFFFE" transform="matrix(1.00, 0.00, -0.00, -1.00, 651.0, 75.8)">r</text><text xml:space="preserve" font-family="Helvetica-Light,Helvetica" font-size="34.0" fill="#FEFFFE" transform="matrix(1.00, 0.00, -0.00, -1.00, 662.3, 75.8)">l</text><text xml:space="preserve" font-family="Helvetica-Light,Helvetica" font-size="34.0" fill="#FEFFFE" transform="matrix(1.00, 0.00, -0.00, -1.00, 669.9, 75.8)">i</text><text xml:space="preserve" font-family="Helvetica-Light,Helvetica" font-size="34.0" fill="#FEFFFE" transform="matrix(1.00, 0.00, -0.00, -1.00, 677.4, 75.8)">e</text><text xml:space="preserve" font-family="Helvetica-Light,Helvetica" font-size="34.0" fill="#FEFFFE" transform="matrix(1.00, 0.00, -0.00, -1.00, 696.3, 75.8)">s</text><text xml:space="preserve" font-family="Helvetica-Light,Helvetica" font-size="34.0" fill="#FEFFFE" transform="matrix(1.00, 0.00, -0.00, -1.00, 713.3, 75.8)">t</text><text xml:space="preserve" font-family="Helvetica-Light,Helvetica" font-size="34.0" fill="#FEFFFE" transform="matrix(1.00, 0.00, -0.00, -1.00, 722.8, 75.8)"> </text><text xml:space="preserve" font-family="Helvetica-Light,Helvetica" font-size="34.0" fill="#FEFFFE" transform="matrix(1.00, 0.00, -0.00, -1.00, 293.9, 34.8)">z</text><text xml:space="preserve" font-family="Helvetica-Light,Helvetica" font-size="34.0" fill="#FEFFFE" transform="matrix(1.00, 0.00, -0.00, -1.00, 310.9, 34.8)">u</text><text xml:space="preserve" font-family="Helvetica-Light,Helvetica" font-size="34.0" fill="#FEFFFE" transform="matrix(1.00, 0.00, -0.00, -1.00, 329.8, 34.8)">l</text><text xml:space="preserve" font-family="Helvetica-Light,Helvetica" font-size="34.0" fill="#FEFFFE" transform="matrix(1.00, 0.00, -0.00, -1.00, 337.3, 34.8)"> </text><text xml:space="preserve" font-family="Helvetica-Light,Helvetica" font-size="34.0" fill="#FEFFFE" transform="matrix(1.00, 0.00, -0.00, -1.00, 346.8, 34.8)">j</text><text xml:space="preserve" font-family="Helvetica-Light,Helvetica" font-size="34.0" fill="#FEFFFE" transform="matrix(1.00, 0.00, -0.00, -1.00, 354.3, 34.8)">e</text><text xml:space="preserve" font-family="Helvetica-Light,Helvetica" font-size="34.0" fill="#FEFFFE" transform="matrix(1.00, 0.00, -0.00, -1.00, 373.2, 34.8)"> </text><text xml:space="preserve" font-family="Helvetica-Light,Helvetica" font-size="34.0" fill="#FEFFFE" transform="matrix(1.00, 0.00, -0.00, -1.00, 382.7, 34.8)">j</text><text xml:space="preserve" font-family="Helvetica-Light,Helvetica" font-size="34.0" fill="#FEFFFE" transform="matrix(1.00, 0.00, -0.00, -1.00, 390.2, 34.8)">e</text><text xml:space="preserve" font-family="Helvetica-Light,Helvetica" font-size="34.0" fill="#FEFFFE" transform="matrix(1.00, 0.00, -0.00, -1.00, 409.1, 34.8)"> </text><text xml:space="preserve" font-family="Helvetica-Light,Helvetica" font-size="34.0" fill="#FEFFFE" transform="matrix(1.00, 0.00, -0.00, -1.00, 418.6, 34.8)">V</text><text xml:space="preserve" font-family="Helvetica-Light,Helvetica" font-size="34.0" fill="#FEFFFE" transform="matrix(1.00, 0.00, -0.00, -1.00, 439.4, 34.8)">E</text><text xml:space="preserve" font-family="Helvetica-Light,Helvetica" font-size="34.0" fill="#FEFFFE" transform="matrix(1.00, 0.00, -0.00, -1.00, 460.1, 34.8)">R</text><text xml:space="preserve" font-family="Helvetica-Light,Helvetica" font-size="34.0" fill="#FEFFFE" transform="matrix(1.00, 0.00, -0.00, -1.00, 482.8, 34.8)">D</text><text xml:space="preserve" font-family="Helvetica-Light,Helvetica" font-size="34.0" fill="#FEFFFE" transform="matrix(1.00, 0.00, -0.00, -1.00, 507.4, 34.8)">R</text><text xml:space="preserve" font-family="Helvetica-Light,Helvetica" font-size="34.0" fill="#FEFFFE" transform="matrix(1.00, 0.00, -0.00, -1.00, 530.0, 34.8)">I</text><text xml:space="preserve" font-family="Helvetica-Light,Helvetica" font-size="34.0" fill="#FEFFFE" transform="matrix(1.00, 0.00, -0.00, -1.00, 539.5, 34.8)">E</text><text xml:space="preserve" font-family="Helvetica-Light,Helvetica" font-size="34.0" fill="#FEFFFE" transform="matrix(1.00, 0.00, -0.00, -1.00, 560.3, 34.8)">T</text><text xml:space="preserve" font-family="Helvetica-Light,Helvetica" font-size="34.0" fill="#FEFFFE" transform="matrix(1.00, 0.00, -0.00, -1.00, 579.2, 34.8)">I</text><text xml:space="preserve" font-family="Helvetica-Light,Helvetica" font-size="34.0" fill="#FEFFFE" transform="matrix(1.00, 0.00, -0.00, -1.00, 588.6, 34.8)">G</text><text xml:space="preserve" font-family="Helvetica-Light,Helvetica" font-size="34.0" fill="#FEFFFE" transform="matrix(1.00, 0.00, -0.00, -1.00, 615.1, 34.8)"> </text><text xml:space="preserve" font-family="Helvetica-Light,Helvetica" font-size="34.0" fill="#FEFFFE" transform="matrix(1.00, 0.00, -0.00, -1.00, 624.5, 34.8)">v</text><text xml:space="preserve" font-family="Helvetica-Light,Helvetica" font-size="34.0" fill="#FEFFFE" transform="matrix(1.00, 0.00, -0.00, -1.00, 641.5, 34.8)">o</text><text xml:space="preserve" font-family="Helvetica-Light,Helvetica" font-size="34.0" fill="#FEFFFE" transform="matrix(1.00, 0.00, -0.00, -1.00, 660.4, 34.8)">e</text><text xml:space="preserve" font-family="Helvetica-Light,Helvetica" font-size="34.0" fill="#FEFFFE" transform="matrix(1.00, 0.00, -0.00, -1.00, 679.3, 34.8)">l</text><text xml:space="preserve" font-family="Helvetica-Light,Helvetica" font-size="34.0" fill="#FEFFFE" transform="matrix(1.00, 0.00, -0.00, -1.00, 686.9, 34.8)">e</text><text xml:space="preserve" font-family="Helvetica-Light,Helvetica" font-size="34.0" fill="#FEFFFE" transform="matrix(1.00, 0.00, -0.00, -1.00, 705.8, 34.8)">n</text><text xml:space="preserve" font-family="Helvetica-Light,Helvetica" font-size="34.0" fill="#FEFFFE" transform="matrix(1.00, 0.00, -0.00, -1.00, 724.7, 34.8)">.</text></g></g></g></svg>