<?xml version="1.0" encoding="UTF-8" standalone="no"?><svg xmlns="http://www.w3.org/2000/svg" xmlns:xlink="http://www.w3.org/1999/xlink" clip-rule="evenodd" stroke-miterlimit="10" viewBox="0 0 412 412"><desc>SVG generated by Keynote</desc><defs></defs><g transform="matrix(1.00, 0.00, -0.00, -1.00, 0.0, 412.0)"><g><clipPath id="clip0x6000024a71a0"><path d="M 114.0 294.0 L 298.0 294.0 L 298.0 114.0 L 114.0 114.0 Z M 114.4 293.8 "></path></clipPath><g clip-path="url(#clip0x6000024a71a0)"><g><clipPath id="clip0x6000024a72c0"><path d="M 114.4 113.8 L 297.6 113.8 L 297.6 293.8 L 114.4 293.8 Z M 114.4 113.8 "></path></clipPath><g clip-path="url(#clip0x6000024a72c0)"><image xlink:href="../../D4859A4F-71BB-4C87-8831-F0D1B7742C94/assets/A3595B73A310D739EE6682D088273300.png" width="339.00" height="341.00" transform="matrix(0.54, 0.00, -0.00, -0.54, 114.4, 295.9)"></image></g></g></g></g><g><clipPath id="clip0x608001ca49e0"><path d="M 0.2 0.0 L 411.8 0.0 L 411.8 411.5 L 0.2 411.5 Z M 0.2 0.0 "></path></clipPath><g clip-path="url(#clip0x608001ca49e0)"><path d="M 335.0 57.5 C 411.7 134.1 411.7 258.4 335.0 335.0 C 258.4 411.7 134.1 411.7 57.5 335.0 C -19.2 258.4 -19.2 134.1 57.5 57.5 C 134.1 -19.2 258.4 -19.2 335.0 57.5 Z M 335.0 57.5 " fill="none" stroke="#FEFFFE" stroke-width="17.00" stroke-linecap="round" stroke-linejoin="round" stroke-dasharray="0.0, 51.0" transform="matrix(1.00, 0.00, 0.00, -1.00, 9.7, 402.0)"></path></g></g><g><clipPath id="clip0x608001ca4d40"><path d="M 95.2 92.9 L 316.8 92.9 L 316.8 314.6 L 95.2 314.6 Z M 95.2 92.9 "></path></clipPath><g clip-path="url(#clip0x608001ca4d40)"><path d="M 181.5 31.1 C 223.0 72.7 223.0 140.0 181.5 181.5 C 140.0 223.0 72.7 223.0 31.1 181.5 C -10.4 140.0 -10.4 72.7 31.1 31.1 C 72.7 -10.4 140.0 -10.4 181.5 31.1 Z M 181.5 31.1 " fill="none" stroke="#FEFFFE" stroke-width="7.00" transform="matrix(1.00, 0.00, 0.00, -1.00, 99.7, 310.1)"></path></g></g><g><clipPath id="clip0x608001ca4da0"><path d="M 64.9 62.6 L 347.1 62.6 L 347.1 344.9 L 64.9 344.9 Z M 64.9 62.6 "></path></clipPath><g clip-path="url(#clip0x608001ca4da0)"><path d="M 233.2 40.0 C 286.6 93.4 286.6 179.9 233.2 233.2 C 179.9 286.6 93.4 286.6 40.0 233.2 C -13.3 179.9 -13.3 93.4 40.0 40.0 C 93.4 -13.3 179.9 -13.3 233.2 40.0 Z M 233.2 40.0 " fill="none" stroke="#FEFFFE" stroke-width="7.00" transform="matrix(1.00, 0.00, 0.00, -1.00, 69.4, 340.4)"></path></g></g></g></svg>