<?xml version="1.0" encoding="UTF-8" standalone="no"?><svg xmlns="http://www.w3.org/2000/svg" xmlns:xlink="http://www.w3.org/1999/xlink" clip-rule="evenodd" stroke-miterlimit="10" viewBox="0 0 1024 768"><desc>SVG generated by Keynote</desc><defs></defs><g transform="matrix(1.00, 0.00, -0.00, -1.00, 0.0, 768.0)"><path d="M 0.0 768.0 L 1024.0 768.0 L 1024.0 0.0 L 0.0 0.0 Z M 0.0 768.0 " fill="#164E86"></path><g><clipPath id="clip0x6080024a3d80"><path d="M 0.0 768.0 L 1024.0 768.0 L 1024.0 0.0 L 0.0 0.0 Z M 0.0 768.0 "></path></clipPath><g clip-path="url(#clip0x6080024a3d80)"><image xlink:href="../../9E8F32BC-9589-436B-8D50-A1D9D0F5E178/assets/ECC3D887976EB14B3030A5A5497A08FD.png" width="1024.00" height="768.00" transform="matrix(1.00, 0.00, -0.00, -1.00, 0.0, 768.0)"></image></g></g><path d="M 0.0 9.6 C 163.2 41.2 347.0 45.8 517.5 22.8 C 730.4 -6.0 969.9 -19.7 994.1 57.7 C 1005.7 94.9 987.5 141.8 850.2 137.3 C 759.0 134.3 667.9 140.8 575.9 142.2 C 429.3 144.4 282.3 126.5 309.6 79.4 C 337.4 31.6 483.1 51.1 610.7 70.6 C 739.2 90.3 909.5 91.8 927.8 150.2 C 943.6 200.8 819.1 238.3 691.7 223.3 C 562.4 208.1 446.5 143.9 326.6 178.0 C 268.8 194.4 242.4 233.8 169.2 231.3 C 95.4 228.8 62.5 187.8 112.1 156.8 C 139.4 139.7 184.9 130.3 232.8 129.8 C 366.5 128.4 444.5 187.3 554.3 218.2 C 641.0 242.6 746.5 248.7 849.0 243.7 C 942.8 239.2 1033.1 225.8 1113.6 204.4 " fill="none" stroke="#FEFFFE" stroke-width="2.00" transform="matrix(1.00, 0.00, 0.00, -1.00, -15.0, 584.4)"></path><path d="M 2.5 183.5 L 1021.5 183.5 L 1021.5 1.5 L 2.5 1.5 Z M 2.5 184.0 " fill="#F38F18"></path><path d="M 0.0 0.5 L 1019.0 0.5 L 1019.0 182.5 L 0.0 182.5 Z M 0.0 0.0 " fill="none" stroke="#FEFFFE" stroke-width="5.00" transform="matrix(1.00, 0.00, 0.00, -1.00, 2.5, 184.0)"></path><g><clipPath id="clip0x6180028a82e0"><path d="M -1.8 4.8 L 1025.7 4.8 L 1025.7 181.0 L -1.8 181.0 Z M -1.8 4.8 "></path></clipPath><g clip-path="url(#clip0x6180028a82e0)"><text xml:space="preserve" font-family="Helvetica-Bold,Helvetica" font-weight="bold" font-size="45.0" fill="#FEFFFE" transform="matrix(1.00, 0.00, -0.00, -1.00, 308.2, 76.3)">J</text><text xml:space="preserve" font-family="Helvetica-Bold,Helvetica" font-weight="bold" font-size="45.0" fill="#FEFFFE" transform="matrix(1.00, 0.00, -0.00, -1.00, 333.3, 76.3)">e</text><text xml:space="preserve" font-family="Helvetica-Bold,Helvetica" font-weight="bold" font-size="45.0" fill="#FEFFFE" transform="matrix(1.00, 0.00, -0.00, -1.00, 358.3, 76.3)"> </text><text xml:space="preserve" font-family="Helvetica-Bold,Helvetica" font-weight="bold" font-size="45.0" fill="#FEFFFE" transform="matrix(1.00, 0.00, -0.00, -1.00, 370.8, 76.3)">h</text><text xml:space="preserve" font-family="Helvetica-Bold,Helvetica" font-weight="bold" font-size="45.0" fill="#FEFFFE" transform="matrix(1.00, 0.00, -0.00, -1.00, 398.3, 76.3)">e</text><text xml:space="preserve" font-family="Helvetica-Bold,Helvetica" font-weight="bold" font-size="45.0" fill="#FEFFFE" transform="matrix(1.00, 0.00, -0.00, -1.00, 423.3, 76.3)">b</text><text xml:space="preserve" font-family="Helvetica-Bold,Helvetica" font-weight="bold" font-size="45.0" fill="#FEFFFE" transform="matrix(1.00, 0.00, -0.00, -1.00, 450.8, 76.3)">t</text><text xml:space="preserve" font-family="Helvetica-Bold,Helvetica" font-weight="bold" font-size="45.0" fill="#FEFFFE" transform="matrix(1.00, 0.00, -0.00, -1.00, 465.8, 76.3)"> </text><text xml:space="preserve" font-family="Helvetica-Bold,Helvetica" font-weight="bold" font-size="45.0" fill="#FEFFFE" transform="matrix(1.00, 0.00, -0.00, -1.00, 478.3, 76.3)">h</text><text xml:space="preserve" font-family="Helvetica-Bold,Helvetica" font-weight="bold" font-size="45.0" fill="#FEFFFE" transform="matrix(1.00, 0.00, -0.00, -1.00, 505.8, 76.3)">e</text><text xml:space="preserve" font-family="Helvetica-Bold,Helvetica" font-weight="bold" font-size="45.0" fill="#FEFFFE" transform="matrix(1.00, 0.00, -0.00, -1.00, 530.8, 76.3)">t</text><text xml:space="preserve" font-family="Helvetica-Bold,Helvetica" font-weight="bold" font-size="45.0" fill="#FEFFFE" transform="matrix(1.00, 0.00, -0.00, -1.00, 545.8, 76.3)"> </text><text xml:space="preserve" font-family="Helvetica-Bold,Helvetica" font-weight="bold" font-size="45.0" fill="#FEFFFE" transform="matrix(1.00, 0.00, -0.00, -1.00, 558.3, 76.3)">H</text><text xml:space="preserve" font-family="Helvetica-Bold,Helvetica" font-weight="bold" font-size="45.0" fill="#FEFFFE" transform="matrix(1.00, 0.00, -0.00, -1.00, 590.8, 76.3)">A</text><text xml:space="preserve" font-family="Helvetica-Bold,Helvetica" font-weight="bold" font-size="45.0" fill="#FEFFFE" transform="matrix(1.00, 0.00, -0.00, -1.00, 623.3, 76.3)">A</text><text xml:space="preserve" font-family="Helvetica-Bold,Helvetica" font-weight="bold" font-size="45.0" fill="#FEFFFE" transform="matrix(1.00, 0.00, -0.00, -1.00, 655.8, 76.3)">R</text><text xml:space="preserve" font-family="Helvetica-Bold,Helvetica" font-weight="bold" font-size="45.0" fill="#FEFFFE" transform="matrix(1.00, 0.00, -0.00, -1.00, 688.3, 76.3)"> </text><text xml:space="preserve" font-family="Helvetica-Bold,Helvetica" font-weight="bold" font-size="45.0" fill="#FEFFFE" transform="matrix(1.00, 0.00, -0.00, -1.00, 700.8, 76.3)">!</text></g></g></g></svg>