<?xml version="1.0" encoding="UTF-8" standalone="no"?><svg xmlns="http://www.w3.org/2000/svg" xmlns:xlink="http://www.w3.org/1999/xlink" clip-rule="evenodd" stroke-miterlimit="10" viewBox="0 0 715 364"><desc>SVG generated by Keynote</desc><defs></defs><g transform="matrix(1.00, 0.00, -0.00, -1.00, 0.0, 364.0)"><path d="M 0.0 14.1 C 104.2 60.2 221.5 67.1 330.3 33.3 C 466.2 -8.8 619.1 -28.8 634.5 84.4 C 641.9 138.9 630.3 207.4 542.7 200.9 C 484.5 196.5 426.3 206.1 367.6 208.1 C 274.0 211.4 180.2 185.1 197.6 116.2 C 215.3 46.2 308.4 74.8 389.8 103.3 C 471.8 132.1 580.5 134.3 592.2 219.9 C 602.3 293.8 522.8 348.7 441.5 326.8 C 359.0 304.5 285.0 210.6 208.5 260.5 C 171.6 284.5 154.7 342.1 108.0 338.5 C 60.9 334.8 39.9 274.8 71.5 229.5 C 89.0 204.5 118.0 190.6 148.6 189.9 C 234.0 187.9 283.7 274.1 353.8 319.3 C 409.1 354.9 476.5 363.9 541.9 356.7 C 601.8 350.1 659.4 330.4 710.8 299.0 " fill="none" stroke="#FEFFFE" stroke-width="2.00" transform="matrix(1.00, 0.00, 0.00, -1.00, 2.1, 361.5)"></path></g></svg>