<?xml version="1.0" encoding="UTF-8" standalone="no"?><svg xmlns="http://www.w3.org/2000/svg" xmlns:xlink="http://www.w3.org/1999/xlink" clip-rule="evenodd" stroke-miterlimit="10" viewBox="0 0 84 84"><desc>SVG generated by Keynote</desc><defs></defs><g transform="matrix(1.00, 0.00, -0.00, -1.00, 0.0, 84.0)"><g><clipPath id="clip0x618002ca1e60"><path d="M 27.0 26.9 L 57.2 26.9 L 57.2 57.1 L 27.0 57.1 Z M 27.0 26.9 "></path></clipPath><g clip-path="url(#clip0x618002ca1e60)"><path d="M 22.4 3.8 C 27.5 9.0 27.5 17.2 22.4 22.4 C 17.2 27.5 9.0 27.5 3.8 22.4 C -1.3 17.2 -1.3 9.0 3.8 3.8 C 9.0 -1.3 17.2 -1.3 22.4 3.8 Z M 22.4 3.8 " fill="none" stroke="#FEFFFE" stroke-width="2.00" transform="matrix(1.00, 0.00, 0.00, -1.00, 29.0, 55.1)"></path></g></g><g><clipPath id="clip0x618002ca25e0"><path d="M 18.5 18.4 L 65.8 18.4 L 65.8 65.7 L 18.5 65.7 Z M 18.5 18.4 "></path></clipPath><g clip-path="url(#clip0x618002ca25e0)"><path d="M 37.0 6.3 C 45.5 14.8 45.5 28.5 37.0 37.0 C 28.5 45.5 14.8 45.5 6.3 37.0 C -2.1 28.5 -2.1 14.8 6.3 6.3 C 14.8 -2.1 28.5 -2.1 37.0 6.3 Z M 37.0 6.3 " fill="none" stroke="#FEFFFE" stroke-width="2.00" transform="matrix(1.00, 0.00, 0.00, -1.00, 20.5, 63.7)"></path></g></g><g><clipPath id="clip0x618002ca2820"><path d="M 0.5 0.4 L 83.8 0.4 L 83.8 83.7 L 0.5 83.7 Z M 0.5 0.4 "></path></clipPath><g clip-path="url(#clip0x618002ca2820)"><path d="M 64.3 11.0 C 79.0 25.7 79.0 49.6 64.3 64.3 C 49.6 79.0 25.7 79.0 11.0 64.3 C -3.7 49.6 -3.7 25.7 11.0 11.0 C 25.7 -3.7 49.6 -3.7 64.3 11.0 Z M 64.3 11.0 " fill="none" stroke="#FEFFFE" stroke-width="6.00" stroke-linecap="round" stroke-linejoin="round" stroke-dasharray="0.0, 18.0" transform="matrix(1.00, 0.00, 0.00, -1.00, 4.5, 79.7)"></path></g></g></g></svg>