<?xml version="1.0" encoding="UTF-8" standalone="no"?><svg xmlns="http://www.w3.org/2000/svg" xmlns:xlink="http://www.w3.org/1999/xlink" clip-rule="evenodd" stroke-miterlimit="10" viewBox="0 0 65 66"><desc>SVG generated by Keynote</desc><defs></defs><g transform="matrix(1.00, 0.00, -0.00, -1.00, 0.0, 66.0)"><g><clipPath id="clip0x6000034bb1e0"><path d="M 20.6 21.1 L 44.5 21.1 L 44.5 45.0 L 20.6 45.0 Z M 20.6 21.1 "></path></clipPath><g clip-path="url(#clip0x6000034bb1e0)"><path d="M 17.0 2.9 C 20.9 6.8 20.9 13.1 17.0 17.0 C 13.1 20.9 6.8 20.9 2.9 17.0 C -1.0 13.1 -1.0 6.8 2.9 2.9 C 6.8 -1.0 13.1 -1.0 17.0 2.9 Z M 17.0 2.9 " fill="none" stroke="#FEFFFE" stroke-width="2.00" transform="matrix(1.00, 0.00, 0.00, -1.00, 22.6, 43.0)"></path></g></g><g><clipPath id="clip0x6000034bb8a0"><path d="M 15.3 15.8 L 49.7 15.8 L 49.7 50.2 L 15.3 50.2 Z M 15.3 15.8 "></path></clipPath><g clip-path="url(#clip0x6000034bb8a0)"><path d="M 26.0 4.5 C 31.9 10.4 31.9 20.0 26.0 26.0 C 20.0 31.9 10.4 31.9 4.5 26.0 C -1.5 20.0 -1.5 10.4 4.5 4.5 C 10.4 -1.5 20.0 -1.5 26.0 4.5 Z M 26.0 4.5 " fill="none" stroke="#FEFFFE" stroke-width="2.00" transform="matrix(1.00, 0.00, 0.00, -1.00, 17.3, 48.2)"></path></g></g><g><clipPath id="clip0x6000034bbae0"><path d="M 10.5 11.0 L 54.6 11.0 L 54.6 55.1 L 10.5 55.1 Z M 10.5 11.0 "></path></clipPath><g clip-path="url(#clip0x6000034bbae0)"><path d="M 34.2 5.9 C 42.0 13.7 42.0 26.4 34.2 34.2 C 26.4 42.0 13.7 42.0 5.9 34.2 C -2.0 26.4 -2.0 13.7 5.9 5.9 C 13.7 -2.0 26.4 -2.0 34.2 5.9 Z M 34.2 5.9 " fill="none" stroke="#FEFFFE" stroke-width="2.00" transform="matrix(1.00, 0.00, 0.00, -1.00, 12.5, 53.1)"></path></g></g><g><clipPath id="clip0x6000034bbd20"><path d="M 0.4 0.9 L 64.7 0.9 L 64.7 65.1 L 0.4 65.1 Z M 0.4 0.9 "></path></clipPath><g clip-path="url(#clip0x6000034bbd20)"><path d="M 48.9 8.4 C 60.0 19.6 60.0 37.7 48.9 48.9 C 37.7 60.0 19.6 60.0 8.4 48.9 C -2.8 37.7 -2.8 19.6 8.4 8.4 C 19.6 -2.8 37.7 -2.8 48.9 8.4 Z M 48.9 8.4 " fill="none" stroke="#FEFFFE" stroke-width="5.00" stroke-linecap="round" stroke-linejoin="round" stroke-dasharray="0.0, 15.0" transform="matrix(1.00, 0.00, 0.00, -1.00, 3.9, 61.6)"></path></g></g></g></svg>