<?xml version="1.0" encoding="UTF-8" standalone="no"?><svg xmlns="http://www.w3.org/2000/svg" xmlns:xlink="http://www.w3.org/1999/xlink" clip-rule="evenodd" stroke-miterlimit="10" viewBox="0 0 318 317"><desc>SVG generated by Keynote</desc><defs></defs><g transform="matrix(1.00, 0.00, -0.00, -1.00, 0.0, 317.0)"><g><clipPath id="clip0x6000034ba1c0"><path d="M 102.4 102.2 L 215.6 102.2 L 215.6 215.3 L 102.4 215.3 Z M 102.4 102.2 "></path></clipPath><g clip-path="url(#clip0x6000034ba1c0)"><path d="M 90.6 15.5 C 111.3 36.3 111.3 69.9 90.6 90.6 C 69.9 111.3 36.3 111.3 15.5 90.6 C -5.2 69.9 -5.2 36.3 15.5 15.5 C 36.3 -5.2 69.9 -5.2 90.6 15.5 Z M 90.6 15.5 " fill="none" stroke="#FEFFFE" stroke-width="5.00" transform="matrix(1.00, 0.00, 0.00, -1.00, 105.9, 211.8)"></path></g></g><g><clipPath id="clip0x6000034ba8e0"><path d="M 74.4 74.2 L 243.6 74.2 L 243.6 243.3 L 74.4 243.3 Z M 74.4 74.2 "></path></clipPath><g clip-path="url(#clip0x6000034ba8e0)"><path d="M 138.4 23.7 C 170.0 55.4 170.0 106.7 138.4 138.4 C 106.7 170.0 55.4 170.0 23.7 138.4 C -7.9 106.7 -7.9 55.4 23.7 23.7 C 55.4 -7.9 106.7 -7.9 138.4 23.7 Z M 138.4 23.7 " fill="none" stroke="#FEFFFE" stroke-width="5.00" transform="matrix(1.00, 0.00, 0.00, -1.00, 77.9, 239.8)"></path></g></g><g><clipPath id="clip0x6000034bab20"><path d="M 48.7 48.4 L 269.3 48.4 L 269.3 269.1 L 48.7 269.1 Z M 48.7 48.4 "></path></clipPath><g clip-path="url(#clip0x6000034bab20)"><path d="M 182.4 31.3 C 224.1 73.0 224.1 140.6 182.4 182.4 C 140.6 224.1 73.0 224.1 31.3 182.4 C -10.4 140.6 -10.4 73.0 31.3 31.3 C 73.0 -10.4 140.6 -10.4 182.4 31.3 Z M 182.4 31.3 " fill="none" stroke="#FEFFFE" stroke-width="5.00" transform="matrix(1.00, 0.00, 0.00, -1.00, 52.2, 265.6)"></path></g></g><g><clipPath id="clip0x6000034bad60"><path d="M 0.9 0.7 L 317.1 0.7 L 317.1 316.8 L 0.9 316.8 Z M 0.9 0.7 "></path></clipPath><g clip-path="url(#clip0x6000034bad60)"><path d="M 260.4 44.7 C 320.0 104.3 320.0 200.9 260.4 260.4 C 200.9 320.0 104.3 320.0 44.7 260.4 C -14.9 200.9 -14.9 104.3 44.7 44.7 C 104.3 -14.9 200.9 -14.9 260.4 44.7 Z M 260.4 44.7 " fill="none" stroke="#FEFFFE" stroke-width="9.00" stroke-linecap="round" stroke-linejoin="round" stroke-dasharray="0.0, 27.0" transform="matrix(1.00, 0.00, 0.00, -1.00, 6.4, 311.3)"></path></g></g></g></svg>