<?xml version="1.0" encoding="UTF-8" standalone="no"?><svg xmlns="http://www.w3.org/2000/svg" xmlns:xlink="http://www.w3.org/1999/xlink" clip-rule="evenodd" stroke-miterlimit="10" viewBox="0 0 1024 768"><desc>SVG generated by Keynote</desc><defs></defs><g transform="matrix(1.00, 0.00, -0.00, -1.00, 0.0, 768.0)"><path d="M 0.0 768.0 L 1024.0 768.0 L 1024.0 0.0 L 0.0 0.0 Z M 0.0 768.0 " fill="#164E86"></path><image xlink:href="../../7A4B9083-F0BC-4A7F-BACB-479FBA8B8C52/assets/651D94A008104A51DE21A3F1F193ED9C.png" width="1024.00" height="768.00" transform="matrix(1.00, 0.00, -0.00, -1.00, 0.0, 768.0)"></image><path d="M 2.5 183.5 L 1021.5 183.5 L 1021.5 1.5 L 2.5 1.5 Z M 2.5 184.0 " fill="#EB5C56"></path><path d="M 0.0 0.5 L 1019.0 0.5 L 1019.0 182.5 L 0.0 182.5 Z M 0.0 0.0 " fill="none" stroke="#FEFFFE" stroke-width="5.00" transform="matrix(1.00, 0.00, 0.00, -1.00, 2.5, 184.0)"></path><g><clipPath id="clip0x618001ebab20"><path d="M -1.5 4.8 L 1025.5 4.8 L 1025.5 181.0 L -1.5 181.0 Z M -1.5 4.8 "></path></clipPath><g clip-path="url(#clip0x618001ebab20)"><text xml:space="preserve" font-family="Helvetica-Bold,Helvetica" font-weight="bold" font-size="44.0" fill="#FEFFFE" transform="matrix(1.00, 0.00, -0.00, -1.00, 137.9, 117.1)">J</text><text xml:space="preserve" font-family="Helvetica-Bold,Helvetica" font-weight="bold" font-size="44.0" fill="#FEFFFE" transform="matrix(1.00, 0.00, -0.00, -1.00, 162.4, 117.1)">e</text><text xml:space="preserve" font-family="Helvetica-Bold,Helvetica" font-weight="bold" font-size="44.0" fill="#FEFFFE" transform="matrix(1.00, 0.00, -0.00, -1.00, 186.9, 117.1)"> </text><text xml:space="preserve" font-family="Helvetica-Bold,Helvetica" font-weight="bold" font-size="44.0" fill="#FEFFFE" transform="matrix(1.00, 0.00, -0.00, -1.00, 199.1, 117.1)">h</text><text xml:space="preserve" font-family="Helvetica-Bold,Helvetica" font-weight="bold" font-size="44.0" fill="#FEFFFE" transform="matrix(1.00, 0.00, -0.00, -1.00, 226.0, 117.1)">e</text><text xml:space="preserve" font-family="Helvetica-Bold,Helvetica" font-weight="bold" font-size="44.0" fill="#FEFFFE" transform="matrix(1.00, 0.00, -0.00, -1.00, 250.4, 117.1)">b</text><text xml:space="preserve" font-family="Helvetica-Bold,Helvetica" font-weight="bold" font-size="44.0" fill="#FEFFFE" transform="matrix(1.00, 0.00, -0.00, -1.00, 277.3, 117.1)">t</text><text xml:space="preserve" font-family="Helvetica-Bold,Helvetica" font-weight="bold" font-size="44.0" fill="#FEFFFE" transform="matrix(1.00, 0.00, -0.00, -1.00, 292.0, 117.1)"> </text><text xml:space="preserve" font-family="Helvetica-Bold,Helvetica" font-weight="bold" font-size="44.0" fill="#FEFFFE" transform="matrix(1.00, 0.00, -0.00, -1.00, 304.2, 117.1)">e</text><text xml:space="preserve" font-family="Helvetica-Bold,Helvetica" font-weight="bold" font-size="44.0" fill="#FEFFFE" transform="matrix(1.00, 0.00, -0.00, -1.00, 328.7, 117.1)">e</text><text xml:space="preserve" font-family="Helvetica-Bold,Helvetica" font-weight="bold" font-size="44.0" fill="#FEFFFE" transform="matrix(1.00, 0.00, -0.00, -1.00, 353.1, 117.1)">n</text><text xml:space="preserve" font-family="Helvetica-Bold,Helvetica" font-weight="bold" font-size="44.0" fill="#FEFFFE" transform="matrix(1.00, 0.00, -0.00, -1.00, 380.0, 117.1)"> </text><text xml:space="preserve" font-family="Helvetica-Bold,Helvetica" font-weight="bold" font-size="44.0" fill="#FEFFFE" transform="matrix(1.00, 0.00, -0.00, -1.00, 392.2, 117.1)">V</text><text xml:space="preserve" font-family="Helvetica-Bold,Helvetica" font-weight="bold" font-size="44.0" fill="#FEFFFE" transform="matrix(1.00, 0.00, -0.00, -1.00, 421.6, 117.1)">E</text><text xml:space="preserve" font-family="Helvetica-Bold,Helvetica" font-weight="bold" font-size="44.0" fill="#FEFFFE" transform="matrix(1.00, 0.00, -0.00, -1.00, 450.9, 117.1)">R</text><text xml:space="preserve" font-family="Helvetica-Bold,Helvetica" font-weight="bold" font-size="44.0" fill="#FEFFFE" transform="matrix(1.00, 0.00, -0.00, -1.00, 482.7, 117.1)">D</text><text xml:space="preserve" font-family="Helvetica-Bold,Helvetica" font-weight="bold" font-size="44.0" fill="#FEFFFE" transform="matrix(1.00, 0.00, -0.00, -1.00, 514.5, 117.1)">R</text><text xml:space="preserve" font-family="Helvetica-Bold,Helvetica" font-weight="bold" font-size="44.0" fill="#FEFFFE" transform="matrix(1.00, 0.00, -0.00, -1.00, 546.3, 117.1)">I</text><text xml:space="preserve" font-family="Helvetica-Bold,Helvetica" font-weight="bold" font-size="44.0" fill="#FEFFFE" transform="matrix(1.00, 0.00, -0.00, -1.00, 558.5, 117.1)">E</text><text xml:space="preserve" font-family="Helvetica-Bold,Helvetica" font-weight="bold" font-size="44.0" fill="#FEFFFE" transform="matrix(1.00, 0.00, -0.00, -1.00, 587.8, 117.1)">T</text><text xml:space="preserve" font-family="Helvetica-Bold,Helvetica" font-weight="bold" font-size="44.0" fill="#FEFFFE" transform="matrix(1.00, 0.00, -0.00, -1.00, 614.7, 117.1)">I</text><text xml:space="preserve" font-family="Helvetica-Bold,Helvetica" font-weight="bold" font-size="44.0" fill="#FEFFFE" transform="matrix(1.00, 0.00, -0.00, -1.00, 626.9, 117.1)">G</text><text xml:space="preserve" font-family="Helvetica-Bold,Helvetica" font-weight="bold" font-size="44.0" fill="#FEFFFE" transform="matrix(1.00, 0.00, -0.00, -1.00, 661.1, 117.1)">E</text><text xml:space="preserve" font-family="Helvetica-Bold,Helvetica" font-weight="bold" font-size="44.0" fill="#FEFFFE" transform="matrix(1.00, 0.00, -0.00, -1.00, 690.5, 117.1)"> </text><text xml:space="preserve" font-family="Helvetica-Bold,Helvetica" font-weight="bold" font-size="44.0" fill="#FEFFFE" transform="matrix(1.00, 0.00, -0.00, -1.00, 702.7, 117.1)">d</text><text xml:space="preserve" font-family="Helvetica-Bold,Helvetica" font-weight="bold" font-size="44.0" fill="#FEFFFE" transform="matrix(1.00, 0.00, -0.00, -1.00, 729.6, 117.1)">i</text><text xml:space="preserve" font-family="Helvetica-Bold,Helvetica" font-weight="bold" font-size="44.0" fill="#FEFFFE" transform="matrix(1.00, 0.00, -0.00, -1.00, 741.8, 117.1)">a</text><text xml:space="preserve" font-family="Helvetica-Bold,Helvetica" font-weight="bold" font-size="44.0" fill="#FEFFFE" transform="matrix(1.00, 0.00, -0.00, -1.00, 766.3, 117.1)">m</text><text xml:space="preserve" font-family="Helvetica-Bold,Helvetica" font-weight="bold" font-size="44.0" fill="#FEFFFE" transform="matrix(1.00, 0.00, -0.00, -1.00, 805.4, 117.1)">a</text><text xml:space="preserve" font-family="Helvetica-Bold,Helvetica" font-weight="bold" font-size="44.0" fill="#FEFFFE" transform="matrix(1.00, 0.00, -0.00, -1.00, 829.9, 117.1)">n</text><text xml:space="preserve" font-family="Helvetica-Bold,Helvetica" font-weight="bold" font-size="44.0" fill="#FEFFFE" transform="matrix(1.00, 0.00, -0.00, -1.00, 856.7, 117.1)">t</text><text xml:space="preserve" font-family="Helvetica-Bold,Helvetica" font-weight="bold" font-size="44.0" fill="#FEFFFE" transform="matrix(1.00, 0.00, -0.00, -1.00, 871.4, 117.1)">!</text><text xml:space="preserve" font-family="Helvetica-Light,Helvetica" font-size="34.0" fill="#FEFFFE" transform="matrix(1.00, 0.00, -0.00, -1.00, 303.2, 73.8)">A</text><text xml:space="preserve" font-family="Helvetica-Light,Helvetica" font-size="34.0" fill="#FEFFFE" transform="matrix(1.00, 0.00, -0.00, -1.00, 325.9, 73.8)">l</text><text xml:space="preserve" font-family="Helvetica-Light,Helvetica" font-size="34.0" fill="#FEFFFE" transform="matrix(1.00, 0.00, -0.00, -1.00, 333.5, 73.8)">s</text><text xml:space="preserve" font-family="Helvetica-Light,Helvetica" font-size="34.0" fill="#FEFFFE" transform="matrix(1.00, 0.00, -0.00, -1.00, 350.5, 73.8)"> </text><text xml:space="preserve" font-family="Helvetica-Light,Helvetica" font-size="34.0" fill="#FEFFFE" transform="matrix(1.00, 0.00, -0.00, -1.00, 359.9, 73.8)">j</text><text xml:space="preserve" font-family="Helvetica-Light,Helvetica" font-size="34.0" fill="#FEFFFE" transform="matrix(1.00, 0.00, -0.00, -1.00, 367.5, 73.8)">e</text><text xml:space="preserve" font-family="Helvetica-Light,Helvetica" font-size="34.0" fill="#FEFFFE" transform="matrix(1.00, 0.00, -0.00, -1.00, 386.4, 73.8)"> </text><text xml:space="preserve" font-family="Helvetica-Light,Helvetica" font-size="34.0" fill="#FEFFFE" transform="matrix(1.00, 0.00, -0.00, -1.00, 395.8, 73.8)">i</text><text xml:space="preserve" font-family="Helvetica-Light,Helvetica" font-size="34.0" fill="#FEFFFE" transform="matrix(1.00, 0.00, -0.00, -1.00, 403.4, 73.8)">e</text><text xml:space="preserve" font-family="Helvetica-Light,Helvetica" font-size="34.0" fill="#FEFFFE" transform="matrix(1.00, 0.00, -0.00, -1.00, 422.3, 73.8)">t</text><text xml:space="preserve" font-family="Helvetica-Light,Helvetica" font-size="34.0" fill="#FEFFFE" transform="matrix(1.00, 0.00, -0.00, -1.00, 431.7, 73.8)">s</text><text xml:space="preserve" font-family="Helvetica-Light,Helvetica" font-size="34.0" fill="#FEFFFE" transform="matrix(1.00, 0.00, -0.00, -1.00, 448.7, 73.8)"> </text><text xml:space="preserve" font-family="Helvetica-Light,Helvetica" font-size="34.0" fill="#FEFFFE" transform="matrix(1.00, 0.00, -0.00, -1.00, 458.2, 73.8)">d</text><text xml:space="preserve" font-family="Helvetica-Light,Helvetica" font-size="34.0" fill="#FEFFFE" transform="matrix(1.00, 0.00, -0.00, -1.00, 479.0, 73.8)">i</text><text xml:space="preserve" font-family="Helvetica-Light,Helvetica" font-size="34.0" fill="#FEFFFE" transform="matrix(1.00, 0.00, -0.00, -1.00, 486.5, 73.8)">e</text><text xml:space="preserve" font-family="Helvetica-Light,Helvetica" font-size="34.0" fill="#FEFFFE" transform="matrix(1.00, 0.00, -0.00, -1.00, 505.4, 73.8)">r</text><text xml:space="preserve" font-family="Helvetica-Light,Helvetica" font-size="34.0" fill="#FEFFFE" transform="matrix(1.00, 0.00, -0.00, -1.00, 516.7, 73.8)">b</text><text xml:space="preserve" font-family="Helvetica-Light,Helvetica" font-size="34.0" fill="#FEFFFE" transform="matrix(1.00, 0.00, -0.00, -1.00, 537.5, 73.8)">a</text><text xml:space="preserve" font-family="Helvetica-Light,Helvetica" font-size="34.0" fill="#FEFFFE" transform="matrix(1.00, 0.00, -0.00, -1.00, 556.4, 73.8)">a</text><text xml:space="preserve" font-family="Helvetica-Light,Helvetica" font-size="34.0" fill="#FEFFFE" transform="matrix(1.00, 0.00, -0.00, -1.00, 575.3, 73.8)">r</text><text xml:space="preserve" font-family="Helvetica-Light,Helvetica" font-size="34.0" fill="#FEFFFE" transform="matrix(1.00, 0.00, -0.00, -1.00, 586.6, 73.8)">s</text><text xml:space="preserve" font-family="Helvetica-Light,Helvetica" font-size="34.0" fill="#FEFFFE" transform="matrix(1.00, 0.00, -0.00, -1.00, 603.6, 73.8)"> </text><text xml:space="preserve" font-family="Helvetica-Light,Helvetica" font-size="34.0" fill="#FEFFFE" transform="matrix(1.00, 0.00, -0.00, -1.00, 613.1, 73.8)">v</text><text xml:space="preserve" font-family="Helvetica-Light,Helvetica" font-size="34.0" fill="#FEFFFE" transform="matrix(1.00, 0.00, -0.00, -1.00, 630.1, 73.8)">e</text><text xml:space="preserve" font-family="Helvetica-Light,Helvetica" font-size="34.0" fill="#FEFFFE" transform="matrix(1.00, 0.00, -0.00, -1.00, 649.0, 73.8)">r</text><text xml:space="preserve" font-family="Helvetica-Light,Helvetica" font-size="34.0" fill="#FEFFFE" transform="matrix(1.00, 0.00, -0.00, -1.00, 660.3, 73.8)">l</text><text xml:space="preserve" font-family="Helvetica-Light,Helvetica" font-size="34.0" fill="#FEFFFE" transform="matrix(1.00, 0.00, -0.00, -1.00, 667.9, 73.8)">i</text><text xml:space="preserve" font-family="Helvetica-Light,Helvetica" font-size="34.0" fill="#FEFFFE" transform="matrix(1.00, 0.00, -0.00, -1.00, 675.4, 73.8)">e</text><text xml:space="preserve" font-family="Helvetica-Light,Helvetica" font-size="34.0" fill="#FEFFFE" transform="matrix(1.00, 0.00, -0.00, -1.00, 694.3, 73.8)">s</text><text xml:space="preserve" font-family="Helvetica-Light,Helvetica" font-size="34.0" fill="#FEFFFE" transform="matrix(1.00, 0.00, -0.00, -1.00, 711.3, 73.8)">t</text><text xml:space="preserve" font-family="Helvetica-Light,Helvetica" font-size="34.0" fill="#FEFFFE" transform="matrix(1.00, 0.00, -0.00, -1.00, 720.8, 73.8)"> </text><text xml:space="preserve" font-family="Helvetica-Light,Helvetica" font-size="34.0" fill="#FEFFFE" transform="matrix(1.00, 0.00, -0.00, -1.00, 291.9, 32.8)">z</text><text xml:space="preserve" font-family="Helvetica-Light,Helvetica" font-size="34.0" fill="#FEFFFE" transform="matrix(1.00, 0.00, -0.00, -1.00, 308.9, 32.8)">u</text><text xml:space="preserve" font-family="Helvetica-Light,Helvetica" font-size="34.0" fill="#FEFFFE" transform="matrix(1.00, 0.00, -0.00, -1.00, 327.8, 32.8)">l</text><text xml:space="preserve" font-family="Helvetica-Light,Helvetica" font-size="34.0" fill="#FEFFFE" transform="matrix(1.00, 0.00, -0.00, -1.00, 335.3, 32.8)"> </text><text xml:space="preserve" font-family="Helvetica-Light,Helvetica" font-size="34.0" fill="#FEFFFE" transform="matrix(1.00, 0.00, -0.00, -1.00, 344.8, 32.8)">j</text><text xml:space="preserve" font-family="Helvetica-Light,Helvetica" font-size="34.0" fill="#FEFFFE" transform="matrix(1.00, 0.00, -0.00, -1.00, 352.3, 32.8)">e</text><text xml:space="preserve" font-family="Helvetica-Light,Helvetica" font-size="34.0" fill="#FEFFFE" transform="matrix(1.00, 0.00, -0.00, -1.00, 371.2, 32.8)"> </text><text xml:space="preserve" font-family="Helvetica-Light,Helvetica" font-size="34.0" fill="#FEFFFE" transform="matrix(1.00, 0.00, -0.00, -1.00, 380.7, 32.8)">j</text><text xml:space="preserve" font-family="Helvetica-Light,Helvetica" font-size="34.0" fill="#FEFFFE" transform="matrix(1.00, 0.00, -0.00, -1.00, 388.2, 32.8)">e</text><text xml:space="preserve" font-family="Helvetica-Light,Helvetica" font-size="34.0" fill="#FEFFFE" transform="matrix(1.00, 0.00, -0.00, -1.00, 407.1, 32.8)"> </text><text xml:space="preserve" font-family="Helvetica-Light,Helvetica" font-size="34.0" fill="#FEFFFE" transform="matrix(1.00, 0.00, -0.00, -1.00, 416.6, 32.8)">V</text><text xml:space="preserve" font-family="Helvetica-Light,Helvetica" font-size="34.0" fill="#FEFFFE" transform="matrix(1.00, 0.00, -0.00, -1.00, 437.4, 32.8)">E</text><text xml:space="preserve" font-family="Helvetica-Light,Helvetica" font-size="34.0" fill="#FEFFFE" transform="matrix(1.00, 0.00, -0.00, -1.00, 458.1, 32.8)">R</text><text xml:space="preserve" font-family="Helvetica-Light,Helvetica" font-size="34.0" fill="#FEFFFE" transform="matrix(1.00, 0.00, -0.00, -1.00, 480.8, 32.8)">D</text><text xml:space="preserve" font-family="Helvetica-Light,Helvetica" font-size="34.0" fill="#FEFFFE" transform="matrix(1.00, 0.00, -0.00, -1.00, 505.4, 32.8)">R</text><text xml:space="preserve" font-family="Helvetica-Light,Helvetica" font-size="34.0" fill="#FEFFFE" transform="matrix(1.00, 0.00, -0.00, -1.00, 528.0, 32.8)">I</text><text xml:space="preserve" font-family="Helvetica-Light,Helvetica" font-size="34.0" fill="#FEFFFE" transform="matrix(1.00, 0.00, -0.00, -1.00, 537.5, 32.8)">E</text><text xml:space="preserve" font-family="Helvetica-Light,Helvetica" font-size="34.0" fill="#FEFFFE" transform="matrix(1.00, 0.00, -0.00, -1.00, 558.3, 32.8)">T</text><text xml:space="preserve" font-family="Helvetica-Light,Helvetica" font-size="34.0" fill="#FEFFFE" transform="matrix(1.00, 0.00, -0.00, -1.00, 577.2, 32.8)">I</text><text xml:space="preserve" font-family="Helvetica-Light,Helvetica" font-size="34.0" fill="#FEFFFE" transform="matrix(1.00, 0.00, -0.00, -1.00, 586.6, 32.8)">G</text><text xml:space="preserve" font-family="Helvetica-Light,Helvetica" font-size="34.0" fill="#FEFFFE" transform="matrix(1.00, 0.00, -0.00, -1.00, 613.1, 32.8)"> </text><text xml:space="preserve" font-family="Helvetica-Light,Helvetica" font-size="34.0" fill="#FEFFFE" transform="matrix(1.00, 0.00, -0.00, -1.00, 622.5, 32.8)">v</text><text xml:space="preserve" font-family="Helvetica-Light,Helvetica" font-size="34.0" fill="#FEFFFE" transform="matrix(1.00, 0.00, -0.00, -1.00, 639.5, 32.8)">o</text><text xml:space="preserve" font-family="Helvetica-Light,Helvetica" font-size="34.0" fill="#FEFFFE" transform="matrix(1.00, 0.00, -0.00, -1.00, 658.4, 32.8)">e</text><text xml:space="preserve" font-family="Helvetica-Light,Helvetica" font-size="34.0" fill="#FEFFFE" transform="matrix(1.00, 0.00, -0.00, -1.00, 677.3, 32.8)">l</text><text xml:space="preserve" font-family="Helvetica-Light,Helvetica" font-size="34.0" fill="#FEFFFE" transform="matrix(1.00, 0.00, -0.00, -1.00, 684.9, 32.8)">e</text><text xml:space="preserve" font-family="Helvetica-Light,Helvetica" font-size="34.0" fill="#FEFFFE" transform="matrix(1.00, 0.00, -0.00, -1.00, 703.8, 32.8)">n</text><text xml:space="preserve" font-family="Helvetica-Light,Helvetica" font-size="34.0" fill="#FEFFFE" transform="matrix(1.00, 0.00, -0.00, -1.00, 722.7, 32.8)">.</text></g></g><g><clipPath id="clip0x618001ebcec0"><path d="M 420.0 546.0 L 604.0 546.0 L 604.0 366.0 L 420.0 366.0 Z M 420.4 545.8 "></path></clipPath><g clip-path="url(#clip0x618001ebcec0)"><g><clipPath id="clip0x618001ebd040"><path d="M 420.4 365.8 L 603.6 365.8 L 603.6 545.8 L 420.4 545.8 Z M 420.4 365.8 "></path></clipPath><g clip-path="url(#clip0x618001ebd040)"><image xlink:href="../../D4859A4F-71BB-4C87-8831-F0D1B7742C94/assets/A3595B73A310D739EE6682D088273300.png" width="339.00" height="341.00" transform="matrix(0.54, 0.00, -0.00, -0.54, 420.4, 547.9)"></image></g></g></g></g><g><clipPath id="clip0x6000024a3000"><path d="M 306.2 252.0 L 717.8 252.0 L 717.8 663.5 L 306.2 663.5 Z M 306.2 252.0 "></path></clipPath><g clip-path="url(#clip0x6000024a3000)"><path d="M 335.0 57.5 C 411.7 134.1 411.7 258.4 335.0 335.0 C 258.4 411.7 134.1 411.7 57.5 335.0 C -19.2 258.4 -19.2 134.1 57.5 57.5 C 134.1 -19.2 258.4 -19.2 335.0 57.5 Z M 335.0 57.5 " fill="none" stroke="#FEFFFE" stroke-width="17.00" stroke-linecap="round" stroke-linejoin="round" stroke-dasharray="0.0, 51.0" transform="matrix(1.00, 0.00, 0.00, -1.00, 315.7, 654.0)"></path></g></g><g><clipPath id="clip0x6000024a3240"><path d="M 401.2 344.9 L 622.8 344.9 L 622.8 566.6 L 401.2 566.6 Z M 401.2 344.9 "></path></clipPath><g clip-path="url(#clip0x6000024a3240)"><path d="M 181.5 31.1 C 223.0 72.7 223.0 140.0 181.5 181.5 C 140.0 223.0 72.7 223.0 31.1 181.5 C -10.4 140.0 -10.4 72.7 31.1 31.1 C 72.7 -10.4 140.0 -10.4 181.5 31.1 Z M 181.5 31.1 " fill="none" stroke="#FEFFFE" stroke-width="7.00" transform="matrix(1.00, 0.00, 0.00, -1.00, 405.7, 562.1)"></path></g></g><g><clipPath id="clip0x6000024a3480"><path d="M 370.9 314.6 L 653.1 314.6 L 653.1 596.9 L 370.9 596.9 Z M 370.9 314.6 "></path></clipPath><g clip-path="url(#clip0x6000024a3480)"><path d="M 233.2 40.0 C 286.6 93.4 286.6 179.9 233.2 233.2 C 179.9 286.6 93.4 286.6 40.0 233.2 C -13.3 179.9 -13.3 93.4 40.0 40.0 C 93.4 -13.3 179.9 -13.3 233.2 40.0 Z M 233.2 40.0 " fill="none" stroke="#FEFFFE" stroke-width="7.00" transform="matrix(1.00, 0.00, 0.00, -1.00, 375.4, 592.4)"></path></g></g><image xlink:href="../../B9DCF13A-DE5C-4579-88D1-84484F441654/assets/9B7E54A405F4015B50D55716CD910191.png" width="63.00" height="65.00" transform="matrix(1.01, 0.00, -0.00, -1.00, 41.9, 739.7)" opacity="0.50"></image><path d="M 83.0 700.0 L 83.0 679.6 L 44.9 709.1 L 83.0 738.7 L 83.0 719.0 L 102.0 719.0 L 102.0 700.0 Z M 82.7 699.7 " fill="#FEFFFE"></path></g></svg>