<?xml version="1.0" encoding="UTF-8" standalone="no"?><svg xmlns="http://www.w3.org/2000/svg" xmlns:xlink="http://www.w3.org/1999/xlink" clip-rule="evenodd" stroke-miterlimit="10" viewBox="0 0 1024 768"><desc>SVG generated by Keynote</desc><defs></defs><g transform="matrix(1.00, 0.00, -0.00, -1.00, 0.0, 768.0)"><path d="M 0.0 768.0 L 1024.0 768.0 L 1024.0 0.0 L 0.0 0.0 Z M 0.0 768.0 " fill="#164E86"></path><image xlink:href="../../7A4B9083-F0BC-4A7F-BACB-479FBA8B8C52/assets/651D94A008104A51DE21A3F1F193ED9C.png" width="1024.00" height="768.00" transform="matrix(1.00, 0.00, -0.00, -1.00, 0.0, 768.0)"></image><path d="M 2.5 183.5 L 1021.5 183.5 L 1021.5 1.5 L 2.5 1.5 Z M 2.5 184.0 " fill="#EB5C56"></path><path d="M 0.0 0.5 L 1019.0 0.5 L 1019.0 182.5 L 0.0 182.5 Z M 0.0 0.0 " fill="none" stroke="#FEFFFE" stroke-width="5.00" transform="matrix(1.00, 0.00, 0.00, -1.00, 2.5, 184.0)"></path><g><clipPath id="clip0x608001ca14a0"><path d="M -1.5 4.8 L 1025.5 4.8 L 1025.5 181.0 L -1.5 181.0 Z M -1.5 4.8 "></path></clipPath><g clip-path="url(#clip0x608001ca14a0)"><text xml:space="preserve" font-family="Helvetica-Bold,Helvetica" font-weight="bold" font-size="44.0" fill="#FEFFFE" transform="matrix(1.00, 0.00, -0.00, -1.00, 154.2, 117.1)">J</text><text xml:space="preserve" font-family="Helvetica-Bold,Helvetica" font-weight="bold" font-size="44.0" fill="#FEFFFE" transform="matrix(1.00, 0.00, -0.00, -1.00, 178.7, 117.1)">e</text><text xml:space="preserve" font-family="Helvetica-Bold,Helvetica" font-weight="bold" font-size="44.0" fill="#FEFFFE" transform="matrix(1.00, 0.00, -0.00, -1.00, 203.1, 117.1)"> </text><text xml:space="preserve" font-family="Helvetica-Bold,Helvetica" font-weight="bold" font-size="44.0" fill="#FEFFFE" transform="matrix(1.00, 0.00, -0.00, -1.00, 215.4, 117.1)">h</text><text xml:space="preserve" font-family="Helvetica-Bold,Helvetica" font-weight="bold" font-size="44.0" fill="#FEFFFE" transform="matrix(1.00, 0.00, -0.00, -1.00, 242.2, 117.1)">e</text><text xml:space="preserve" font-family="Helvetica-Bold,Helvetica" font-weight="bold" font-size="44.0" fill="#FEFFFE" transform="matrix(1.00, 0.00, -0.00, -1.00, 266.7, 117.1)">b</text><text xml:space="preserve" font-family="Helvetica-Bold,Helvetica" font-weight="bold" font-size="44.0" fill="#FEFFFE" transform="matrix(1.00, 0.00, -0.00, -1.00, 293.6, 117.1)">t</text><text xml:space="preserve" font-family="Helvetica-Bold,Helvetica" font-weight="bold" font-size="44.0" fill="#FEFFFE" transform="matrix(1.00, 0.00, -0.00, -1.00, 308.2, 117.1)"> </text><text xml:space="preserve" font-family="Helvetica-Bold,Helvetica" font-weight="bold" font-size="44.0" fill="#FEFFFE" transform="matrix(1.00, 0.00, -0.00, -1.00, 320.4, 117.1)">e</text><text xml:space="preserve" font-family="Helvetica-Bold,Helvetica" font-weight="bold" font-size="44.0" fill="#FEFFFE" transform="matrix(1.00, 0.00, -0.00, -1.00, 344.9, 117.1)">e</text><text xml:space="preserve" font-family="Helvetica-Bold,Helvetica" font-weight="bold" font-size="44.0" fill="#FEFFFE" transform="matrix(1.00, 0.00, -0.00, -1.00, 369.4, 117.1)">n</text><text xml:space="preserve" font-family="Helvetica-Bold,Helvetica" font-weight="bold" font-size="44.0" fill="#FEFFFE" transform="matrix(1.00, 0.00, -0.00, -1.00, 396.3, 117.1)"> </text><text xml:space="preserve" font-family="Helvetica-Bold,Helvetica" font-weight="bold" font-size="44.0" fill="#FEFFFE" transform="matrix(1.00, 0.00, -0.00, -1.00, 408.5, 117.1)">V</text><text xml:space="preserve" font-family="Helvetica-Bold,Helvetica" font-weight="bold" font-size="44.0" fill="#FEFFFE" transform="matrix(1.00, 0.00, -0.00, -1.00, 437.8, 117.1)">E</text><text xml:space="preserve" font-family="Helvetica-Bold,Helvetica" font-weight="bold" font-size="44.0" fill="#FEFFFE" transform="matrix(1.00, 0.00, -0.00, -1.00, 467.2, 117.1)">R</text><text xml:space="preserve" font-family="Helvetica-Bold,Helvetica" font-weight="bold" font-size="44.0" fill="#FEFFFE" transform="matrix(1.00, 0.00, -0.00, -1.00, 498.2, 117.1)">V</text><text xml:space="preserve" font-family="Helvetica-Bold,Helvetica" font-weight="bold" font-size="44.0" fill="#FEFFFE" transform="matrix(1.00, 0.00, -0.00, -1.00, 527.5, 117.1)">E</text><text xml:space="preserve" font-family="Helvetica-Bold,Helvetica" font-weight="bold" font-size="44.0" fill="#FEFFFE" transform="matrix(1.00, 0.00, -0.00, -1.00, 556.9, 117.1)">E</text><text xml:space="preserve" font-family="Helvetica-Bold,Helvetica" font-weight="bold" font-size="44.0" fill="#FEFFFE" transform="matrix(1.00, 0.00, -0.00, -1.00, 586.2, 117.1)">L</text><text xml:space="preserve" font-family="Helvetica-Bold,Helvetica" font-weight="bold" font-size="44.0" fill="#FEFFFE" transform="matrix(1.00, 0.00, -0.00, -1.00, 613.1, 117.1)">D</text><text xml:space="preserve" font-family="Helvetica-Bold,Helvetica" font-weight="bold" font-size="44.0" fill="#FEFFFE" transform="matrix(1.00, 0.00, -0.00, -1.00, 644.9, 117.1)">E</text><text xml:space="preserve" font-family="Helvetica-Bold,Helvetica" font-weight="bold" font-size="44.0" fill="#FEFFFE" transform="matrix(1.00, 0.00, -0.00, -1.00, 674.2, 117.1)"> </text><text xml:space="preserve" font-family="Helvetica-Bold,Helvetica" font-weight="bold" font-size="44.0" fill="#FEFFFE" transform="matrix(1.00, 0.00, -0.00, -1.00, 686.5, 117.1)">d</text><text xml:space="preserve" font-family="Helvetica-Bold,Helvetica" font-weight="bold" font-size="44.0" fill="#FEFFFE" transform="matrix(1.00, 0.00, -0.00, -1.00, 713.3, 117.1)">i</text><text xml:space="preserve" font-family="Helvetica-Bold,Helvetica" font-weight="bold" font-size="44.0" fill="#FEFFFE" transform="matrix(1.00, 0.00, -0.00, -1.00, 725.5, 117.1)">a</text><text xml:space="preserve" font-family="Helvetica-Bold,Helvetica" font-weight="bold" font-size="44.0" fill="#FEFFFE" transform="matrix(1.00, 0.00, -0.00, -1.00, 750.0, 117.1)">m</text><text xml:space="preserve" font-family="Helvetica-Bold,Helvetica" font-weight="bold" font-size="44.0" fill="#FEFFFE" transform="matrix(1.00, 0.00, -0.00, -1.00, 789.1, 117.1)">a</text><text xml:space="preserve" font-family="Helvetica-Bold,Helvetica" font-weight="bold" font-size="44.0" fill="#FEFFFE" transform="matrix(1.00, 0.00, -0.00, -1.00, 813.6, 117.1)">n</text><text xml:space="preserve" font-family="Helvetica-Bold,Helvetica" font-weight="bold" font-size="44.0" fill="#FEFFFE" transform="matrix(1.00, 0.00, -0.00, -1.00, 840.5, 117.1)">t</text><text xml:space="preserve" font-family="Helvetica-Bold,Helvetica" font-weight="bold" font-size="44.0" fill="#FEFFFE" transform="matrix(1.00, 0.00, -0.00, -1.00, 855.1, 117.1)">!</text><text xml:space="preserve" font-family="Helvetica-Light,Helvetica" font-size="34.0" fill="#FEFFFE" transform="matrix(1.00, 0.00, -0.00, -1.00, 203.3, 73.8)">W</text><text xml:space="preserve" font-family="Helvetica-Light,Helvetica" font-size="34.0" fill="#FEFFFE" transform="matrix(1.00, 0.00, -0.00, -1.00, 232.3, 73.8)">a</text><text xml:space="preserve" font-family="Helvetica-Light,Helvetica" font-size="34.0" fill="#FEFFFE" transform="matrix(1.00, 0.00, -0.00, -1.00, 251.2, 73.8)">n</text><text xml:space="preserve" font-family="Helvetica-Light,Helvetica" font-size="34.0" fill="#FEFFFE" transform="matrix(1.00, 0.00, -0.00, -1.00, 270.1, 73.8)">n</text><text xml:space="preserve" font-family="Helvetica-Light,Helvetica" font-size="34.0" fill="#FEFFFE" transform="matrix(1.00, 0.00, -0.00, -1.00, 289.0, 73.8)">e</text><text xml:space="preserve" font-family="Helvetica-Light,Helvetica" font-size="34.0" fill="#FEFFFE" transform="matrix(1.00, 0.00, -0.00, -1.00, 307.9, 73.8)">e</text><text xml:space="preserve" font-family="Helvetica-Light,Helvetica" font-size="34.0" fill="#FEFFFE" transform="matrix(1.00, 0.00, -0.00, -1.00, 326.8, 73.8)">r</text><text xml:space="preserve" font-family="Helvetica-Light,Helvetica" font-size="34.0" fill="#FEFFFE" transform="matrix(1.00, 0.00, -0.00, -1.00, 338.2, 73.8)"> </text><text xml:space="preserve" font-family="Helvetica-Light,Helvetica" font-size="34.0" fill="#FEFFFE" transform="matrix(1.00, 0.00, -0.00, -1.00, 347.6, 73.8)">j</text><text xml:space="preserve" font-family="Helvetica-Light,Helvetica" font-size="34.0" fill="#FEFFFE" transform="matrix(1.00, 0.00, -0.00, -1.00, 355.2, 73.8)">e</text><text xml:space="preserve" font-family="Helvetica-Light,Helvetica" font-size="34.0" fill="#FEFFFE" transform="matrix(1.00, 0.00, -0.00, -1.00, 374.1, 73.8)"> </text><text xml:space="preserve" font-family="Helvetica-Light,Helvetica" font-size="34.0" fill="#FEFFFE" transform="matrix(1.00, 0.00, -0.00, -1.00, 383.5, 73.8)">n</text><text xml:space="preserve" font-family="Helvetica-Light,Helvetica" font-size="34.0" fill="#FEFFFE" transform="matrix(1.00, 0.00, -0.00, -1.00, 402.4, 73.8)">a</text><text xml:space="preserve" font-family="Helvetica-Light,Helvetica" font-size="34.0" fill="#FEFFFE" transform="matrix(1.00, 0.00, -0.00, -1.00, 421.3, 73.8)">a</text><text xml:space="preserve" font-family="Helvetica-Light,Helvetica" font-size="34.0" fill="#FEFFFE" transform="matrix(1.00, 0.00, -0.00, -1.00, 440.2, 73.8)">r</text><text xml:space="preserve" font-family="Helvetica-Light,Helvetica" font-size="34.0" fill="#FEFFFE" transform="matrix(1.00, 0.00, -0.00, -1.00, 451.5, 73.8)"> </text><text xml:space="preserve" font-family="Helvetica-Light,Helvetica" font-size="34.0" fill="#FEFFFE" transform="matrix(1.00, 0.00, -0.00, -1.00, 461.0, 73.8)">e</text><text xml:space="preserve" font-family="Helvetica-Light,Helvetica" font-size="34.0" fill="#FEFFFE" transform="matrix(1.00, 0.00, -0.00, -1.00, 479.9, 73.8)">e</text><text xml:space="preserve" font-family="Helvetica-Light,Helvetica" font-size="34.0" fill="#FEFFFE" transform="matrix(1.00, 0.00, -0.00, -1.00, 498.8, 73.8)">n</text><text xml:space="preserve" font-family="Helvetica-Light,Helvetica" font-size="34.0" fill="#FEFFFE" transform="matrix(1.00, 0.00, -0.00, -1.00, 517.7, 73.8)"> </text><text xml:space="preserve" font-family="Helvetica-Light,Helvetica" font-size="34.0" fill="#FEFFFE" transform="matrix(1.00, 0.00, -0.00, -1.00, 527.2, 73.8)">s</text><text xml:space="preserve" font-family="Helvetica-Light,Helvetica" font-size="34.0" fill="#FEFFFE" transform="matrix(1.00, 0.00, -0.00, -1.00, 544.2, 73.8)">a</text><text xml:space="preserve" font-family="Helvetica-Light,Helvetica" font-size="34.0" fill="#FEFFFE" transform="matrix(1.00, 0.00, -0.00, -1.00, 563.1, 73.8)">a</text><text xml:space="preserve" font-family="Helvetica-Light,Helvetica" font-size="34.0" fill="#FEFFFE" transform="matrix(1.00, 0.00, -0.00, -1.00, 582.0, 73.8)">i</text><text xml:space="preserve" font-family="Helvetica-Light,Helvetica" font-size="34.0" fill="#FEFFFE" transform="matrix(1.00, 0.00, -0.00, -1.00, 589.5, 73.8)"> </text><text xml:space="preserve" font-family="Helvetica-Light,Helvetica" font-size="34.0" fill="#FEFFFE" transform="matrix(1.00, 0.00, -0.00, -1.00, 599.0, 73.8)">v</text><text xml:space="preserve" font-family="Helvetica-Light,Helvetica" font-size="34.0" fill="#FEFFFE" transform="matrix(1.00, 0.00, -0.00, -1.00, 616.0, 73.8)">e</text><text xml:space="preserve" font-family="Helvetica-Light,Helvetica" font-size="34.0" fill="#FEFFFE" transform="matrix(1.00, 0.00, -0.00, -1.00, 634.9, 73.8)">r</text><text xml:space="preserve" font-family="Helvetica-Light,Helvetica" font-size="34.0" fill="#FEFFFE" transform="matrix(1.00, 0.00, -0.00, -1.00, 646.2, 73.8)">h</text><text xml:space="preserve" font-family="Helvetica-Light,Helvetica" font-size="34.0" fill="#FEFFFE" transform="matrix(1.00, 0.00, -0.00, -1.00, 665.1, 73.8)">a</text><text xml:space="preserve" font-family="Helvetica-Light,Helvetica" font-size="34.0" fill="#FEFFFE" transform="matrix(1.00, 0.00, -0.00, -1.00, 684.0, 73.8)">a</text><text xml:space="preserve" font-family="Helvetica-Light,Helvetica" font-size="34.0" fill="#FEFFFE" transform="matrix(1.00, 0.00, -0.00, -1.00, 702.9, 73.8)">l</text><text xml:space="preserve" font-family="Helvetica-Light,Helvetica" font-size="34.0" fill="#FEFFFE" transform="matrix(1.00, 0.00, -0.00, -1.00, 710.5, 73.8)"> </text><text xml:space="preserve" font-family="Helvetica-Light,Helvetica" font-size="34.0" fill="#FEFFFE" transform="matrix(1.00, 0.00, -0.00, -1.00, 719.9, 73.8)">l</text><text xml:space="preserve" font-family="Helvetica-Light,Helvetica" font-size="34.0" fill="#FEFFFE" transform="matrix(1.00, 0.00, -0.00, -1.00, 727.5, 73.8)">u</text><text xml:space="preserve" font-family="Helvetica-Light,Helvetica" font-size="34.0" fill="#FEFFFE" transform="matrix(1.00, 0.00, -0.00, -1.00, 746.4, 73.8)">i</text><text xml:space="preserve" font-family="Helvetica-Light,Helvetica" font-size="34.0" fill="#FEFFFE" transform="matrix(1.00, 0.00, -0.00, -1.00, 753.9, 73.8)">s</text><text xml:space="preserve" font-family="Helvetica-Light,Helvetica" font-size="34.0" fill="#FEFFFE" transform="matrix(1.00, 0.00, -0.00, -1.00, 770.9, 73.8)">t</text><text xml:space="preserve" font-family="Helvetica-Light,Helvetica" font-size="34.0" fill="#FEFFFE" transform="matrix(1.00, 0.00, -0.00, -1.00, 780.4, 73.8)">e</text><text xml:space="preserve" font-family="Helvetica-Light,Helvetica" font-size="34.0" fill="#FEFFFE" transform="matrix(1.00, 0.00, -0.00, -1.00, 799.3, 73.8)">r</text><text xml:space="preserve" font-family="Helvetica-Light,Helvetica" font-size="34.0" fill="#FEFFFE" transform="matrix(1.00, 0.00, -0.00, -1.00, 811.2, 73.8)">t</text><text xml:space="preserve" font-family="Helvetica-Light,Helvetica" font-size="34.0" fill="#FEFFFE" transform="matrix(1.00, 0.00, -0.00, -1.00, 820.7, 73.8)"> </text><text xml:space="preserve" font-family="Helvetica-Light,Helvetica" font-size="34.0" fill="#FEFFFE" transform="matrix(1.00, 0.00, -0.00, -1.00, 305.4, 32.8)">z</text><text xml:space="preserve" font-family="Helvetica-Light,Helvetica" font-size="34.0" fill="#FEFFFE" transform="matrix(1.00, 0.00, -0.00, -1.00, 322.4, 32.8)">u</text><text xml:space="preserve" font-family="Helvetica-Light,Helvetica" font-size="34.0" fill="#FEFFFE" transform="matrix(1.00, 0.00, -0.00, -1.00, 341.3, 32.8)">l</text><text xml:space="preserve" font-family="Helvetica-Light,Helvetica" font-size="34.0" fill="#FEFFFE" transform="matrix(1.00, 0.00, -0.00, -1.00, 348.9, 32.8)"> </text><text xml:space="preserve" font-family="Helvetica-Light,Helvetica" font-size="34.0" fill="#FEFFFE" transform="matrix(1.00, 0.00, -0.00, -1.00, 358.3, 32.8)">j</text><text xml:space="preserve" font-family="Helvetica-Light,Helvetica" font-size="34.0" fill="#FEFFFE" transform="matrix(1.00, 0.00, -0.00, -1.00, 365.9, 32.8)">e</text><text xml:space="preserve" font-family="Helvetica-Light,Helvetica" font-size="34.0" fill="#FEFFFE" transform="matrix(1.00, 0.00, -0.00, -1.00, 384.8, 32.8)"> </text><text xml:space="preserve" font-family="Helvetica-Light,Helvetica" font-size="34.0" fill="#FEFFFE" transform="matrix(1.00, 0.00, -0.00, -1.00, 394.2, 32.8)">j</text><text xml:space="preserve" font-family="Helvetica-Light,Helvetica" font-size="34.0" fill="#FEFFFE" transform="matrix(1.00, 0.00, -0.00, -1.00, 401.8, 32.8)">e</text><text xml:space="preserve" font-family="Helvetica-Light,Helvetica" font-size="34.0" fill="#FEFFFE" transform="matrix(1.00, 0.00, -0.00, -1.00, 420.7, 32.8)"> </text><text xml:space="preserve" font-family="Helvetica-Light,Helvetica" font-size="34.0" fill="#FEFFFE" transform="matrix(1.00, 0.00, -0.00, -1.00, 430.1, 32.8)">V</text><text xml:space="preserve" font-family="Helvetica-Light,Helvetica" font-size="34.0" fill="#FEFFFE" transform="matrix(1.00, 0.00, -0.00, -1.00, 450.9, 32.8)">E</text><text xml:space="preserve" font-family="Helvetica-Light,Helvetica" font-size="34.0" fill="#FEFFFE" transform="matrix(1.00, 0.00, -0.00, -1.00, 471.7, 32.8)">R</text><text xml:space="preserve" font-family="Helvetica-Light,Helvetica" font-size="34.0" fill="#FEFFFE" transform="matrix(1.00, 0.00, -0.00, -1.00, 493.7, 32.8)">V</text><text xml:space="preserve" font-family="Helvetica-Light,Helvetica" font-size="34.0" fill="#FEFFFE" transform="matrix(1.00, 0.00, -0.00, -1.00, 514.5, 32.8)">E</text><text xml:space="preserve" font-family="Helvetica-Light,Helvetica" font-size="34.0" fill="#FEFFFE" transform="matrix(1.00, 0.00, -0.00, -1.00, 535.3, 32.8)">E</text><text xml:space="preserve" font-family="Helvetica-Light,Helvetica" font-size="34.0" fill="#FEFFFE" transform="matrix(1.00, 0.00, -0.00, -1.00, 556.1, 32.8)">L</text><text xml:space="preserve" font-family="Helvetica-Light,Helvetica" font-size="34.0" fill="#FEFFFE" transform="matrix(1.00, 0.00, -0.00, -1.00, 575.0, 32.8)">D</text><text xml:space="preserve" font-family="Helvetica-Light,Helvetica" font-size="34.0" fill="#FEFFFE" transform="matrix(1.00, 0.00, -0.00, -1.00, 599.5, 32.8)"> </text><text xml:space="preserve" font-family="Helvetica-Light,Helvetica" font-size="34.0" fill="#FEFFFE" transform="matrix(1.00, 0.00, -0.00, -1.00, 609.0, 32.8)">v</text><text xml:space="preserve" font-family="Helvetica-Light,Helvetica" font-size="34.0" fill="#FEFFFE" transform="matrix(1.00, 0.00, -0.00, -1.00, 626.0, 32.8)">o</text><text xml:space="preserve" font-family="Helvetica-Light,Helvetica" font-size="34.0" fill="#FEFFFE" transform="matrix(1.00, 0.00, -0.00, -1.00, 644.9, 32.8)">e</text><text xml:space="preserve" font-family="Helvetica-Light,Helvetica" font-size="34.0" fill="#FEFFFE" transform="matrix(1.00, 0.00, -0.00, -1.00, 663.8, 32.8)">l</text><text xml:space="preserve" font-family="Helvetica-Light,Helvetica" font-size="34.0" fill="#FEFFFE" transform="matrix(1.00, 0.00, -0.00, -1.00, 671.3, 32.8)">e</text><text xml:space="preserve" font-family="Helvetica-Light,Helvetica" font-size="34.0" fill="#FEFFFE" transform="matrix(1.00, 0.00, -0.00, -1.00, 690.2, 32.8)">n</text><text xml:space="preserve" font-family="Helvetica-Light,Helvetica" font-size="34.0" fill="#FEFFFE" transform="matrix(1.00, 0.00, -0.00, -1.00, 709.1, 32.8)">.</text></g></g><g><clipPath id="clip0x608001ca3ba0"><path d="M 420.0 546.0 L 604.0 546.0 L 604.0 366.0 L 420.0 366.0 Z M 420.4 545.8 "></path></clipPath><g clip-path="url(#clip0x608001ca3ba0)"><g><clipPath id="clip0x608001ca3d20"><path d="M 420.4 365.8 L 603.6 365.8 L 603.6 545.8 L 420.4 545.8 Z M 420.4 365.8 "></path></clipPath><g clip-path="url(#clip0x608001ca3d20)"><image xlink:href="../../D4859A4F-71BB-4C87-8831-F0D1B7742C94/assets/C6D5BAF5033182073283B82B6676A7A7.png" width="340.00" height="340.00" transform="matrix(0.54, 0.00, -0.00, -0.54, 420.4, 547.4)"></image></g></g></g></g><g><clipPath id="clip0x6000022bfc20"><path d="M 349.3 295.1 L 674.7 295.1 L 674.7 620.4 L 349.3 620.4 Z M 349.3 295.1 "></path></clipPath><g clip-path="url(#clip0x6000022bfc20)"><path d="M 264.1 45.3 C 324.5 105.7 324.5 203.6 264.1 264.1 C 203.6 324.5 105.7 324.5 45.3 264.1 C -15.1 203.6 -15.1 105.7 45.3 45.3 C 105.7 -15.1 203.6 -15.1 264.1 45.3 Z M 264.1 45.3 " fill="none" stroke="#FEFFFE" stroke-width="14.00" stroke-linecap="round" stroke-linejoin="round" stroke-dasharray="0.0, 42.0" transform="matrix(1.00, 0.00, 0.00, -1.00, 357.3, 612.4)"></path></g></g><g><clipPath id="clip0x6000024a0900"><path d="M 385.7 329.5 L 638.3 329.5 L 638.3 582.1 L 385.7 582.1 Z M 385.7 329.5 "></path></clipPath><g clip-path="url(#clip0x6000024a0900)"><path d="M 207.9 35.7 C 255.5 83.2 255.5 160.4 207.9 207.9 C 160.4 255.5 83.2 255.5 35.7 207.9 C -11.9 160.4 -11.9 83.2 35.7 35.7 C 83.2 -11.9 160.4 -11.9 207.9 35.7 Z M 207.9 35.7 " fill="none" stroke="#FEFFFE" stroke-width="7.00" transform="matrix(1.00, 0.00, 0.00, -1.00, 390.2, 577.6)"></path></g></g><g><clipPath id="clip0x6000024a0b40"><path d="M 370.9 314.6 L 653.1 314.6 L 653.1 596.9 L 370.9 596.9 Z M 370.9 314.6 "></path></clipPath><g clip-path="url(#clip0x6000024a0b40)"><path d="M 233.2 40.0 C 286.6 93.4 286.6 179.9 233.2 233.2 C 179.9 286.6 93.4 286.6 40.0 233.2 C -13.3 179.9 -13.3 93.4 40.0 40.0 C 93.4 -13.3 179.9 -13.3 233.2 40.0 Z M 233.2 40.0 " fill="none" stroke="#FEFFFE" stroke-width="7.00" transform="matrix(1.00, 0.00, 0.00, -1.00, 375.4, 592.4)"></path></g></g><image xlink:href="../../B9DCF13A-DE5C-4579-88D1-84484F441654/assets/9B7E54A405F4015B50D55716CD910191.png" width="63.00" height="65.00" transform="matrix(1.01, 0.00, -0.00, -1.00, 41.9, 739.7)" opacity="0.50"></image><path d="M 83.0 700.0 L 83.0 679.6 L 44.9 709.1 L 83.0 738.7 L 83.0 719.0 L 102.0 719.0 L 102.0 700.0 Z M 82.7 699.7 " fill="#FEFFFE"></path><path d="M 179.3 30.8 C 220.3 71.8 220.3 138.3 179.3 179.3 C 138.3 220.3 71.8 220.3 30.8 179.3 C -10.3 138.3 -10.3 71.8 30.8 30.8 C 71.8 -10.3 138.3 -10.3 179.3 30.8 Z M 179.3 30.8 " fill="none" stroke="#FEFFFE" stroke-width="7.00" transform="matrix(1.00, 0.00, 0.00, -1.00, 407.0, 562.8)"></path></g></svg>