<?xml version="1.0" encoding="UTF-8" standalone="no"?><svg xmlns="http://www.w3.org/2000/svg" xmlns:xlink="http://www.w3.org/1999/xlink" clip-rule="evenodd" stroke-miterlimit="10" viewBox="0 0 1024 768"><desc>SVG generated by Keynote</desc><defs></defs><g transform="matrix(1.00, 0.00, -0.00, -1.00, 0.0, 768.0)"><path d="M 0.0 768.0 L 1024.0 768.0 L 1024.0 0.0 L 0.0 0.0 Z M 0.0 768.0 " fill="#164E86"></path><g><clipPath id="clip0x6100010b88a0"><path d="M 0.0 768.0 L 1024.0 768.0 L 1024.0 0.0 L 0.0 0.0 Z M 0.0 768.0 "></path></clipPath><g clip-path="url(#clip0x6100010b88a0)"><image xlink:href="../../285589DF-E202-482B-8BDC-D2D84A1C4F4D/assets/188C1A6F5F728AF472743B24B53A8210.png" width="1024.00" height="768.00" transform="matrix(1.00, 0.00, -0.00, -1.00, 0.0, 768.0)"></image></g></g><path d="M 2.5 138.5 L 1021.5 138.5 L 1021.5 1.5 L 2.5 1.5 Z M 2.5 138.8 " fill="#EB5C56"></path><path d="M 0.0 0.3 L 1019.0 0.3 L 1019.0 137.3 L 0.0 137.3 Z M 0.0 0.0 " fill="none" stroke="#FEFFFE" stroke-width="5.00" transform="matrix(1.00, 0.00, 0.00, -1.00, 2.5, 138.8)"></path><g><clipPath id="clip0x6080006b1220"><path d="M 1.0 4.8 L 1023.0 4.8 L 1023.0 135.8 L 1.0 135.8 Z M 1.0 4.8 "></path></clipPath><g clip-path="url(#clip0x6080006b1220)"><text xml:space="preserve" font-family="Helvetica-Bold,Helvetica" font-weight="bold" font-size="34.0" fill="#FEFFFE" transform="matrix(1.00, 0.00, -0.00, -1.00, 283.4, 57.6)">C</text><text xml:space="preserve" font-family="Helvetica-Bold,Helvetica" font-weight="bold" font-size="34.0" fill="#FEFFFE" transform="matrix(1.00, 0.00, -0.00, -1.00, 308.0, 57.6)">l</text><text xml:space="preserve" font-family="Helvetica-Bold,Helvetica" font-weight="bold" font-size="34.0" fill="#FEFFFE" transform="matrix(1.00, 0.00, -0.00, -1.00, 317.4, 57.6)">i</text><text xml:space="preserve" font-family="Helvetica-Bold,Helvetica" font-weight="bold" font-size="34.0" fill="#FEFFFE" transform="matrix(1.00, 0.00, -0.00, -1.00, 326.9, 57.6)">c</text><text xml:space="preserve" font-family="Helvetica-Bold,Helvetica" font-weight="bold" font-size="34.0" fill="#FEFFFE" transform="matrix(1.00, 0.00, -0.00, -1.00, 345.8, 57.6)">k</text><text xml:space="preserve" font-family="Helvetica-Bold,Helvetica" font-weight="bold" font-size="34.0" fill="#FEFFFE" transform="matrix(1.00, 0.00, -0.00, -1.00, 364.7, 57.6)"> </text><text xml:space="preserve" font-family="Helvetica-Bold,Helvetica" font-weight="bold" font-size="34.0" fill="#FEFFFE" transform="matrix(1.00, 0.00, -0.00, -1.00, 374.1, 57.6)">t</text><text xml:space="preserve" font-family="Helvetica-Bold,Helvetica" font-weight="bold" font-size="34.0" fill="#FEFFFE" transform="matrix(1.00, 0.00, -0.00, -1.00, 385.5, 57.6)">h</text><text xml:space="preserve" font-family="Helvetica-Bold,Helvetica" font-weight="bold" font-size="34.0" fill="#FEFFFE" transform="matrix(1.00, 0.00, -0.00, -1.00, 406.2, 57.6)">e</text><text xml:space="preserve" font-family="Helvetica-Bold,Helvetica" font-weight="bold" font-size="34.0" fill="#FEFFFE" transform="matrix(1.00, 0.00, -0.00, -1.00, 425.1, 57.6)"> </text><text xml:space="preserve" font-family="Helvetica-Bold,Helvetica" font-weight="bold" font-size="34.0" fill="#FEFFFE" transform="matrix(1.00, 0.00, -0.00, -1.00, 434.6, 57.6)">t</text><text xml:space="preserve" font-family="Helvetica-Bold,Helvetica" font-weight="bold" font-size="34.0" fill="#FEFFFE" transform="matrix(1.00, 0.00, -0.00, -1.00, 445.9, 57.6)">h</text><text xml:space="preserve" font-family="Helvetica-Bold,Helvetica" font-weight="bold" font-size="34.0" fill="#FEFFFE" transform="matrix(1.00, 0.00, -0.00, -1.00, 466.7, 57.6)">i</text><text xml:space="preserve" font-family="Helvetica-Bold,Helvetica" font-weight="bold" font-size="34.0" fill="#FEFFFE" transform="matrix(1.00, 0.00, -0.00, -1.00, 476.1, 57.6)">n</text><text xml:space="preserve" font-family="Helvetica-Bold,Helvetica" font-weight="bold" font-size="34.0" fill="#FEFFFE" transform="matrix(1.00, 0.00, -0.00, -1.00, 496.9, 57.6)">g</text><text xml:space="preserve" font-family="Helvetica-Bold,Helvetica" font-weight="bold" font-size="34.0" fill="#FEFFFE" transform="matrix(1.00, 0.00, -0.00, -1.00, 517.6, 57.6)">s</text><text xml:space="preserve" font-family="Helvetica-Bold,Helvetica" font-weight="bold" font-size="34.0" fill="#FEFFFE" transform="matrix(1.00, 0.00, -0.00, -1.00, 536.5, 57.6)"> </text><text xml:space="preserve" font-family="Helvetica-Bold,Helvetica" font-weight="bold" font-size="34.0" fill="#FEFFFE" transform="matrix(1.00, 0.00, -0.00, -1.00, 546.0, 57.6)">i</text><text xml:space="preserve" font-family="Helvetica-Bold,Helvetica" font-weight="bold" font-size="34.0" fill="#FEFFFE" transform="matrix(1.00, 0.00, -0.00, -1.00, 555.4, 57.6)">n</text><text xml:space="preserve" font-family="Helvetica-Bold,Helvetica" font-weight="bold" font-size="34.0" fill="#FEFFFE" transform="matrix(1.00, 0.00, -0.00, -1.00, 576.2, 57.6)"> </text><text xml:space="preserve" font-family="Helvetica-Bold,Helvetica" font-weight="bold" font-size="34.0" fill="#FEFFFE" transform="matrix(1.00, 0.00, -0.00, -1.00, 585.6, 57.6)">t</text><text xml:space="preserve" font-family="Helvetica-Bold,Helvetica" font-weight="bold" font-size="34.0" fill="#FEFFFE" transform="matrix(1.00, 0.00, -0.00, -1.00, 596.9, 57.6)">h</text><text xml:space="preserve" font-family="Helvetica-Bold,Helvetica" font-weight="bold" font-size="34.0" fill="#FEFFFE" transform="matrix(1.00, 0.00, -0.00, -1.00, 617.7, 57.6)">e</text><text xml:space="preserve" font-family="Helvetica-Bold,Helvetica" font-weight="bold" font-size="34.0" fill="#FEFFFE" transform="matrix(1.00, 0.00, -0.00, -1.00, 636.6, 57.6)"> </text><text xml:space="preserve" font-family="Helvetica-Bold,Helvetica" font-weight="bold" font-size="34.0" fill="#FEFFFE" transform="matrix(1.00, 0.00, -0.00, -1.00, 646.1, 57.6)">r</text><text xml:space="preserve" font-family="Helvetica-Bold,Helvetica" font-weight="bold" font-size="34.0" fill="#FEFFFE" transform="matrix(1.00, 0.00, -0.00, -1.00, 659.3, 57.6)">o</text><text xml:space="preserve" font-family="Helvetica-Bold,Helvetica" font-weight="bold" font-size="34.0" fill="#FEFFFE" transform="matrix(1.00, 0.00, -0.00, -1.00, 680.1, 57.6)">o</text><text xml:space="preserve" font-family="Helvetica-Bold,Helvetica" font-weight="bold" font-size="34.0" fill="#FEFFFE" transform="matrix(1.00, 0.00, -0.00, -1.00, 700.8, 57.6)">m</text><text xml:space="preserve" font-family="Helvetica-Bold,Helvetica" font-weight="bold" font-size="34.0" fill="#FEFFFE" transform="matrix(1.00, 0.00, -0.00, -1.00, 731.1, 57.6)">.</text></g></g><image xlink:href="10AC5070D39DB8235B66C2CE1328785E.png" width="274.00" height="84.00" transform="matrix(1.00, 0.00, -0.00, -1.00, 162.0, 632.9)" opacity="0.50"></image><path d="M 165.0 631.9 L 182.8 605.6 C 182.3 603.3 182.0 601.0 182.0 598.5 L 182.0 586.3 C 182.0 568.4 196.4 554.0 214.2 554.0 L 400.3 554.0 C 418.1 554.0 433.0 568.4 433.0 586.3 L 433.0 598.5 C 433.0 616.4 418.1 631.0 400.3 631.0 L 214.2 631.0 C 207.5 631.0 201.1 628.7 195.9 625.1 L 165.0 631.9 Z M 165.0 631.9 " fill="#F5D327"></path><g><clipPath id="clip0x6180012acf00"><path d="M 181.3 554.0 L 433.2 554.0 L 433.2 630.8 L 181.3 630.8 Z M 181.3 554.0 "></path></clipPath><g clip-path="url(#clip0x6180012acf00)"><text xml:space="preserve" font-family="Helvetica-Bold,Helvetica" font-weight="bold" font-size="26.0" fill="#000000" transform="matrix(1.00, 0.00, -0.00, -1.00, 205.4, 582.4)">E</text><text xml:space="preserve" font-family="Helvetica-Bold,Helvetica" font-weight="bold" font-size="26.0" fill="#000000" transform="matrix(1.00, 0.00, -0.00, -1.00, 222.7, 582.4)">e</text><text xml:space="preserve" font-family="Helvetica-Bold,Helvetica" font-weight="bold" font-size="26.0" fill="#000000" transform="matrix(1.00, 0.00, -0.00, -1.00, 237.2, 582.4)">n</text><text xml:space="preserve" font-family="Helvetica-Bold,Helvetica" font-weight="bold" font-size="26.0" fill="#000000" transform="matrix(1.00, 0.00, -0.00, -1.00, 253.1, 582.4)"> </text><text xml:space="preserve" font-family="Helvetica-Bold,Helvetica" font-weight="bold" font-size="26.0" fill="#000000" transform="matrix(1.00, 0.00, -0.00, -1.00, 260.3, 582.4)">o</text><text xml:space="preserve" font-family="Helvetica-Bold,Helvetica" font-weight="bold" font-size="26.0" fill="#000000" transform="matrix(1.00, 0.00, -0.00, -1.00, 276.2, 582.4)">u</text><text xml:space="preserve" font-family="Helvetica-Bold,Helvetica" font-weight="bold" font-size="26.0" fill="#000000" transform="matrix(1.00, 0.00, -0.00, -1.00, 292.1, 582.4)">d</text><text xml:space="preserve" font-family="Helvetica-Bold,Helvetica" font-weight="bold" font-size="26.0" fill="#000000" transform="matrix(1.00, 0.00, -0.00, -1.00, 307.9, 582.4)">e</text><text xml:space="preserve" font-family="Helvetica-Bold,Helvetica" font-weight="bold" font-size="26.0" fill="#000000" transform="matrix(1.00, 0.00, -0.00, -1.00, 322.4, 582.4)"> </text><text xml:space="preserve" font-family="Helvetica-Bold,Helvetica" font-weight="bold" font-size="26.0" fill="#000000" transform="matrix(1.00, 0.00, -0.00, -1.00, 329.6, 582.4)">p</text><text xml:space="preserve" font-family="Helvetica-Bold,Helvetica" font-weight="bold" font-size="26.0" fill="#000000" transform="matrix(1.00, 0.00, -0.00, -1.00, 345.5, 582.4)">o</text><text xml:space="preserve" font-family="Helvetica-Bold,Helvetica" font-weight="bold" font-size="26.0" fill="#000000" transform="matrix(1.00, 0.00, -0.00, -1.00, 361.4, 582.4)">s</text><text xml:space="preserve" font-family="Helvetica-Bold,Helvetica" font-weight="bold" font-size="26.0" fill="#000000" transform="matrix(1.00, 0.00, -0.00, -1.00, 375.8, 582.4)">t</text><text xml:space="preserve" font-family="Helvetica-Bold,Helvetica" font-weight="bold" font-size="26.0" fill="#000000" transform="matrix(1.00, 0.00, -0.00, -1.00, 384.5, 582.4)">e</text><text xml:space="preserve" font-family="Helvetica-Bold,Helvetica" font-weight="bold" font-size="26.0" fill="#000000" transform="matrix(1.00, 0.00, -0.00, -1.00, 399.0, 582.4)">r</text></g></g><g><clipPath id="clip0x618000eb52a0"><path d="M 390.8 588.9 L 456.8 588.9 L 456.8 654.9 L 390.8 654.9 Z M 390.8 588.9 "></path></clipPath><g clip-path="url(#clip0x618000eb52a0)"><image xlink:href="AFDFCCD293C32D5284ABFF10EF06FE1C.png" width="64.00" height="64.00" transform="matrix(1.00, 0.00, -0.00, -1.00, 391.8, 653.9)" opacity="0.50"></image><path d="M 444.3 644.4 C 455.6 633.1 455.6 614.7 444.3 603.4 C 433.0 592.1 414.6 592.1 403.3 603.4 C 392.0 614.7 392.0 633.1 403.3 644.4 C 414.6 655.7 433.0 655.7 444.3 644.4 Z M 444.3 644.4 " fill="#C82505"></path></g></g><g><clipPath id="clip0x6000014bd520"><path d="M 407.1 612.1 L 435.6 640.6 L 440.6 635.7 L 412.0 607.2 Z M 407.1 612.1 "></path></clipPath><g clip-path="url(#clip0x6000014bd520)"><path d="M 0.0 0.0 L 38.3 0.0 " fill="none" stroke="#FEFFFE" stroke-width="5.00" transform="matrix(0.71, 0.71, 0.71, -0.71, 410.3, 610.3)"></path></g></g><g><clipPath id="clip0x6000014bd940"><path d="M 435.6 607.2 L 407.1 635.7 L 412.0 640.6 L 440.6 612.1 Z M 435.6 607.2 "></path></clipPath><g clip-path="url(#clip0x6000014bd940)"><path d="M 0.0 0.0 L 38.3 0.0 " fill="none" stroke="#FEFFFE" stroke-width="5.00" transform="matrix(-0.71, 0.71, 0.71, 0.71, 437.4, 610.3)"></path></g></g></g></svg>