<?xml version="1.0" encoding="UTF-8" standalone="no"?><svg xmlns="http://www.w3.org/2000/svg" xmlns:xlink="http://www.w3.org/1999/xlink" clip-rule="evenodd" stroke-miterlimit="10" viewBox="0 0 711 412"><desc>SVG generated by Keynote</desc><defs></defs><g transform="matrix(1.00, 0.00, -0.00, -1.00, 0.0, 412.0)"><g><clipPath id="clip0x6000034a6d80"><path d="M 0.7 201.1 L 274.7 201.1 L 274.7 411.4 L 0.7 411.4 Z M 0.7 201.1 "></path></clipPath><g clip-path="url(#clip0x6000034a6d80)"><path d="M 170.5 409.4 C 139.9 401.4 109.3 393.6 78.6 386.0 C 51.4 379.3 22.4 371.1 8.7 346.7 C -5.1 322.0 2.9 292.0 19.1 268.2 C 73.7 188.0 188.1 178.7 248.3 251.5 C 272.4 280.7 281.2 320.3 266.6 355.0 C 250.8 393.0 211.2 415.4 170.5 409.4 Z M 170.5 409.4 " fill="#F2FBC5"></path></g></g><g><clipPath id="clip0x6000034a7560"><path d="M 619.4 0.9 L 710.1 0.9 L 710.1 106.5 L 619.4 106.5 Z M 619.4 0.9 "></path></clipPath><g clip-path="url(#clip0x6000034a7560)"><path d="M 668.6 102.6 C 636.1 99.0 614.1 67.5 622.0 35.7 C 625.7 20.4 636.6 7.8 651.2 1.9 L 708.0 69.9 C 711.1 80.8 707.3 92.6 698.4 99.6 C 689.9 106.2 678.3 107.4 668.6 102.6 Z M 668.6 102.6 " fill="#D1B785"></path></g></g></g></svg>