<?xml version="1.0" encoding="UTF-8" standalone="no"?><svg xmlns="http://www.w3.org/2000/svg" xmlns:xlink="http://www.w3.org/1999/xlink" clip-rule="evenodd" stroke-miterlimit="10" viewBox="0 0 678 315"><desc>SVG generated by Keynote</desc><defs></defs><g transform="matrix(1.00, 0.00, -0.00, -1.00, 0.0, 315.0)"><g><clipPath id="clip0x6000036a06c0"><path d="M 0.0 314.0 L 147.0 314.0 L 147.0 168.0 L 0.0 168.0 Z M 0.2 314.2 "></path></clipPath><g clip-path="url(#clip0x6000036a06c0)"><g><clipPath id="clip0x6000036a07e0"><path d="M 0.2 167.6 L 146.8 167.6 L 146.8 314.2 L 0.2 314.2 Z M 0.2 167.6 "></path></clipPath><g clip-path="url(#clip0x6000036a07e0)"><image xlink:href="../../7A4B9083-F0BC-4A7F-BACB-479FBA8B8C52/assets/D64E22001264F23595FF6551F393FFD4.png" width="346.00" height="346.00" transform="matrix(0.42, 0.00, -0.00, -0.42, 0.2, 314.2)"></image></g></g></g></g><g><clipPath id="clip0x6000036a08a0"><path d="M 177.0 314.0 L 324.0 314.0 L 324.0 168.0 L 177.0 168.0 Z M 177.2 314.2 "></path></clipPath><g clip-path="url(#clip0x6000036a08a0)"><g><clipPath id="clip0x6000036a0300"><path d="M 177.2 167.6 L 323.8 167.6 L 323.8 314.2 L 177.2 314.2 Z M 177.2 167.6 "></path></clipPath><g clip-path="url(#clip0x6000036a0300)"><image xlink:href="../../245E5825-BC3A-4736-9886-B2831640A1C6/assets/2485FE46EDB84177E66AEE1B1A890B86.png" width="340.00" height="346.00" transform="matrix(0.43, 0.00, -0.00, -0.43, 177.2, 315.5)"></image></g></g></g></g><g><clipPath id="clip0x618002ca5700"><path d="M 177.0 148.0 L 324.0 148.0 L 324.0 1.0 L 177.0 1.0 Z M 177.2 147.5 "></path></clipPath><g clip-path="url(#clip0x618002ca5700)"><g><clipPath id="clip0x618002ca5820"><path d="M 177.2 1.0 L 323.8 1.0 L 323.8 147.5 L 177.2 147.5 Z M 177.2 1.0 "></path></clipPath><g clip-path="url(#clip0x618002ca5820)"><image xlink:href="../../245E5825-BC3A-4736-9886-B2831640A1C6/assets/C4B27A1F7AB7CFD8E40DB3EC4347F2B5.png" width="341.00" height="346.00" transform="matrix(0.43, 0.00, -0.00, -0.43, 177.2, 148.6)"></image></g></g></g></g><g><clipPath id="clip0x6000036a0960"><path d="M 0.0 148.0 L 147.0 148.0 L 147.0 1.0 L 0.0 1.0 Z M 0.2 147.5 "></path></clipPath><g clip-path="url(#clip0x6000036a0960)"><g><clipPath id="clip0x6000036a0c60"><path d="M 0.2 1.0 L 146.8 1.0 L 146.8 147.5 L 0.2 147.5 Z M 0.2 1.0 "></path></clipPath><g clip-path="url(#clip0x6000036a0c60)"><image xlink:href="../../B073CD53-FE77-4D6F-B835-D1174D8B77C8/assets/B1BF7E3A7EF231B73484982046AEF236.png" width="340.00" height="340.00" transform="matrix(0.43, 0.00, -0.00, -0.43, 0.2, 147.5)"></image></g></g></g></g><g><clipPath id="clip0x6000036a0cc0"><path d="M 354.0 148.0 L 501.0 148.0 L 501.0 1.0 L 354.0 1.0 Z M 354.2 147.5 "></path></clipPath><g clip-path="url(#clip0x6000036a0cc0)"><g><clipPath id="clip0x6000036a1020"><path d="M 354.2 1.0 L 500.8 1.0 L 500.8 147.5 L 354.2 147.5 Z M 354.2 1.0 "></path></clipPath><g clip-path="url(#clip0x6000036a1020)"><image xlink:href="../../D4859A4F-71BB-4C87-8831-F0D1B7742C94/assets/C6D5BAF5033182073283B82B6676A7A7.png" width="340.00" height="340.00" transform="matrix(0.43, 0.00, -0.00, -0.43, 354.2, 147.5)"></image></g></g></g></g><g><clipPath id="clip0x6000036a1080"><path d="M 531.0 314.0 L 678.0 314.0 L 678.0 168.0 L 531.0 168.0 Z M 531.2 314.2 "></path></clipPath><g clip-path="url(#clip0x6000036a1080)"><g><clipPath id="clip0x6000036a13e0"><path d="M 531.2 167.6 L 677.8 167.6 L 677.8 314.2 L 531.2 314.2 Z M 531.2 167.6 "></path></clipPath><g clip-path="url(#clip0x6000036a13e0)"><image xlink:href="../../0A623E02-F49F-4214-883E-5BCFE2454AAB/assets/B14270DAB5A9194F715CAA8C9146FBED.png" width="334.00" height="337.00" transform="matrix(0.44, 0.00, -0.00, -0.44, 531.2, 314.8)"></image></g></g></g></g><g><clipPath id="clip0x608002aa26a0"><path d="M 354.0 314.0 L 501.0 314.0 L 501.0 168.0 L 354.0 168.0 Z M 354.2 314.2 "></path></clipPath><g clip-path="url(#clip0x608002aa26a0)"><g><clipPath id="clip0x608002aa2820"><path d="M 354.2 167.6 L 500.8 167.6 L 500.8 314.2 L 354.2 314.2 Z M 354.2 167.6 "></path></clipPath><g clip-path="url(#clip0x608002aa2820)"><image xlink:href="../../B9DCF13A-DE5C-4579-88D1-84484F441654/assets/7E1BA77471FF065A173FB2A0EB1A61CE.png" width="346.00" height="340.00" transform="matrix(0.43, 0.00, -0.00, -0.43, 352.9, 314.2)"></image></g></g></g></g><g><clipPath id="clip0x6100026bd6a0"><path d="M 531.0 148.0 L 678.0 148.0 L 678.0 1.0 L 531.0 1.0 Z M 531.2 147.5 "></path></clipPath><g clip-path="url(#clip0x6100026bd6a0)"><g><clipPath id="clip0x6100026bd880"><path d="M 531.2 1.0 L 677.8 1.0 L 677.8 147.5 L 531.2 147.5 Z M 531.2 1.0 "></path></clipPath><g clip-path="url(#clip0x6100026bd880)"><image xlink:href="../../D4859A4F-71BB-4C87-8831-F0D1B7742C94/assets/F418039880A8FD9B29EE8C31AECCA8B1.png" width="346.00" height="340.00" transform="matrix(0.43, 0.00, -0.00, -0.43, 529.9, 147.5)"></image></g></g></g></g></g></svg>