<?xml version="1.0" encoding="UTF-8" standalone="no"?><svg xmlns="http://www.w3.org/2000/svg" xmlns:xlink="http://www.w3.org/1999/xlink" clip-rule="evenodd" stroke-miterlimit="10" viewBox="0 0 1024 768"><desc>SVG generated by Keynote</desc><defs></defs><g transform="matrix(1.00, 0.00, -0.00, -1.00, 0.0, 768.0)"><path d="M 0.0 768.0 L 1024.0 768.0 L 1024.0 0.0 L 0.0 0.0 Z M 0.0 768.0 " fill="#164E86"></path><g><clipPath id="clip0x6000028a9660"><path d="M 0.0 770.0 L 1024.0 770.0 L 1024.0 -2.0 L 0.0 -2.0 Z M -0.1 770.5 "></path></clipPath><g clip-path="url(#clip0x6000028a9660)"><image xlink:href="../../9E8F32BC-9589-436B-8D50-A1D9D0F5E178/assets/ECC3D887976EB14B3030A5A5497A08FD.png" width="1024.00" height="768.00" transform="matrix(1.32, 0.00, -0.00, -1.32, -0.1, 770.5)"></image></g></g><g><clipPath id="clip0x6180022a9120"><path d="M 76.0 670.0 L 349.0 670.0 L 349.0 300.0 L 76.0 300.0 Z M 75.5 669.7 "></path></clipPath><g clip-path="url(#clip0x6180022a9120)"><image xlink:href="A243498AACAAC307215D392D3794FD37.png" width="492.00" height="702.00" transform="matrix(0.56, 0.00, -0.00, -0.56, 75.5, 669.7)"></image></g></g><path d="M 220.9 153.1 L 220.9 153.1 C 220.9 182.5 244.7 206.0 274.1 206.0 L 749.9 206.0 C 779.3 206.0 803.1 182.5 803.1 153.1 L 803.1 153.1 C 803.1 123.7 779.3 100.0 749.9 100.0 L 274.1 100.0 C 244.7 100.0 220.9 123.7 220.9 153.1 Z M 220.9 153.1 " fill="#EC5A1D"></path><path d="M 0.0 53.3 L 0.0 53.3 C 0.0 23.8 23.8 0.3 53.3 0.3 L 529.0 0.3 C 558.4 0.3 582.3 23.8 582.3 53.3 L 582.3 53.3 C 582.3 82.7 558.4 106.3 529.0 106.3 L 53.3 106.3 C 23.8 106.3 0.0 82.7 0.0 53.3 Z M 0.0 53.3 " fill="none" stroke="#FEFFFE" stroke-width="8.00" transform="matrix(1.00, 0.00, 0.00, -1.00, 220.9, 206.3)"></path><g><clipPath id="clip0x6000028a9960"><path d="M 220.9 99.8 L 803.1 99.8 L 803.1 206.3 L 220.9 206.3 Z M 220.9 99.8 "></path></clipPath><g clip-path="url(#clip0x6000028a9960)"><text xml:space="preserve" font-family="HoboStd,Hobo Std" font-size="45.0" fill="#FEFFFE" transform="matrix(1.00, 0.00, -0.00, -1.00, 302.7, 141.4)">P</text><text xml:space="preserve" font-family="HoboStd,Hobo Std" font-size="45.0" fill="#FEFFFE" transform="matrix(1.00, 0.00, -0.00, -1.00, 330.8, 141.4)">R</text><text xml:space="preserve" font-family="HoboStd,Hobo Std" font-size="45.0" fill="#FEFFFE" transform="matrix(1.00, 0.00, -0.00, -1.00, 360.6, 141.4)">O</text><text xml:space="preserve" font-family="HoboStd,Hobo Std" font-size="45.0" fill="#FEFFFE" transform="matrix(1.00, 0.00, -0.00, -1.00, 392.7, 141.4)">B</text><text xml:space="preserve" font-family="HoboStd,Hobo Std" font-size="45.0" fill="#FEFFFE" transform="matrix(1.00, 0.00, -0.00, -1.00, 422.5, 141.4)">E</text><text xml:space="preserve" font-family="HoboStd,Hobo Std" font-size="45.0" fill="#FEFFFE" transform="matrix(1.00, 0.00, -0.00, -1.00, 449.3, 141.4)">E</text><text xml:space="preserve" font-family="HoboStd,Hobo Std" font-size="45.0" fill="#FEFFFE" transform="matrix(1.00, 0.00, -0.00, -1.00, 476.2, 141.4)">R</text><text xml:space="preserve" font-family="HoboStd,Hobo Std" font-size="45.0" fill="#FEFFFE" transform="matrix(1.00, 0.00, -0.00, -1.00, 506.1, 141.4)"> </text><text xml:space="preserve" font-family="HoboStd,Hobo Std" font-size="45.0" fill="#FEFFFE" transform="matrix(1.00, 0.00, -0.00, -1.00, 519.1, 141.4)">O</text><text xml:space="preserve" font-family="HoboStd,Hobo Std" font-size="45.0" fill="#FEFFFE" transform="matrix(1.00, 0.00, -0.00, -1.00, 551.2, 141.4)">P</text><text xml:space="preserve" font-family="HoboStd,Hobo Std" font-size="45.0" fill="#FEFFFE" transform="matrix(1.00, 0.00, -0.00, -1.00, 579.2, 141.4)">N</text><text xml:space="preserve" font-family="HoboStd,Hobo Std" font-size="45.0" fill="#FEFFFE" transform="matrix(1.00, 0.00, -0.00, -1.00, 611.2, 141.4)">I</text><text xml:space="preserve" font-family="HoboStd,Hobo Std" font-size="45.0" fill="#FEFFFE" transform="matrix(1.00, 0.00, -0.00, -1.00, 625.9, 141.4)">E</text><text xml:space="preserve" font-family="HoboStd,Hobo Std" font-size="45.0" fill="#FEFFFE" transform="matrix(1.00, 0.00, -0.00, -1.00, 652.7, 141.4)">U</text><text xml:space="preserve" font-family="HoboStd,Hobo Std" font-size="45.0" fill="#FEFFFE" transform="matrix(1.00, 0.00, -0.00, -1.00, 683.0, 141.4)">W</text></g></g></g></svg>