<?xml version="1.0" encoding="UTF-8" standalone="no"?><svg xmlns="http://www.w3.org/2000/svg" xmlns:xlink="http://www.w3.org/1999/xlink" clip-rule="evenodd" stroke-miterlimit="10" viewBox="0 0 747 781"><desc>SVG generated by Keynote</desc><defs></defs><g transform="matrix(1.00, 0.00, -0.00, -1.00, 0.0, 781.0)"><g><clipPath id="clip0x600000aad7a0"><path d="M 381.9 0.6 L 746.8 0.6 L 746.8 82.1 L 381.9 82.1 Z M 381.9 0.6 "></path></clipPath><g clip-path="url(#clip0x600000aad7a0)"><path d="M 692.7 69.4 C 763.6 53.9 763.6 28.8 692.7 13.3 C 621.8 -2.2 506.9 -2.2 436.0 13.3 C 365.2 28.8 365.2 53.9 436.0 69.4 C 506.9 85.0 621.8 85.0 692.7 69.4 Z M 692.7 69.4 " fill="#FEFFFE" fill-opacity="0.58"></path></g></g><g><clipPath id="clip0x600000ab0e00"><path d="M 0.6 39.5 L 744.9 39.5 L 744.9 780.3 L 0.6 780.3 Z M 0.6 39.5 "></path></clipPath><g clip-path="url(#clip0x600000ab0e00)"><path d="M 108.6 779.3 L 743.9 42.4 L 384.0 40.5 L 1.6 761.7 L 108.6 779.3 Z M 108.6 779.3 " fill="#FEFFFE" fill-opacity="0.33"></path></g></g></g></svg>