<?xml version="1.0" encoding="UTF-8" standalone="no"?><svg xmlns="http://www.w3.org/2000/svg" xmlns:xlink="http://www.w3.org/1999/xlink" clip-rule="evenodd" stroke-miterlimit="10" viewBox="0 0 746 779"><desc>SVG generated by Keynote</desc><defs></defs><g transform="matrix(1.00, 0.00, -0.00, -1.00, 0.0, 779.0)"><g><clipPath id="clip0x610000eac960"><path d="M 0.9 37.3 L 745.2 37.3 L 745.2 778.1 L 0.9 778.1 Z M 0.9 37.3 "></path></clipPath><g clip-path="url(#clip0x610000eac960)"><path d="M 637.1 777.1 L 1.9 40.2 L 361.8 38.3 L 744.2 759.5 L 637.1 777.1 Z M 637.1 777.1 " fill="#FEFFFE" fill-opacity="0.33"></path></g></g><g><clipPath id="clip0x6100008b59c0"><path d="M 1.9 0.9 L 366.8 0.9 L 366.8 82.3 L 1.9 82.3 Z M 1.9 0.9 "></path></clipPath><g clip-path="url(#clip0x6100008b59c0)"><path d="M 312.7 69.7 C 383.5 54.1 383.5 29.0 312.7 13.5 C 241.8 -2.0 126.9 -2.0 56.0 13.5 C -14.8 29.0 -14.8 54.1 56.0 69.7 C 126.9 85.2 241.8 85.2 312.7 69.7 Z M 312.7 69.7 " fill="#FEFFFE" fill-opacity="0.58"></path></g></g></g></svg>